G04 #@! TF.GenerationSoftware,KiCad,Pcbnew,7.0.1*
G04 #@! TF.CreationDate,2023-03-29T21:31:27+02:00*
G04 #@! TF.ProjectId,Kallebol_elevation,4b616c6c-6562-46f6-9c5f-656c65766174,rev?*
G04 #@! TF.SameCoordinates,Original*
G04 #@! TF.FileFunction,Soldermask,Top*
G04 #@! TF.FilePolarity,Negative*
%FSLAX46Y46*%
G04 Gerber Fmt 4.6, Leading zero omitted, Abs format (unit mm)*
G04 Created by KiCad (PCBNEW 7.0.1) date 2023-03-29 21:31:27*
%MOMM*%
%LPD*%
G01*
G04 APERTURE LIST*
G04 Aperture macros list*
%AMRoundRect*
0 Rectangle with rounded corners*
0 $1 Rounding radius*
0 $2 $3 $4 $5 $6 $7 $8 $9 X,Y pos of 4 corners*
0 Add a 4 corners polygon primitive as box body*
4,1,4,$2,$3,$4,$5,$6,$7,$8,$9,$2,$3,0*
0 Add four circle primitives for the rounded corners*
1,1,$1+$1,$2,$3*
1,1,$1+$1,$4,$5*
1,1,$1+$1,$6,$7*
1,1,$1+$1,$8,$9*
0 Add four rect primitives between the rounded corners*
20,1,$1+$1,$2,$3,$4,$5,0*
20,1,$1+$1,$4,$5,$6,$7,0*
20,1,$1+$1,$6,$7,$8,$9,0*
20,1,$1+$1,$8,$9,$2,$3,0*%
G04 Aperture macros list end*
%ADD10C,8.702000*%
%ADD11RoundRect,0.051000X-1.500000X1.500000X-1.500000X-1.500000X1.500000X-1.500000X1.500000X1.500000X0*%
%ADD12C,3.102000*%
%ADD13RoundRect,0.288500X0.250000X0.237500X-0.250000X0.237500X-0.250000X-0.237500X0.250000X-0.237500X0*%
%ADD14RoundRect,0.051000X0.750000X-1.000000X0.750000X1.000000X-0.750000X1.000000X-0.750000X-1.000000X0*%
%ADD15RoundRect,0.051000X1.900000X-1.000000X1.900000X1.000000X-1.900000X1.000000X-1.900000X-1.000000X0*%
%ADD16RoundRect,0.288500X-0.250000X-0.237500X0.250000X-0.237500X0.250000X0.237500X-0.250000X0.237500X0*%
%ADD17RoundRect,0.288500X0.300000X0.237500X-0.300000X0.237500X-0.300000X-0.237500X0.300000X-0.237500X0*%
%ADD18RoundRect,0.301000X1.750000X1.000000X-1.750000X1.000000X-1.750000X-1.000000X1.750000X-1.000000X0*%
%ADD19RoundRect,0.269750X0.218750X0.256250X-0.218750X0.256250X-0.218750X-0.256250X0.218750X-0.256250X0*%
%ADD20RoundRect,0.051000X-1.300000X-1.300000X1.300000X-1.300000X1.300000X1.300000X-1.300000X1.300000X0*%
%ADD21C,2.702000*%
%ADD22RoundRect,0.051000X0.762500X-0.350000X0.762500X0.350000X-0.762500X0.350000X-0.762500X-0.350000X0*%
%ADD23RoundRect,0.051000X-1.200000X-1.600000X1.200000X-1.600000X1.200000X1.600000X-1.200000X1.600000X0*%
%ADD24RoundRect,0.051000X-0.850000X-0.850000X0.850000X-0.850000X0.850000X0.850000X-0.850000X0.850000X0*%
%ADD25O,1.802000X1.802000*%
%ADD26RoundRect,0.051000X1.500000X-1.500000X1.500000X1.500000X-1.500000X1.500000X-1.500000X-1.500000X0*%
%ADD27RoundRect,0.051000X3.000000X-3.000000X3.000000X3.000000X-3.000000X3.000000X-3.000000X-3.000000X0*%
%ADD28RoundRect,0.288500X-0.300000X-0.237500X0.300000X-0.237500X0.300000X0.237500X-0.300000X0.237500X0*%
%ADD29RoundRect,0.051000X0.850000X0.850000X-0.850000X0.850000X-0.850000X-0.850000X0.850000X-0.850000X0*%
%ADD30RoundRect,0.288500X0.237500X-0.250000X0.237500X0.250000X-0.237500X0.250000X-0.237500X-0.250000X0*%
%ADD31RoundRect,0.288500X0.237500X-0.300000X0.237500X0.300000X-0.237500X0.300000X-0.237500X-0.300000X0*%
%ADD32RoundRect,0.301000X1.000000X-1.750000X1.000000X1.750000X-1.000000X1.750000X-1.000000X-1.750000X0*%
%ADD33O,1.902000X1.902000*%
%ADD34O,1.602000X1.602000*%
%ADD35RoundRect,0.051000X1.750000X0.850000X-1.750000X0.850000X-1.750000X-0.850000X1.750000X-0.850000X0*%
%ADD36RoundRect,0.051000X-0.850000X1.750000X-0.850000X-1.750000X0.850000X-1.750000X0.850000X1.750000X0*%
G04 APERTURE END LIST*
D10*
X53000000Y-50000000D03*
X130000000Y-50000000D03*
X130000000Y-120000000D03*
X53086000Y-119888000D03*
D11*
X131064000Y-63246000D03*
D12*
X131064000Y-68326000D03*
D13*
X88185000Y-60706000D03*
X86360000Y-60706000D03*
D14*
X121144000Y-106782000D03*
X123444000Y-106782000D03*
D15*
X123444000Y-100482000D03*
D14*
X125744000Y-106782000D03*
D16*
X63961000Y-60706000D03*
X65786000Y-60706000D03*
D17*
X60452000Y-80518000D03*
X58727000Y-80518000D03*
D18*
X82232000Y-98044000D03*
X74232000Y-98044000D03*
D11*
X53086000Y-104648000D03*
D12*
X53086000Y-109728000D03*
D19*
X122479000Y-86360000D03*
X120904000Y-86360000D03*
D16*
X86360000Y-58674000D03*
X88185000Y-58674000D03*
D20*
X81280000Y-51105000D03*
D21*
X86280000Y-51105000D03*
X91280000Y-51105000D03*
D19*
X122479000Y-82804000D03*
X120904000Y-82804000D03*
X122479000Y-84582000D03*
X120904000Y-84582000D03*
X122479000Y-81026000D03*
X120904000Y-81026000D03*
D22*
X62312000Y-73025000D03*
X62312000Y-74295000D03*
X62312000Y-75565000D03*
X62312000Y-76835000D03*
X67736000Y-76835000D03*
X67736000Y-75565000D03*
X67736000Y-74295000D03*
X67736000Y-73025000D03*
D23*
X65024000Y-74930000D03*
D13*
X122428000Y-76962000D03*
X120603000Y-76962000D03*
D24*
X86868000Y-93218000D03*
D25*
X86868000Y-95758000D03*
X86868000Y-98298000D03*
X86868000Y-100838000D03*
X86868000Y-103378000D03*
D17*
X92657000Y-60706000D03*
X90932000Y-60706000D03*
D11*
X131064000Y-76200000D03*
D12*
X131064000Y-81280000D03*
D17*
X100076000Y-61214000D03*
X98351000Y-61214000D03*
D26*
X52832000Y-75184000D03*
D12*
X52832000Y-70104000D03*
D27*
X66548000Y-113538000D03*
X66548000Y-96538000D03*
D28*
X103886000Y-63246000D03*
X105611000Y-63246000D03*
X106680000Y-61214000D03*
X108405000Y-61214000D03*
D13*
X108458000Y-58674000D03*
X106633000Y-58674000D03*
D29*
X131826000Y-112776000D03*
D25*
X131826000Y-110236000D03*
X131826000Y-107696000D03*
X131826000Y-105156000D03*
X131826000Y-102616000D03*
X131826000Y-100076000D03*
X131826000Y-97536000D03*
X131826000Y-94996000D03*
X131826000Y-92456000D03*
X131826000Y-89916000D03*
D16*
X81383500Y-60706000D03*
X83208500Y-60706000D03*
D20*
X98552000Y-51105000D03*
D21*
X103552000Y-51105000D03*
X108552000Y-51105000D03*
D16*
X121158000Y-109474000D03*
X122983000Y-109474000D03*
D18*
X82232000Y-109220000D03*
X74232000Y-109220000D03*
D20*
X63914000Y-51054000D03*
D21*
X68914000Y-51054000D03*
X73914000Y-51054000D03*
D13*
X122428000Y-75184000D03*
X120603000Y-75184000D03*
D29*
X122657000Y-122413000D03*
D25*
X122657000Y-119873000D03*
X122657000Y-117333000D03*
D17*
X75131000Y-60706000D03*
X73406000Y-60706000D03*
X60452000Y-78740000D03*
X58727000Y-78740000D03*
D30*
X118618000Y-91440000D03*
X118618000Y-89615000D03*
D14*
X76694000Y-123800000D03*
X78994000Y-123800000D03*
D15*
X78994000Y-117500000D03*
D14*
X81294000Y-123800000D03*
D13*
X70659000Y-60706000D03*
X68834000Y-60706000D03*
D31*
X86360000Y-118364000D03*
X86360000Y-116639000D03*
D19*
X85903000Y-123952000D03*
X84328000Y-123952000D03*
D24*
X86893000Y-106949000D03*
D25*
X86893000Y-109489000D03*
X86893000Y-112029000D03*
D32*
X78486000Y-89344000D03*
X78486000Y-81344000D03*
D31*
X84074000Y-118311000D03*
X84074000Y-116586000D03*
D16*
X68787000Y-58674000D03*
X70612000Y-58674000D03*
D24*
X87122000Y-78232000D03*
D25*
X87122000Y-80772000D03*
X87122000Y-83312000D03*
X87122000Y-85852000D03*
X87122000Y-88392000D03*
D32*
X66802000Y-89344000D03*
X66802000Y-81344000D03*
D13*
X122428000Y-73406000D03*
X120603000Y-73406000D03*
D16*
X98298000Y-58928000D03*
X100123000Y-58928000D03*
X87630000Y-123952000D03*
X89455000Y-123952000D03*
D13*
X122428000Y-78740000D03*
X120603000Y-78740000D03*
D33*
X105849000Y-121790000D03*
D34*
X105549000Y-118760000D03*
X100699000Y-118760000D03*
D33*
X100399000Y-121790000D03*
D25*
X112014000Y-121920000D03*
D35*
X112914000Y-121920000D03*
D25*
X112014000Y-119380000D03*
D35*
X112914000Y-119380000D03*
D29*
X112014000Y-116840000D03*
D35*
X112914000Y-116840000D03*
D25*
X112014000Y-114300000D03*
D35*
X112914000Y-114300000D03*
D25*
X112014000Y-111760000D03*
D35*
X112914000Y-111760000D03*
D25*
X112014000Y-109220000D03*
D35*
X112914000Y-109220000D03*
D25*
X112014000Y-106680000D03*
D35*
X112914000Y-106680000D03*
D29*
X112014000Y-104140000D03*
D35*
X112914000Y-104140000D03*
D25*
X112014000Y-101600000D03*
D35*
X112914000Y-101600000D03*
D25*
X112014000Y-99060000D03*
D35*
X112914000Y-99060000D03*
D25*
X112014000Y-96520000D03*
D35*
X112914000Y-96520000D03*
D25*
X112014000Y-93980000D03*
D35*
X112914000Y-93980000D03*
D29*
X112014000Y-91440000D03*
D35*
X112914000Y-91440000D03*
D25*
X112014000Y-88900000D03*
D35*
X112914000Y-88900000D03*
D25*
X112014000Y-86360000D03*
D35*
X112914000Y-86360000D03*
D25*
X112014000Y-83820000D03*
D35*
X112914000Y-83820000D03*
D25*
X112014000Y-81280000D03*
D35*
X112914000Y-81280000D03*
D29*
X112014000Y-78740000D03*
D35*
X112914000Y-78740000D03*
D25*
X112014000Y-76200000D03*
D35*
X112914000Y-76200000D03*
D25*
X112014000Y-73660000D03*
D35*
X112914000Y-73660000D03*
D25*
X94234000Y-73660000D03*
D35*
X93334000Y-73660000D03*
D25*
X94234000Y-76200000D03*
D35*
X93334000Y-76200000D03*
D29*
X94234000Y-78740000D03*
D35*
X93334000Y-78740000D03*
D25*
X94234000Y-81280000D03*
D35*
X93334000Y-81280000D03*
D25*
X94234000Y-83820000D03*
D35*
X93334000Y-83820000D03*
D25*
X94234000Y-86360000D03*
D35*
X93334000Y-86360000D03*
D25*
X94234000Y-88900000D03*
D35*
X93334000Y-88900000D03*
D29*
X94234000Y-91440000D03*
D35*
X93334000Y-91440000D03*
D25*
X94234000Y-93980000D03*
D35*
X93334000Y-93980000D03*
D25*
X94234000Y-96520000D03*
D35*
X93334000Y-96520000D03*
D25*
X94234000Y-99060000D03*
D35*
X93334000Y-99060000D03*
D25*
X94234000Y-101600000D03*
D35*
X93334000Y-101600000D03*
D29*
X94234000Y-104140000D03*
D35*
X93334000Y-104140000D03*
D25*
X94234000Y-106680000D03*
D35*
X93334000Y-106680000D03*
D25*
X94234000Y-109220000D03*
D35*
X93334000Y-109220000D03*
D25*
X94234000Y-111760000D03*
D35*
X93334000Y-111760000D03*
D25*
X94234000Y-114300000D03*
D35*
X93334000Y-114300000D03*
D29*
X94234000Y-116840000D03*
D35*
X93334000Y-116840000D03*
D25*
X94234000Y-119380000D03*
D35*
X93334000Y-119380000D03*
D25*
X94234000Y-121920000D03*
D35*
X93334000Y-121920000D03*
D25*
X105664000Y-73890000D03*
D36*
X105664000Y-72990000D03*
D29*
X103124000Y-73890000D03*
D36*
X103124000Y-72990000D03*
D25*
X100584000Y-73890000D03*
D36*
X100584000Y-72990000D03*
D14*
X121144000Y-96622000D03*
X123444000Y-96622000D03*
D15*
X123444000Y-90322000D03*
D14*
X125744000Y-96622000D03*
M02*
