M48
; DRILL file {KiCad 7.0.1} date Wed Mar 29 21:31:52 2023
; FORMAT={-:-/ absolute / metric / decimal}
; #@! TF.CreationDate,2023-03-29T21:31:52+02:00
; #@! TF.GenerationSoftware,Kicad,Pcbnew,7.0.1
; #@! TF.FileFunction,Plated,1,2,PTH
FMAT,2
METRIC
; #@! TA.AperFunction,Plated,PTH,ViaDrill
T1C0.400
; #@! TA.AperFunction,Plated,PTH,ComponentDrill
T2C1.000
; #@! TA.AperFunction,Plated,PTH,ComponentDrill
T3C1.020
; #@! TA.AperFunction,Plated,PTH,ComponentDrill
T4C1.300
; #@! TA.AperFunction,Plated,PTH,ComponentDrill
T5C1.520
; #@! TA.AperFunction,Plated,PTH,ComponentDrill
T6C4.300
%
G90
G05
T1
X57.658Y-79.502
X60.452Y-72.39
X62.23Y-77.978
X64.516Y-71.882
X65.024Y-77.978
X69.088Y-81.28
X70.358Y-74.168
X72.136Y-58.674
X74.168Y-100.076
X74.168Y-107.188
X74.168Y-111.76
X74.422Y-96.012
X76.454Y-60.706
X80.264Y-65.278
X80.264Y-77.978
X80.518Y-69.342
X80.518Y-73.406
X80.518Y-85.09
X80.772Y-81.344
X81.534Y-89.408
X82.042Y-66.944
X82.042Y-70.866
X83.058Y-73.406
X83.312Y-69.342
X83.312Y-85.09
X83.566Y-77.978
X86.868Y-64.77
X88.646Y-68.072
X89.408Y-122.428
X89.662Y-58.674
X94.488Y-60.706
X96.266Y-64.516
X96.266Y-67.564
X96.266Y-124.46
X96.52Y-81.28
X96.774Y-61.214
X97.536Y-104.902
X98.806Y-70.358
X100.076Y-67.056
X101.092Y-105.156
X101.6Y-67.831
X101.854Y-78.994
X105.664Y-65.024
X106.934Y-67.818
X107.442Y-78.74
X108.966Y-64.516
X108.966Y-77.47
X109.22Y-67.564
X109.22Y-124.46
X109.474Y-60.198
X118.618Y-88.392
X123.444Y-88.392
X123.444Y-98.552
X124.206Y-109.474
X133.604Y-92.456
T2
X86.868Y-93.218
X86.868Y-95.758
X86.868Y-98.298
X86.868Y-100.838
X86.868Y-103.378
X86.893Y-106.949
X86.893Y-109.489
X86.893Y-112.029
X87.122Y-78.232
X87.122Y-80.772
X87.122Y-83.312
X87.122Y-85.852
X87.122Y-88.392
X122.657Y-117.333
X122.657Y-119.873
X122.657Y-122.413
X131.826Y-89.916
X131.826Y-92.456
X131.826Y-94.996
X131.826Y-97.536
X131.826Y-100.076
X131.826Y-102.616
X131.826Y-105.156
X131.826Y-107.696
X131.826Y-110.236
X131.826Y-112.776
T3
X94.234Y-73.66
X94.234Y-76.2
X94.234Y-78.74
X94.234Y-81.28
X94.234Y-83.82
X94.234Y-86.36
X94.234Y-88.9
X94.234Y-91.44
X94.234Y-93.98
X94.234Y-96.52
X94.234Y-99.06
X94.234Y-101.6
X94.234Y-104.14
X94.234Y-106.68
X94.234Y-109.22
X94.234Y-111.76
X94.234Y-114.3
X94.234Y-116.84
X94.234Y-119.38
X94.234Y-121.92
X100.584Y-73.89
X103.124Y-73.89
X105.664Y-73.89
X112.014Y-73.66
X112.014Y-76.2
X112.014Y-78.74
X112.014Y-81.28
X112.014Y-83.82
X112.014Y-86.36
X112.014Y-88.9
X112.014Y-91.44
X112.014Y-93.98
X112.014Y-96.52
X112.014Y-99.06
X112.014Y-101.6
X112.014Y-104.14
X112.014Y-106.68
X112.014Y-109.22
X112.014Y-111.76
X112.014Y-114.3
X112.014Y-116.84
X112.014Y-119.38
X112.014Y-121.92
T4
X63.914Y-51.054
X68.914Y-51.054
X73.914Y-51.054
X81.28Y-51.105
X86.28Y-51.105
X91.28Y-51.105
X98.552Y-51.105
X103.552Y-51.105
X108.552Y-51.105
T5
X52.832Y-70.104
X52.832Y-75.184
X53.086Y-104.648
X53.086Y-109.728
X131.064Y-63.246
X131.064Y-68.326
X131.064Y-76.2
X131.064Y-81.28
T6
X53.0Y-50.0
X53.086Y-119.888
X130.0Y-50.0
X130.0Y-120.0
T0
M30
