G04 #@! TF.GenerationSoftware,KiCad,Pcbnew,7.0.1*
G04 #@! TF.CreationDate,2023-03-29T21:31:27+02:00*
G04 #@! TF.ProjectId,Kallebol_elevation,4b616c6c-6562-46f6-9c5f-656c65766174,rev?*
G04 #@! TF.SameCoordinates,Original*
G04 #@! TF.FileFunction,Legend,Bot*
G04 #@! TF.FilePolarity,Positive*
%FSLAX46Y46*%
G04 Gerber Fmt 4.6, Leading zero omitted, Abs format (unit mm)*
G04 Created by KiCad (PCBNEW 7.0.1) date 2023-03-29 21:31:27*
%MOMM*%
%LPD*%
G01*
G04 APERTURE LIST*
G04 Aperture macros list*
%AMRoundRect*
0 Rectangle with rounded corners*
0 $1 Rounding radius*
0 $2 $3 $4 $5 $6 $7 $8 $9 X,Y pos of 4 corners*
0 Add a 4 corners polygon primitive as box body*
4,1,4,$2,$3,$4,$5,$6,$7,$8,$9,$2,$3,0*
0 Add four circle primitives for the rounded corners*
1,1,$1+$1,$2,$3*
1,1,$1+$1,$4,$5*
1,1,$1+$1,$6,$7*
1,1,$1+$1,$8,$9*
0 Add four rect primitives between the rounded corners*
20,1,$1+$1,$2,$3,$4,$5,0*
20,1,$1+$1,$4,$5,$6,$7,0*
20,1,$1+$1,$6,$7,$8,$9,0*
20,1,$1+$1,$8,$9,$2,$3,0*%
G04 Aperture macros list end*
%ADD10C,8.702000*%
%ADD11RoundRect,0.051000X-1.500000X1.500000X-1.500000X-1.500000X1.500000X-1.500000X1.500000X1.500000X0*%
%ADD12C,3.102000*%
%ADD13RoundRect,0.051000X-1.300000X-1.300000X1.300000X-1.300000X1.300000X1.300000X-1.300000X1.300000X0*%
%ADD14C,2.702000*%
%ADD15RoundRect,0.051000X-0.850000X-0.850000X0.850000X-0.850000X0.850000X0.850000X-0.850000X0.850000X0*%
%ADD16O,1.802000X1.802000*%
%ADD17RoundRect,0.051000X1.500000X-1.500000X1.500000X1.500000X-1.500000X1.500000X-1.500000X-1.500000X0*%
%ADD18RoundRect,0.051000X0.850000X0.850000X-0.850000X0.850000X-0.850000X-0.850000X0.850000X-0.850000X0*%
%ADD19O,1.902000X1.902000*%
%ADD20O,1.602000X1.602000*%
G04 APERTURE END LIST*
%LPC*%
D10*
X53000000Y-50000000D03*
X130000000Y-50000000D03*
X130000000Y-120000000D03*
X53086000Y-119888000D03*
D11*
X131064000Y-63246000D03*
D12*
X131064000Y-68326000D03*
D11*
X53086000Y-104648000D03*
D12*
X53086000Y-109728000D03*
D13*
X81280000Y-51105000D03*
D14*
X86280000Y-51105000D03*
X91280000Y-51105000D03*
D15*
X86868000Y-93218000D03*
D16*
X86868000Y-95758000D03*
X86868000Y-98298000D03*
X86868000Y-100838000D03*
X86868000Y-103378000D03*
D11*
X131064000Y-76200000D03*
D12*
X131064000Y-81280000D03*
D17*
X52832000Y-75184000D03*
D12*
X52832000Y-70104000D03*
D18*
X131826000Y-112776000D03*
D16*
X131826000Y-110236000D03*
X131826000Y-107696000D03*
X131826000Y-105156000D03*
X131826000Y-102616000D03*
X131826000Y-100076000D03*
X131826000Y-97536000D03*
X131826000Y-94996000D03*
X131826000Y-92456000D03*
X131826000Y-89916000D03*
D13*
X98552000Y-51105000D03*
D14*
X103552000Y-51105000D03*
X108552000Y-51105000D03*
D13*
X63914000Y-51054000D03*
D14*
X68914000Y-51054000D03*
X73914000Y-51054000D03*
D18*
X122657000Y-122413000D03*
D16*
X122657000Y-119873000D03*
X122657000Y-117333000D03*
D15*
X86893000Y-106949000D03*
D16*
X86893000Y-109489000D03*
X86893000Y-112029000D03*
D15*
X87122000Y-78232000D03*
D16*
X87122000Y-80772000D03*
X87122000Y-83312000D03*
X87122000Y-85852000D03*
X87122000Y-88392000D03*
D19*
X105849000Y-121790000D03*
D20*
X105549000Y-118760000D03*
X100699000Y-118760000D03*
D19*
X100399000Y-121790000D03*
D16*
X112014000Y-121920000D03*
X112014000Y-119380000D03*
D18*
X112014000Y-116840000D03*
D16*
X112014000Y-114300000D03*
X112014000Y-111760000D03*
X112014000Y-109220000D03*
X112014000Y-106680000D03*
D18*
X112014000Y-104140000D03*
D16*
X112014000Y-101600000D03*
X112014000Y-99060000D03*
X112014000Y-96520000D03*
X112014000Y-93980000D03*
D18*
X112014000Y-91440000D03*
D16*
X112014000Y-88900000D03*
X112014000Y-86360000D03*
X112014000Y-83820000D03*
X112014000Y-81280000D03*
D18*
X112014000Y-78740000D03*
D16*
X112014000Y-76200000D03*
X112014000Y-73660000D03*
X94234000Y-73660000D03*
X94234000Y-76200000D03*
D18*
X94234000Y-78740000D03*
D16*
X94234000Y-81280000D03*
X94234000Y-83820000D03*
X94234000Y-86360000D03*
X94234000Y-88900000D03*
D18*
X94234000Y-91440000D03*
D16*
X94234000Y-93980000D03*
X94234000Y-96520000D03*
X94234000Y-99060000D03*
X94234000Y-101600000D03*
D18*
X94234000Y-104140000D03*
D16*
X94234000Y-106680000D03*
X94234000Y-109220000D03*
X94234000Y-111760000D03*
X94234000Y-114300000D03*
D18*
X94234000Y-116840000D03*
D16*
X94234000Y-119380000D03*
X94234000Y-121920000D03*
X105664000Y-73890000D03*
D18*
X103124000Y-73890000D03*
D16*
X100584000Y-73890000D03*
M02*
