G04 #@! TF.GenerationSoftware,KiCad,Pcbnew,7.0.1*
G04 #@! TF.CreationDate,2023-03-29T21:31:27+02:00*
G04 #@! TF.ProjectId,Kallebol_elevation,4b616c6c-6562-46f6-9c5f-656c65766174,rev?*
G04 #@! TF.SameCoordinates,Original*
G04 #@! TF.FileFunction,Copper,L2,Bot*
G04 #@! TF.FilePolarity,Positive*
%FSLAX46Y46*%
G04 Gerber Fmt 4.6, Leading zero omitted, Abs format (unit mm)*
G04 Created by KiCad (PCBNEW 7.0.1) date 2023-03-29 21:31:27*
%MOMM*%
%LPD*%
G01*
G04 APERTURE LIST*
G04 #@! TA.AperFunction,ComponentPad*
%ADD10C,8.600000*%
G04 #@! TD*
G04 #@! TA.AperFunction,ComponentPad*
%ADD11R,3.000000X3.000000*%
G04 #@! TD*
G04 #@! TA.AperFunction,ComponentPad*
%ADD12C,3.000000*%
G04 #@! TD*
G04 #@! TA.AperFunction,ComponentPad*
%ADD13R,2.600000X2.600000*%
G04 #@! TD*
G04 #@! TA.AperFunction,ComponentPad*
%ADD14C,2.600000*%
G04 #@! TD*
G04 #@! TA.AperFunction,ComponentPad*
%ADD15R,1.700000X1.700000*%
G04 #@! TD*
G04 #@! TA.AperFunction,ComponentPad*
%ADD16O,1.700000X1.700000*%
G04 #@! TD*
G04 #@! TA.AperFunction,ViaPad*
%ADD17C,0.800000*%
G04 #@! TD*
G04 #@! TA.AperFunction,Conductor*
%ADD18C,0.350000*%
G04 #@! TD*
G04 #@! TA.AperFunction,Conductor*
%ADD19C,0.600000*%
G04 #@! TD*
G04 APERTURE END LIST*
D10*
X53000000Y-50000000D03*
X130000000Y-50000000D03*
X130000000Y-120000000D03*
X53086000Y-119888000D03*
D11*
X131064000Y-63246000D03*
D12*
X131064000Y-68326000D03*
D11*
X53086000Y-104648000D03*
D12*
X53086000Y-109728000D03*
D13*
X81280000Y-51105000D03*
D14*
X86280000Y-51105000D03*
X91280000Y-51105000D03*
D15*
X86868000Y-93218000D03*
D16*
X86868000Y-95758000D03*
X86868000Y-98298000D03*
X86868000Y-100838000D03*
X86868000Y-103378000D03*
D11*
X131064000Y-76200000D03*
D12*
X131064000Y-81280000D03*
D11*
X52832000Y-75184000D03*
D12*
X52832000Y-70104000D03*
D15*
X131826000Y-112776000D03*
D16*
X131826000Y-110236000D03*
X131826000Y-107696000D03*
X131826000Y-105156000D03*
X131826000Y-102616000D03*
X131826000Y-100076000D03*
X131826000Y-97536000D03*
X131826000Y-94996000D03*
X131826000Y-92456000D03*
X131826000Y-89916000D03*
D13*
X98552000Y-51105000D03*
D14*
X103552000Y-51105000D03*
X108552000Y-51105000D03*
D13*
X63914000Y-51054000D03*
D14*
X68914000Y-51054000D03*
X73914000Y-51054000D03*
D15*
X122657000Y-122413000D03*
D16*
X122657000Y-119873000D03*
X122657000Y-117333000D03*
D15*
X86893000Y-106949000D03*
D16*
X86893000Y-109489000D03*
X86893000Y-112029000D03*
D15*
X87122000Y-78232000D03*
D16*
X87122000Y-80772000D03*
X87122000Y-83312000D03*
X87122000Y-85852000D03*
X87122000Y-88392000D03*
X112014000Y-121920000D03*
X112014000Y-119380000D03*
D15*
X112014000Y-116840000D03*
D16*
X112014000Y-114300000D03*
X112014000Y-111760000D03*
X112014000Y-109220000D03*
X112014000Y-106680000D03*
D15*
X112014000Y-104140000D03*
D16*
X112014000Y-101600000D03*
X112014000Y-99060000D03*
X112014000Y-96520000D03*
X112014000Y-93980000D03*
D15*
X112014000Y-91440000D03*
D16*
X112014000Y-88900000D03*
X112014000Y-86360000D03*
X112014000Y-83820000D03*
X112014000Y-81280000D03*
D15*
X112014000Y-78740000D03*
D16*
X112014000Y-76200000D03*
X112014000Y-73660000D03*
X94234000Y-73660000D03*
X94234000Y-76200000D03*
D15*
X94234000Y-78740000D03*
D16*
X94234000Y-81280000D03*
X94234000Y-83820000D03*
X94234000Y-86360000D03*
X94234000Y-88900000D03*
D15*
X94234000Y-91440000D03*
D16*
X94234000Y-93980000D03*
X94234000Y-96520000D03*
X94234000Y-99060000D03*
X94234000Y-101600000D03*
D15*
X94234000Y-104140000D03*
D16*
X94234000Y-106680000D03*
X94234000Y-109220000D03*
X94234000Y-111760000D03*
X94234000Y-114300000D03*
D15*
X94234000Y-116840000D03*
D16*
X94234000Y-119380000D03*
X94234000Y-121920000D03*
X105664000Y-73890000D03*
D15*
X103124000Y-73890000D03*
D16*
X100584000Y-73890000D03*
D17*
X74168000Y-100076000D03*
X57658000Y-79502000D03*
X80518000Y-73406000D03*
X108966000Y-64516000D03*
X80772000Y-81344000D03*
X65024000Y-77978000D03*
X62230000Y-77978000D03*
X86868000Y-64770000D03*
X89662000Y-58674000D03*
X109220000Y-124460000D03*
X83312000Y-69342000D03*
X74168000Y-111760000D03*
X64516000Y-71882000D03*
X83312000Y-85090000D03*
X88646000Y-68072000D03*
X70358000Y-74168000D03*
X109220000Y-67564000D03*
X109474000Y-60198000D03*
X83566000Y-77978000D03*
X76454000Y-60706000D03*
X80264000Y-77978000D03*
X96774000Y-61214000D03*
X101854000Y-78994000D03*
X94488000Y-60706000D03*
X123444000Y-98552000D03*
X80518000Y-69342000D03*
X97536000Y-104902000D03*
X123444000Y-88392000D03*
X105664000Y-65024000D03*
X74168000Y-107188000D03*
X72136000Y-58674000D03*
X60452000Y-72390000D03*
X101092000Y-105156000D03*
X96520000Y-81280000D03*
X83058000Y-73406000D03*
X96266000Y-124460000D03*
X89408000Y-122428000D03*
X80264000Y-65278000D03*
X74422000Y-96012000D03*
X96266000Y-67564000D03*
X133604000Y-92456000D03*
X96266000Y-64516000D03*
X124206000Y-109474000D03*
X80518000Y-85090000D03*
X69088000Y-81280000D03*
X118618000Y-88392000D03*
X98806000Y-70358000D03*
X101600000Y-67830500D03*
X82042000Y-66943500D03*
X81534000Y-89408000D03*
X82042000Y-70866000D03*
X106934000Y-67818000D03*
X108966000Y-77470000D03*
X100076000Y-67056000D03*
X107442000Y-78740000D03*
D18*
X101600000Y-67830500D02*
X101333500Y-67830500D01*
X101333500Y-67830500D02*
X98806000Y-70358000D01*
D19*
X93472000Y-66040000D02*
X129032000Y-66040000D01*
X131318000Y-68326000D02*
X128270000Y-71374000D01*
X82042000Y-66943500D02*
X82042000Y-70866000D01*
X81534000Y-89408000D02*
X82026000Y-88916000D01*
X129032000Y-66040000D02*
X131318000Y-68326000D01*
X93472000Y-66040000D02*
X92568500Y-66943500D01*
X128270000Y-78232000D02*
X131318000Y-81280000D01*
X128270000Y-71374000D02*
X128270000Y-78232000D01*
X92568500Y-66943500D02*
X82042000Y-66943500D01*
X82026000Y-70882000D02*
X82042000Y-70866000D01*
X82026000Y-88916000D02*
X82026000Y-70882000D01*
D18*
X108966000Y-69850000D02*
X108966000Y-77470000D01*
X106934000Y-67818000D02*
X108966000Y-69850000D01*
X107442000Y-78740000D02*
X107442000Y-71628000D01*
X102870000Y-67056000D02*
X100076000Y-67056000D01*
X107442000Y-71628000D02*
X102870000Y-67056000D01*
G04 #@! TA.AperFunction,Conductor*
G36*
X51378482Y-45256513D02*
G01*
X51424952Y-45307814D01*
X51437311Y-45375920D01*
X51411830Y-45440279D01*
X51356198Y-45481466D01*
X51108425Y-45574456D01*
X50719338Y-45761830D01*
X50348622Y-45983323D01*
X49999238Y-46237165D01*
X49784226Y-46425014D01*
X49784226Y-46425017D01*
X52999999Y-49640790D01*
X53000001Y-49640790D01*
X56215772Y-46425017D01*
X56215772Y-46425015D01*
X56000761Y-46237165D01*
X55651377Y-45983323D01*
X55280661Y-45761830D01*
X54891574Y-45574456D01*
X54643802Y-45481466D01*
X54588170Y-45440279D01*
X54562689Y-45375920D01*
X54575048Y-45307814D01*
X54621518Y-45256513D01*
X54688075Y-45237500D01*
X128311925Y-45237500D01*
X128378482Y-45256513D01*
X128424952Y-45307814D01*
X128437311Y-45375920D01*
X128411830Y-45440279D01*
X128356198Y-45481466D01*
X128108425Y-45574456D01*
X127719338Y-45761830D01*
X127348622Y-45983323D01*
X126999238Y-46237165D01*
X126784226Y-46425014D01*
X126784226Y-46425017D01*
X129999999Y-49640790D01*
X130000001Y-49640790D01*
X133215772Y-46425017D01*
X133215772Y-46425015D01*
X133000761Y-46237165D01*
X132651377Y-45983323D01*
X132280661Y-45761830D01*
X131891574Y-45574456D01*
X131643802Y-45481466D01*
X131588170Y-45440279D01*
X131562689Y-45375920D01*
X131575048Y-45307814D01*
X131621518Y-45256513D01*
X131688075Y-45237500D01*
X134976500Y-45237500D01*
X135039500Y-45254381D01*
X135085619Y-45300500D01*
X135102500Y-45363500D01*
X135102500Y-125324500D01*
X135085619Y-125387500D01*
X135039500Y-125433619D01*
X134976500Y-125450500D01*
X48411500Y-125450500D01*
X48348500Y-125433619D01*
X48302381Y-125387500D01*
X48285500Y-125324500D01*
X48285500Y-123462983D01*
X49870226Y-123462983D01*
X50085238Y-123650834D01*
X50434622Y-123904676D01*
X50805338Y-124126169D01*
X51194425Y-124313543D01*
X51598754Y-124465290D01*
X52015040Y-124580178D01*
X52439952Y-124657288D01*
X52870074Y-124696000D01*
X53301926Y-124696000D01*
X53732047Y-124657288D01*
X54156959Y-124580178D01*
X54573245Y-124465290D01*
X54977574Y-124313543D01*
X55366661Y-124126169D01*
X55737377Y-123904676D01*
X56086755Y-123650838D01*
X56301772Y-123462982D01*
X56301772Y-123462981D01*
X53086001Y-120247210D01*
X53085999Y-120247210D01*
X49870226Y-123462981D01*
X49870226Y-123462983D01*
X48285500Y-123462983D01*
X48285500Y-121468126D01*
X48305115Y-121400612D01*
X48357852Y-121354118D01*
X48427292Y-121343120D01*
X48491815Y-121371041D01*
X48531333Y-121429190D01*
X48580044Y-121579107D01*
X48749778Y-121976222D01*
X48954417Y-122356504D01*
X49192322Y-122716915D01*
X49461585Y-123054561D01*
X49509800Y-123104988D01*
X49509801Y-123104989D01*
X52726790Y-119888001D01*
X53445210Y-119888001D01*
X56662197Y-123104988D01*
X56662198Y-123104988D01*
X56710413Y-123054561D01*
X56979677Y-122716915D01*
X57217582Y-122356504D01*
X57422221Y-121976222D01*
X57446251Y-121920000D01*
X92870844Y-121920000D01*
X92889436Y-122144368D01*
X92889436Y-122144371D01*
X92889437Y-122144372D01*
X92944702Y-122362611D01*
X93035139Y-122568790D01*
X93089751Y-122652380D01*
X93158278Y-122757268D01*
X93283321Y-122893100D01*
X93310762Y-122922908D01*
X93479908Y-123054561D01*
X93488424Y-123061189D01*
X93686426Y-123168342D01*
X93899365Y-123241444D01*
X94121431Y-123278500D01*
X94346566Y-123278500D01*
X94346569Y-123278500D01*
X94568635Y-123241444D01*
X94781574Y-123168342D01*
X94979576Y-123061189D01*
X95157240Y-122922906D01*
X95309722Y-122757268D01*
X95432860Y-122568791D01*
X95523296Y-122362616D01*
X95578564Y-122144368D01*
X95597156Y-121920000D01*
X95586383Y-121789997D01*
X98985672Y-121789997D01*
X98992763Y-121875576D01*
X98993079Y-121880632D01*
X98996856Y-121969550D01*
X99001136Y-121989408D01*
X99003533Y-122005544D01*
X99004948Y-122022623D01*
X99026865Y-122109175D01*
X99027892Y-122113557D01*
X99047370Y-122203931D01*
X99053660Y-122219584D01*
X99058888Y-122235627D01*
X99062251Y-122248907D01*
X99079304Y-122287784D01*
X99099490Y-122333803D01*
X99101016Y-122337435D01*
X99136769Y-122426408D01*
X99143801Y-122437829D01*
X99151896Y-122453277D01*
X99156014Y-122462666D01*
X99156016Y-122462669D01*
X99208643Y-122543222D01*
X99210383Y-122545965D01*
X99262476Y-122630569D01*
X99269070Y-122638062D01*
X99279959Y-122652378D01*
X99283686Y-122658083D01*
X99311528Y-122688327D01*
X99351125Y-122731341D01*
X99353007Y-122733432D01*
X99393367Y-122779289D01*
X99420881Y-122810551D01*
X99425954Y-122814647D01*
X99439504Y-122827346D01*
X99441776Y-122829815D01*
X99523084Y-122893100D01*
X99524814Y-122894471D01*
X99607424Y-122961175D01*
X99610110Y-122962675D01*
X99625914Y-122973153D01*
X99719581Y-123023842D01*
X99721005Y-123024624D01*
X99786459Y-123061189D01*
X99817023Y-123078263D01*
X99828269Y-123083255D01*
X99831269Y-123084285D01*
X99831273Y-123084287D01*
X99935364Y-123120022D01*
X99936121Y-123120285D01*
X100042806Y-123157980D01*
X100045795Y-123159036D01*
X100052046Y-123160079D01*
X100052049Y-123160080D01*
X100164044Y-123178768D01*
X100164141Y-123178784D01*
X100279119Y-123198500D01*
X100282288Y-123198500D01*
X100458827Y-123198500D01*
X100515712Y-123198500D01*
X100569935Y-123189451D01*
X100579976Y-123188188D01*
X100637898Y-123183259D01*
X100687494Y-123170344D01*
X100698500Y-123167997D01*
X100745951Y-123160080D01*
X100801190Y-123141115D01*
X100810350Y-123138356D01*
X100869924Y-123122844D01*
X100913505Y-123103144D01*
X100924472Y-123098792D01*
X100966727Y-123084287D01*
X101021128Y-123054845D01*
X101029137Y-123050874D01*
X101088402Y-123024086D01*
X101125192Y-122999219D01*
X101135755Y-122992812D01*
X101172017Y-122973190D01*
X101223527Y-122933096D01*
X101230354Y-122928142D01*
X101287044Y-122889827D01*
X101287043Y-122889827D01*
X101287047Y-122889825D01*
X101316622Y-122861478D01*
X101326397Y-122853028D01*
X101356220Y-122829818D01*
X101402767Y-122779253D01*
X101408235Y-122773675D01*
X101460144Y-122723925D01*
X101482451Y-122693764D01*
X101491056Y-122683348D01*
X101514310Y-122658087D01*
X101514314Y-122658083D01*
X101553774Y-122597682D01*
X101557941Y-122591694D01*
X101593837Y-122543160D01*
X101602715Y-122531157D01*
X101618056Y-122500728D01*
X101625083Y-122488537D01*
X101630531Y-122480196D01*
X101641984Y-122462669D01*
X101672343Y-122393453D01*
X101675204Y-122387382D01*
X101695574Y-122346979D01*
X101710655Y-122317072D01*
X101710657Y-122317067D01*
X101719631Y-122287761D01*
X101724709Y-122274072D01*
X101735749Y-122248907D01*
X101755146Y-122172304D01*
X101756800Y-122166388D01*
X101780864Y-122087815D01*
X101784319Y-122060831D01*
X101787150Y-122045924D01*
X101793051Y-122022626D01*
X101799860Y-121940439D01*
X101800446Y-121934890D01*
X101811318Y-121849995D01*
X101810310Y-121826270D01*
X101810627Y-121810518D01*
X101812327Y-121790001D01*
X101812327Y-121789997D01*
X104435672Y-121789997D01*
X104442763Y-121875576D01*
X104443079Y-121880632D01*
X104446856Y-121969550D01*
X104451136Y-121989408D01*
X104453533Y-122005544D01*
X104454948Y-122022623D01*
X104476865Y-122109175D01*
X104477892Y-122113557D01*
X104497370Y-122203931D01*
X104503660Y-122219584D01*
X104508888Y-122235627D01*
X104512251Y-122248907D01*
X104529304Y-122287784D01*
X104549490Y-122333803D01*
X104551016Y-122337435D01*
X104586769Y-122426408D01*
X104593801Y-122437829D01*
X104601896Y-122453277D01*
X104606014Y-122462666D01*
X104606016Y-122462669D01*
X104658643Y-122543222D01*
X104660383Y-122545965D01*
X104712476Y-122630569D01*
X104719070Y-122638062D01*
X104729959Y-122652378D01*
X104733686Y-122658083D01*
X104761528Y-122688327D01*
X104801125Y-122731341D01*
X104803007Y-122733432D01*
X104843367Y-122779289D01*
X104870881Y-122810551D01*
X104875954Y-122814647D01*
X104889504Y-122827346D01*
X104891776Y-122829815D01*
X104973084Y-122893100D01*
X104974814Y-122894471D01*
X105057424Y-122961175D01*
X105060110Y-122962675D01*
X105075914Y-122973153D01*
X105169581Y-123023842D01*
X105171005Y-123024624D01*
X105236459Y-123061189D01*
X105267023Y-123078263D01*
X105278269Y-123083255D01*
X105281269Y-123084285D01*
X105281273Y-123084287D01*
X105385364Y-123120022D01*
X105386121Y-123120285D01*
X105492806Y-123157980D01*
X105495795Y-123159036D01*
X105502046Y-123160079D01*
X105502049Y-123160080D01*
X105614044Y-123178768D01*
X105614141Y-123178784D01*
X105729119Y-123198500D01*
X105732288Y-123198500D01*
X105908827Y-123198500D01*
X105965712Y-123198500D01*
X106019935Y-123189451D01*
X106029976Y-123188188D01*
X106087898Y-123183259D01*
X106137494Y-123170344D01*
X106148500Y-123167997D01*
X106195951Y-123160080D01*
X106251190Y-123141115D01*
X106260350Y-123138356D01*
X106319924Y-123122844D01*
X106363505Y-123103144D01*
X106374472Y-123098792D01*
X106416727Y-123084287D01*
X106471128Y-123054845D01*
X106479137Y-123050874D01*
X106538402Y-123024086D01*
X106575192Y-122999219D01*
X106585755Y-122992812D01*
X106622017Y-122973190D01*
X106673527Y-122933096D01*
X106680354Y-122928142D01*
X106737044Y-122889827D01*
X106737043Y-122889827D01*
X106737047Y-122889825D01*
X106766622Y-122861478D01*
X106776397Y-122853028D01*
X106806220Y-122829818D01*
X106852767Y-122779253D01*
X106858235Y-122773675D01*
X106910144Y-122723925D01*
X106932451Y-122693764D01*
X106941056Y-122683348D01*
X106964310Y-122658087D01*
X106964314Y-122658083D01*
X107003774Y-122597682D01*
X107007941Y-122591694D01*
X107043837Y-122543160D01*
X107052715Y-122531157D01*
X107068056Y-122500728D01*
X107075083Y-122488537D01*
X107080531Y-122480196D01*
X107091984Y-122462669D01*
X107122343Y-122393453D01*
X107125204Y-122387382D01*
X107145574Y-122346979D01*
X107160655Y-122317072D01*
X107160657Y-122317067D01*
X107169631Y-122287761D01*
X107174709Y-122274072D01*
X107185749Y-122248907D01*
X107205146Y-122172304D01*
X107206800Y-122166388D01*
X107230864Y-122087815D01*
X107234319Y-122060831D01*
X107237150Y-122045924D01*
X107243051Y-122022626D01*
X107249860Y-121940439D01*
X107250446Y-121934890D01*
X107252353Y-121920000D01*
X110650844Y-121920000D01*
X110669436Y-122144368D01*
X110669436Y-122144371D01*
X110669437Y-122144372D01*
X110724702Y-122362611D01*
X110815139Y-122568790D01*
X110869751Y-122652380D01*
X110938278Y-122757268D01*
X111063321Y-122893100D01*
X111090762Y-122922908D01*
X111259908Y-123054561D01*
X111268424Y-123061189D01*
X111466426Y-123168342D01*
X111679365Y-123241444D01*
X111901431Y-123278500D01*
X112126566Y-123278500D01*
X112126569Y-123278500D01*
X112348635Y-123241444D01*
X112561574Y-123168342D01*
X112759576Y-123061189D01*
X112937240Y-122922906D01*
X113089722Y-122757268D01*
X113212860Y-122568791D01*
X113303296Y-122362616D01*
X113358564Y-122144368D01*
X113377156Y-121920000D01*
X113358564Y-121695632D01*
X113303296Y-121477384D01*
X113212860Y-121271209D01*
X113089722Y-121082732D01*
X112937240Y-120917094D01*
X112937239Y-120917093D01*
X112937237Y-120917091D01*
X112759579Y-120778813D01*
X112759577Y-120778812D01*
X112759576Y-120778811D01*
X112726317Y-120760812D01*
X112678047Y-120714498D01*
X112660288Y-120650000D01*
X112678047Y-120585502D01*
X112726317Y-120539187D01*
X112759576Y-120521189D01*
X112937240Y-120382906D01*
X113089722Y-120217268D01*
X113212860Y-120028791D01*
X113281196Y-119873000D01*
X121293844Y-119873000D01*
X121312436Y-120097368D01*
X121312436Y-120097371D01*
X121312437Y-120097372D01*
X121367702Y-120315611D01*
X121367703Y-120315614D01*
X121367704Y-120315616D01*
X121386826Y-120359210D01*
X121458139Y-120521790D01*
X121581278Y-120710268D01*
X121724475Y-120865820D01*
X121753712Y-120919424D01*
X121754315Y-120980480D01*
X121726141Y-121034650D01*
X121675808Y-121069213D01*
X121649972Y-121078849D01*
X121560793Y-121112111D01*
X121443738Y-121199738D01*
X121356111Y-121316794D01*
X121305011Y-121453799D01*
X121298500Y-121514362D01*
X121298500Y-123311638D01*
X121305011Y-123372200D01*
X121356111Y-123509205D01*
X121443738Y-123626261D01*
X121560794Y-123713888D01*
X121560795Y-123713888D01*
X121560796Y-123713889D01*
X121697799Y-123764989D01*
X121758362Y-123771500D01*
X123555638Y-123771500D01*
X123616201Y-123764989D01*
X123753204Y-123713889D01*
X123870261Y-123626261D01*
X123908647Y-123574983D01*
X126784226Y-123574983D01*
X126999238Y-123762834D01*
X127348622Y-124016676D01*
X127719338Y-124238169D01*
X128108425Y-124425543D01*
X128512754Y-124577290D01*
X128929040Y-124692178D01*
X129353952Y-124769288D01*
X129784074Y-124808000D01*
X130215926Y-124808000D01*
X130646047Y-124769288D01*
X131070959Y-124692178D01*
X131487245Y-124577290D01*
X131891574Y-124425543D01*
X132280661Y-124238169D01*
X132651377Y-124016676D01*
X133000755Y-123762838D01*
X133215772Y-123574982D01*
X133215772Y-123574981D01*
X130000001Y-120359210D01*
X129999999Y-120359210D01*
X126784226Y-123574981D01*
X126784226Y-123574983D01*
X123908647Y-123574983D01*
X123957889Y-123509204D01*
X124008989Y-123372201D01*
X124015500Y-123311638D01*
X124015500Y-121514362D01*
X124008989Y-121453799D01*
X123957889Y-121316796D01*
X123949756Y-121305931D01*
X123870261Y-121199738D01*
X123753205Y-121112111D01*
X123682024Y-121085562D01*
X123638191Y-121069213D01*
X123587858Y-121034650D01*
X123559684Y-120980480D01*
X123560287Y-120919424D01*
X123589522Y-120865822D01*
X123732722Y-120710268D01*
X123855860Y-120521791D01*
X123946296Y-120315616D01*
X124001564Y-120097368D01*
X124009632Y-120000000D01*
X125187153Y-120000000D01*
X125206528Y-120431415D01*
X125264498Y-120859368D01*
X125360595Y-121280397D01*
X125494044Y-121691107D01*
X125663778Y-122088222D01*
X125868417Y-122468504D01*
X126106322Y-122828915D01*
X126375585Y-123166561D01*
X126423800Y-123216988D01*
X126423801Y-123216989D01*
X129640790Y-120000001D01*
X130359210Y-120000001D01*
X133576198Y-123216989D01*
X133576198Y-123216988D01*
X133624413Y-123166561D01*
X133893677Y-122828915D01*
X134131582Y-122468504D01*
X134336221Y-122088222D01*
X134505955Y-121691107D01*
X134639404Y-121280397D01*
X134735501Y-120859368D01*
X134793471Y-120431415D01*
X134812846Y-119999999D01*
X134793471Y-119568584D01*
X134735501Y-119140631D01*
X134639404Y-118719602D01*
X134505955Y-118308892D01*
X134336221Y-117911777D01*
X134131582Y-117531495D01*
X133893677Y-117171084D01*
X133624414Y-116833438D01*
X133576198Y-116783010D01*
X133576198Y-116783009D01*
X130359210Y-119999999D01*
X130359210Y-120000001D01*
X129640790Y-120000001D01*
X129640790Y-119999999D01*
X126423800Y-116783009D01*
X126375585Y-116833439D01*
X126106322Y-117171084D01*
X125868417Y-117531495D01*
X125663778Y-117911777D01*
X125494044Y-118308892D01*
X125360595Y-118719602D01*
X125264498Y-119140631D01*
X125206528Y-119568584D01*
X125187153Y-120000000D01*
X124009632Y-120000000D01*
X124020156Y-119873000D01*
X124001564Y-119648632D01*
X123946296Y-119430384D01*
X123855860Y-119224209D01*
X123732722Y-119035732D01*
X123580240Y-118870094D01*
X123580239Y-118870093D01*
X123580237Y-118870091D01*
X123438790Y-118759998D01*
X123402576Y-118731811D01*
X123368792Y-118713528D01*
X123320521Y-118667212D01*
X123302762Y-118602715D01*
X123320521Y-118538217D01*
X123368793Y-118491901D01*
X123402300Y-118473768D01*
X123579903Y-118335533D01*
X123732321Y-118169962D01*
X123855419Y-117981548D01*
X123945822Y-117775451D01*
X123993544Y-117587000D01*
X121320455Y-117587000D01*
X121368177Y-117775451D01*
X121458580Y-117981548D01*
X121581678Y-118169962D01*
X121734096Y-118335533D01*
X121911702Y-118473769D01*
X121945207Y-118491902D01*
X121993478Y-118538218D01*
X122011237Y-118602715D01*
X121993478Y-118667212D01*
X121945207Y-118713528D01*
X121911423Y-118731811D01*
X121733762Y-118870091D01*
X121581278Y-119035731D01*
X121458139Y-119224209D01*
X121367702Y-119430388D01*
X121312437Y-119648627D01*
X121312436Y-119648632D01*
X121293844Y-119873000D01*
X113281196Y-119873000D01*
X113303296Y-119822616D01*
X113358564Y-119604368D01*
X113377156Y-119380000D01*
X113358564Y-119155632D01*
X113303296Y-118937384D01*
X113212860Y-118731209D01*
X113089722Y-118542732D01*
X112946157Y-118386780D01*
X112916921Y-118333178D01*
X112916318Y-118272122D01*
X112944493Y-118217951D01*
X112994827Y-118183388D01*
X113109963Y-118140445D01*
X113226904Y-118052904D01*
X113314445Y-117935962D01*
X113365494Y-117799093D01*
X113372000Y-117738589D01*
X113372000Y-117094000D01*
X110656000Y-117094000D01*
X110656000Y-117738589D01*
X110662505Y-117799093D01*
X110713554Y-117935962D01*
X110801095Y-118052904D01*
X110918037Y-118140445D01*
X111033172Y-118183388D01*
X111083506Y-118217952D01*
X111111681Y-118272122D01*
X111111078Y-118333178D01*
X111081841Y-118386782D01*
X110938278Y-118542731D01*
X110815139Y-118731209D01*
X110724702Y-118937388D01*
X110669437Y-119155627D01*
X110669436Y-119155632D01*
X110650844Y-119380000D01*
X110669436Y-119604368D01*
X110669436Y-119604371D01*
X110669437Y-119604372D01*
X110724702Y-119822611D01*
X110724703Y-119822614D01*
X110724704Y-119822616D01*
X110746804Y-119872999D01*
X110815139Y-120028790D01*
X110938278Y-120217268D01*
X111090762Y-120382908D01*
X111268418Y-120521185D01*
X111268420Y-120521186D01*
X111268424Y-120521189D01*
X111301682Y-120539187D01*
X111349952Y-120585503D01*
X111367711Y-120650000D01*
X111349952Y-120714497D01*
X111301682Y-120760812D01*
X111285724Y-120769449D01*
X111268418Y-120778814D01*
X111090762Y-120917091D01*
X110938278Y-121082731D01*
X110815139Y-121271209D01*
X110724702Y-121477388D01*
X110670582Y-121691107D01*
X110669436Y-121695632D01*
X110650844Y-121920000D01*
X107252353Y-121920000D01*
X107261318Y-121849995D01*
X107260310Y-121826270D01*
X107260627Y-121810518D01*
X107262327Y-121790001D01*
X107262327Y-121789997D01*
X107255233Y-121704395D01*
X107254922Y-121699434D01*
X107251143Y-121610449D01*
X107246860Y-121590581D01*
X107244465Y-121574447D01*
X107243051Y-121557373D01*
X107232159Y-121514362D01*
X107221126Y-121470796D01*
X107220109Y-121466453D01*
X107212078Y-121429190D01*
X107200630Y-121376068D01*
X107194338Y-121360411D01*
X107189112Y-121344377D01*
X107185749Y-121331093D01*
X107148509Y-121246195D01*
X107146982Y-121242561D01*
X107111232Y-121153594D01*
X107104199Y-121142172D01*
X107096101Y-121126717D01*
X107091985Y-121117332D01*
X107055188Y-121061011D01*
X107039394Y-121036836D01*
X107037603Y-121034011D01*
X106985526Y-120949434D01*
X106985525Y-120949433D01*
X106985524Y-120949431D01*
X106978931Y-120941940D01*
X106968041Y-120927621D01*
X106966103Y-120924655D01*
X106964314Y-120921917D01*
X106959871Y-120917091D01*
X106896874Y-120848657D01*
X106894991Y-120846565D01*
X106827122Y-120769452D01*
X106827120Y-120769450D01*
X106827119Y-120769449D01*
X106822040Y-120765348D01*
X106808492Y-120752650D01*
X106806222Y-120750184D01*
X106806221Y-120750183D01*
X106806220Y-120750182D01*
X106771292Y-120722996D01*
X106724914Y-120686898D01*
X106723150Y-120685499D01*
X106640578Y-120618826D01*
X106637887Y-120617323D01*
X106622081Y-120606844D01*
X106528383Y-120556137D01*
X106526904Y-120555324D01*
X106430988Y-120501743D01*
X106419712Y-120496737D01*
X106312780Y-120460026D01*
X106311719Y-120459657D01*
X106278630Y-120447966D01*
X106205194Y-120422020D01*
X106205191Y-120422019D01*
X106202201Y-120420963D01*
X106195945Y-120419919D01*
X106083972Y-120401233D01*
X106083796Y-120401203D01*
X105968881Y-120381500D01*
X105965712Y-120381500D01*
X105732288Y-120381500D01*
X105678067Y-120390547D01*
X105668018Y-120391811D01*
X105610101Y-120396741D01*
X105560496Y-120409657D01*
X105549489Y-120412003D01*
X105502052Y-120419919D01*
X105446815Y-120438881D01*
X105437657Y-120441641D01*
X105378071Y-120457157D01*
X105334492Y-120476855D01*
X105323513Y-120481210D01*
X105281273Y-120495712D01*
X105226884Y-120525144D01*
X105218822Y-120529141D01*
X105159597Y-120555914D01*
X105122816Y-120580773D01*
X105112231Y-120587193D01*
X105075986Y-120606807D01*
X105024479Y-120646897D01*
X105017647Y-120651855D01*
X104960954Y-120690173D01*
X104931382Y-120718515D01*
X104921593Y-120726976D01*
X104891780Y-120750181D01*
X104845254Y-120800720D01*
X104839741Y-120806345D01*
X104787856Y-120856073D01*
X104765545Y-120886239D01*
X104756949Y-120896645D01*
X104733684Y-120921918D01*
X104694231Y-120982305D01*
X104690054Y-120988311D01*
X104645281Y-121048849D01*
X104629940Y-121079274D01*
X104622919Y-121091456D01*
X104606018Y-121117326D01*
X104575664Y-121186524D01*
X104572787Y-121192632D01*
X104537342Y-121262933D01*
X104528372Y-121292223D01*
X104523286Y-121305931D01*
X104512249Y-121331094D01*
X104492859Y-121407667D01*
X104491192Y-121413631D01*
X104467135Y-121492184D01*
X104463681Y-121519158D01*
X104460848Y-121534075D01*
X104454948Y-121557375D01*
X104448140Y-121639524D01*
X104447551Y-121645118D01*
X104436682Y-121730006D01*
X104437689Y-121753740D01*
X104437372Y-121769480D01*
X104435672Y-121789997D01*
X101812327Y-121789997D01*
X101805233Y-121704395D01*
X101804922Y-121699434D01*
X101801143Y-121610449D01*
X101796860Y-121590581D01*
X101794465Y-121574447D01*
X101793051Y-121557373D01*
X101782159Y-121514362D01*
X101771126Y-121470796D01*
X101770109Y-121466453D01*
X101762078Y-121429190D01*
X101750630Y-121376068D01*
X101744338Y-121360411D01*
X101739112Y-121344377D01*
X101735749Y-121331093D01*
X101698509Y-121246195D01*
X101696982Y-121242561D01*
X101661232Y-121153594D01*
X101654199Y-121142172D01*
X101646101Y-121126717D01*
X101641985Y-121117332D01*
X101605188Y-121061011D01*
X101589394Y-121036836D01*
X101587603Y-121034011D01*
X101535526Y-120949434D01*
X101535525Y-120949433D01*
X101535524Y-120949431D01*
X101528931Y-120941940D01*
X101518041Y-120927621D01*
X101516103Y-120924655D01*
X101514314Y-120921917D01*
X101509871Y-120917091D01*
X101446874Y-120848657D01*
X101444991Y-120846565D01*
X101377122Y-120769452D01*
X101377120Y-120769450D01*
X101377119Y-120769449D01*
X101372040Y-120765348D01*
X101358492Y-120752650D01*
X101356222Y-120750184D01*
X101356221Y-120750183D01*
X101356220Y-120750182D01*
X101321292Y-120722996D01*
X101274914Y-120686898D01*
X101273150Y-120685499D01*
X101190578Y-120618826D01*
X101187887Y-120617323D01*
X101172081Y-120606844D01*
X101078383Y-120556137D01*
X101076904Y-120555324D01*
X100980988Y-120501743D01*
X100969712Y-120496737D01*
X100862780Y-120460026D01*
X100861719Y-120459657D01*
X100828630Y-120447966D01*
X100755194Y-120422020D01*
X100755191Y-120422019D01*
X100752201Y-120420963D01*
X100745945Y-120419919D01*
X100633972Y-120401233D01*
X100633796Y-120401203D01*
X100518881Y-120381500D01*
X100515712Y-120381500D01*
X100282288Y-120381500D01*
X100228067Y-120390547D01*
X100218018Y-120391811D01*
X100160101Y-120396741D01*
X100110496Y-120409657D01*
X100099489Y-120412003D01*
X100052052Y-120419919D01*
X99996815Y-120438881D01*
X99987657Y-120441641D01*
X99928071Y-120457157D01*
X99884492Y-120476855D01*
X99873513Y-120481210D01*
X99831273Y-120495712D01*
X99776884Y-120525144D01*
X99768822Y-120529141D01*
X99709597Y-120555914D01*
X99672816Y-120580773D01*
X99662231Y-120587193D01*
X99625986Y-120606807D01*
X99574479Y-120646897D01*
X99567647Y-120651855D01*
X99510954Y-120690173D01*
X99481382Y-120718515D01*
X99471593Y-120726976D01*
X99441780Y-120750181D01*
X99395254Y-120800720D01*
X99389741Y-120806345D01*
X99337856Y-120856073D01*
X99315545Y-120886239D01*
X99306949Y-120896645D01*
X99283684Y-120921918D01*
X99244231Y-120982305D01*
X99240054Y-120988311D01*
X99195281Y-121048849D01*
X99179940Y-121079274D01*
X99172919Y-121091456D01*
X99156018Y-121117326D01*
X99125664Y-121186524D01*
X99122787Y-121192632D01*
X99087342Y-121262933D01*
X99078372Y-121292223D01*
X99073286Y-121305931D01*
X99062249Y-121331094D01*
X99042859Y-121407667D01*
X99041192Y-121413631D01*
X99017135Y-121492184D01*
X99013681Y-121519158D01*
X99010848Y-121534075D01*
X99004948Y-121557375D01*
X98998140Y-121639524D01*
X98997551Y-121645118D01*
X98986682Y-121730006D01*
X98987689Y-121753740D01*
X98987372Y-121769480D01*
X98985672Y-121789997D01*
X95586383Y-121789997D01*
X95578564Y-121695632D01*
X95523296Y-121477384D01*
X95432860Y-121271209D01*
X95309722Y-121082732D01*
X95157240Y-120917094D01*
X95157239Y-120917093D01*
X95157237Y-120917091D01*
X94979579Y-120778813D01*
X94979577Y-120778812D01*
X94979576Y-120778811D01*
X94946317Y-120760812D01*
X94898047Y-120714498D01*
X94880288Y-120650000D01*
X94898047Y-120585502D01*
X94946317Y-120539187D01*
X94979576Y-120521189D01*
X95157240Y-120382906D01*
X95309722Y-120217268D01*
X95432860Y-120028791D01*
X95523296Y-119822616D01*
X95578564Y-119604368D01*
X95597156Y-119380000D01*
X95578564Y-119155632D01*
X95523296Y-118937384D01*
X95445488Y-118759998D01*
X99435693Y-118759998D01*
X99437304Y-118778424D01*
X99437656Y-118795051D01*
X99436684Y-118816689D01*
X99447487Y-118896435D01*
X99448147Y-118902366D01*
X99454884Y-118979369D01*
X99460568Y-119000583D01*
X99463720Y-119016275D01*
X99467093Y-119041174D01*
X99490895Y-119114428D01*
X99492768Y-119120752D01*
X99511880Y-119192077D01*
X99522622Y-119215115D01*
X99528257Y-119229419D01*
X99537096Y-119256619D01*
X99571957Y-119321402D01*
X99575197Y-119327860D01*
X99604943Y-119391653D01*
X99621512Y-119415317D01*
X99629250Y-119427873D01*
X99644445Y-119456108D01*
X99688159Y-119510924D01*
X99692861Y-119517212D01*
X99728612Y-119568269D01*
X99731251Y-119572038D01*
X99754124Y-119594911D01*
X99763532Y-119605438D01*
X99785687Y-119633219D01*
X99835887Y-119677077D01*
X99842067Y-119682854D01*
X99870779Y-119711566D01*
X99886963Y-119727750D01*
X99916294Y-119748287D01*
X99926927Y-119756616D01*
X99956283Y-119782264D01*
X100010532Y-119814677D01*
X100018178Y-119819628D01*
X100037288Y-119833009D01*
X100067346Y-119854056D01*
X100102941Y-119870654D01*
X100114313Y-119876682D01*
X100150750Y-119898453D01*
X100206691Y-119919447D01*
X100215662Y-119923216D01*
X100266919Y-119947118D01*
X100266920Y-119947118D01*
X100266924Y-119947120D01*
X100308214Y-119958183D01*
X100319839Y-119961912D01*
X100362839Y-119978051D01*
X100418207Y-119988098D01*
X100428317Y-119990365D01*
X100479629Y-120004115D01*
X100525663Y-120008142D01*
X100537159Y-120009685D01*
X100585733Y-120018500D01*
X100638549Y-120018500D01*
X100649529Y-120018979D01*
X100699000Y-120023307D01*
X100748470Y-120018979D01*
X100751817Y-120018832D01*
X100755506Y-120018500D01*
X100755522Y-120018500D01*
X100810390Y-120013561D01*
X100918371Y-120004115D01*
X100918375Y-120004113D01*
X100923095Y-120003701D01*
X100924614Y-120003281D01*
X100924622Y-120003281D01*
X101029060Y-119974456D01*
X101029614Y-119974306D01*
X101131076Y-119947120D01*
X101131081Y-119947117D01*
X101136241Y-119945735D01*
X101140921Y-119944012D01*
X101184103Y-119923216D01*
X101237435Y-119897531D01*
X101238590Y-119896984D01*
X101330654Y-119854056D01*
X101330661Y-119854050D01*
X101332499Y-119853194D01*
X101346338Y-119845088D01*
X101347093Y-119844725D01*
X101429002Y-119785213D01*
X101430762Y-119783959D01*
X101511030Y-119727755D01*
X101511031Y-119727753D01*
X101511038Y-119727749D01*
X101511842Y-119726944D01*
X101526877Y-119714103D01*
X101530363Y-119711571D01*
X101597966Y-119640862D01*
X101599855Y-119638930D01*
X101666749Y-119572038D01*
X101669393Y-119568261D01*
X101681524Y-119553468D01*
X101686912Y-119547834D01*
X101738897Y-119469077D01*
X101740778Y-119466312D01*
X101793056Y-119391654D01*
X101796477Y-119384315D01*
X101805513Y-119368159D01*
X101811709Y-119358774D01*
X101847435Y-119275186D01*
X101849051Y-119271568D01*
X101886120Y-119192076D01*
X101889109Y-119180919D01*
X101894956Y-119164009D01*
X101900742Y-119150472D01*
X101900741Y-119150472D01*
X101900743Y-119150470D01*
X101920201Y-119065210D01*
X101921305Y-119060759D01*
X101943115Y-118979371D01*
X101944424Y-118964395D01*
X101947102Y-118947349D01*
X101951151Y-118929615D01*
X101954917Y-118845739D01*
X101955266Y-118840466D01*
X101962307Y-118760000D01*
X101962307Y-118759998D01*
X104285693Y-118759998D01*
X104287304Y-118778424D01*
X104287656Y-118795051D01*
X104286684Y-118816689D01*
X104297487Y-118896435D01*
X104298147Y-118902366D01*
X104304884Y-118979369D01*
X104310568Y-119000583D01*
X104313720Y-119016275D01*
X104317093Y-119041174D01*
X104340895Y-119114428D01*
X104342768Y-119120752D01*
X104361880Y-119192077D01*
X104372622Y-119215115D01*
X104378257Y-119229419D01*
X104387096Y-119256619D01*
X104421957Y-119321402D01*
X104425197Y-119327860D01*
X104454943Y-119391653D01*
X104471512Y-119415317D01*
X104479250Y-119427873D01*
X104494445Y-119456108D01*
X104538159Y-119510924D01*
X104542861Y-119517212D01*
X104578612Y-119568269D01*
X104581251Y-119572038D01*
X104604124Y-119594911D01*
X104613532Y-119605438D01*
X104635687Y-119633219D01*
X104685887Y-119677077D01*
X104692067Y-119682854D01*
X104720779Y-119711566D01*
X104736963Y-119727750D01*
X104766294Y-119748287D01*
X104776927Y-119756616D01*
X104806283Y-119782264D01*
X104860532Y-119814677D01*
X104868178Y-119819628D01*
X104887288Y-119833009D01*
X104917346Y-119854056D01*
X104952941Y-119870654D01*
X104964313Y-119876682D01*
X105000750Y-119898453D01*
X105056691Y-119919447D01*
X105065662Y-119923216D01*
X105116919Y-119947118D01*
X105116920Y-119947118D01*
X105116924Y-119947120D01*
X105158214Y-119958183D01*
X105169839Y-119961912D01*
X105212839Y-119978051D01*
X105268207Y-119988098D01*
X105278317Y-119990365D01*
X105329629Y-120004115D01*
X105375663Y-120008142D01*
X105387159Y-120009685D01*
X105435733Y-120018500D01*
X105488549Y-120018500D01*
X105499529Y-120018979D01*
X105549000Y-120023307D01*
X105598470Y-120018979D01*
X105601817Y-120018832D01*
X105605506Y-120018500D01*
X105605522Y-120018500D01*
X105660390Y-120013561D01*
X105768371Y-120004115D01*
X105768375Y-120004113D01*
X105773095Y-120003701D01*
X105774614Y-120003281D01*
X105774622Y-120003281D01*
X105879060Y-119974456D01*
X105879614Y-119974306D01*
X105981076Y-119947120D01*
X105981081Y-119947117D01*
X105986241Y-119945735D01*
X105990921Y-119944012D01*
X106034103Y-119923216D01*
X106087435Y-119897531D01*
X106088590Y-119896984D01*
X106180654Y-119854056D01*
X106180661Y-119854050D01*
X106182499Y-119853194D01*
X106196338Y-119845088D01*
X106197093Y-119844725D01*
X106279002Y-119785213D01*
X106280762Y-119783959D01*
X106361030Y-119727755D01*
X106361031Y-119727753D01*
X106361038Y-119727749D01*
X106361842Y-119726944D01*
X106376877Y-119714103D01*
X106380363Y-119711571D01*
X106447966Y-119640862D01*
X106449855Y-119638930D01*
X106516749Y-119572038D01*
X106519393Y-119568261D01*
X106531524Y-119553468D01*
X106536912Y-119547834D01*
X106588897Y-119469077D01*
X106590778Y-119466312D01*
X106643056Y-119391654D01*
X106646477Y-119384315D01*
X106655513Y-119368159D01*
X106661709Y-119358774D01*
X106697435Y-119275186D01*
X106699051Y-119271568D01*
X106736120Y-119192076D01*
X106739109Y-119180919D01*
X106744956Y-119164009D01*
X106750742Y-119150472D01*
X106750741Y-119150472D01*
X106750743Y-119150470D01*
X106770201Y-119065210D01*
X106771305Y-119060759D01*
X106793115Y-118979371D01*
X106794424Y-118964395D01*
X106797102Y-118947349D01*
X106801151Y-118929615D01*
X106804917Y-118845739D01*
X106805266Y-118840466D01*
X106812307Y-118760000D01*
X106810694Y-118741573D01*
X106810343Y-118724943D01*
X106811315Y-118703307D01*
X106800514Y-118623582D01*
X106799852Y-118617646D01*
X106797467Y-118590382D01*
X106793115Y-118540629D01*
X106787429Y-118519409D01*
X106784279Y-118503732D01*
X106780906Y-118478825D01*
X106757106Y-118405577D01*
X106755233Y-118399253D01*
X106736120Y-118327925D01*
X106736117Y-118327919D01*
X106727245Y-118308892D01*
X106725374Y-118304879D01*
X106719739Y-118290575D01*
X106710903Y-118263379D01*
X106676030Y-118198574D01*
X106672820Y-118192178D01*
X106643056Y-118128347D01*
X106626484Y-118104681D01*
X106618746Y-118092122D01*
X106603558Y-118063896D01*
X106559832Y-118009066D01*
X106555145Y-118002797D01*
X106516749Y-117947962D01*
X106493873Y-117925086D01*
X106484465Y-117914559D01*
X106462314Y-117886782D01*
X106412111Y-117842921D01*
X106405930Y-117837143D01*
X106361038Y-117792251D01*
X106361037Y-117792250D01*
X106361036Y-117792249D01*
X106331699Y-117771707D01*
X106321069Y-117763380D01*
X106291720Y-117737738D01*
X106276020Y-117728357D01*
X106237459Y-117705318D01*
X106229823Y-117700373D01*
X106187120Y-117670472D01*
X106180654Y-117665944D01*
X106180653Y-117665943D01*
X106180651Y-117665942D01*
X106145053Y-117649342D01*
X106133678Y-117643312D01*
X106097249Y-117621546D01*
X106041309Y-117600551D01*
X106032335Y-117596781D01*
X105981075Y-117572878D01*
X105939800Y-117561819D01*
X105928139Y-117558079D01*
X105885161Y-117541949D01*
X105829781Y-117531898D01*
X105819672Y-117529630D01*
X105768369Y-117515884D01*
X105722345Y-117511857D01*
X105710832Y-117510312D01*
X105662270Y-117501500D01*
X105662267Y-117501500D01*
X105609451Y-117501500D01*
X105598471Y-117501021D01*
X105549000Y-117496693D01*
X105499529Y-117501021D01*
X105496174Y-117501167D01*
X105437887Y-117506412D01*
X105437578Y-117506439D01*
X105324899Y-117516298D01*
X105219124Y-117545490D01*
X105218216Y-117545737D01*
X105111813Y-117574248D01*
X105107050Y-117576001D01*
X105010634Y-117622432D01*
X105009217Y-117623103D01*
X104915517Y-117666797D01*
X104901679Y-117674902D01*
X104900908Y-117675273D01*
X104818992Y-117734787D01*
X104817205Y-117736062D01*
X104736960Y-117792251D01*
X104736145Y-117793067D01*
X104721131Y-117805890D01*
X104717637Y-117808429D01*
X104684659Y-117842921D01*
X104650077Y-117879090D01*
X104648103Y-117881108D01*
X104581249Y-117947963D01*
X104578598Y-117951749D01*
X104566476Y-117966529D01*
X104561090Y-117972163D01*
X104509145Y-118050856D01*
X104507203Y-118053711D01*
X104454942Y-118128348D01*
X104451520Y-118135686D01*
X104442494Y-118151825D01*
X104436294Y-118161219D01*
X104400582Y-118244769D01*
X104398917Y-118248494D01*
X104361881Y-118327919D01*
X104358888Y-118339087D01*
X104353049Y-118355975D01*
X104347257Y-118369527D01*
X104327816Y-118454708D01*
X104326682Y-118459281D01*
X104304883Y-118540632D01*
X104303574Y-118555601D01*
X104300896Y-118572649D01*
X104296849Y-118590382D01*
X104293083Y-118674218D01*
X104292731Y-118679543D01*
X104285693Y-118759998D01*
X101962307Y-118759998D01*
X101960694Y-118741573D01*
X101960343Y-118724943D01*
X101961315Y-118703307D01*
X101950514Y-118623582D01*
X101949852Y-118617646D01*
X101947467Y-118590382D01*
X101943115Y-118540629D01*
X101937429Y-118519409D01*
X101934279Y-118503732D01*
X101930906Y-118478825D01*
X101907106Y-118405577D01*
X101905233Y-118399253D01*
X101886120Y-118327925D01*
X101886117Y-118327919D01*
X101877245Y-118308892D01*
X101875374Y-118304879D01*
X101869739Y-118290575D01*
X101860903Y-118263379D01*
X101826030Y-118198574D01*
X101822820Y-118192178D01*
X101793056Y-118128347D01*
X101776484Y-118104681D01*
X101768746Y-118092122D01*
X101753558Y-118063896D01*
X101709832Y-118009066D01*
X101705145Y-118002797D01*
X101666749Y-117947962D01*
X101643873Y-117925086D01*
X101634465Y-117914559D01*
X101612314Y-117886782D01*
X101562111Y-117842921D01*
X101555930Y-117837143D01*
X101511038Y-117792251D01*
X101511037Y-117792250D01*
X101511036Y-117792249D01*
X101481699Y-117771707D01*
X101471069Y-117763380D01*
X101441720Y-117737738D01*
X101426020Y-117728357D01*
X101387459Y-117705318D01*
X101379823Y-117700373D01*
X101337120Y-117670472D01*
X101330654Y-117665944D01*
X101330653Y-117665943D01*
X101330651Y-117665942D01*
X101295053Y-117649342D01*
X101283678Y-117643312D01*
X101247249Y-117621546D01*
X101191309Y-117600551D01*
X101182335Y-117596781D01*
X101131075Y-117572878D01*
X101089800Y-117561819D01*
X101078139Y-117558079D01*
X101035161Y-117541949D01*
X100979781Y-117531898D01*
X100969672Y-117529630D01*
X100918369Y-117515884D01*
X100872345Y-117511857D01*
X100860832Y-117510312D01*
X100812270Y-117501500D01*
X100812267Y-117501500D01*
X100759451Y-117501500D01*
X100748471Y-117501021D01*
X100699000Y-117496693D01*
X100649529Y-117501021D01*
X100646174Y-117501167D01*
X100587887Y-117506412D01*
X100587578Y-117506439D01*
X100474899Y-117516298D01*
X100369124Y-117545490D01*
X100368216Y-117545737D01*
X100261813Y-117574248D01*
X100257050Y-117576001D01*
X100160634Y-117622432D01*
X100159217Y-117623103D01*
X100065517Y-117666797D01*
X100051679Y-117674902D01*
X100050908Y-117675273D01*
X99968992Y-117734787D01*
X99967205Y-117736062D01*
X99886960Y-117792251D01*
X99886145Y-117793067D01*
X99871131Y-117805890D01*
X99867637Y-117808429D01*
X99834659Y-117842921D01*
X99800077Y-117879090D01*
X99798103Y-117881108D01*
X99731249Y-117947963D01*
X99728598Y-117951749D01*
X99716476Y-117966529D01*
X99711090Y-117972163D01*
X99659145Y-118050856D01*
X99657203Y-118053711D01*
X99604942Y-118128348D01*
X99601520Y-118135686D01*
X99592494Y-118151825D01*
X99586294Y-118161219D01*
X99550582Y-118244769D01*
X99548917Y-118248494D01*
X99511881Y-118327919D01*
X99508888Y-118339087D01*
X99503049Y-118355975D01*
X99497257Y-118369527D01*
X99477816Y-118454708D01*
X99476682Y-118459281D01*
X99454883Y-118540632D01*
X99453574Y-118555601D01*
X99450896Y-118572649D01*
X99446849Y-118590382D01*
X99443083Y-118674218D01*
X99442731Y-118679543D01*
X99435693Y-118759998D01*
X95445488Y-118759998D01*
X95432860Y-118731209D01*
X95309722Y-118542732D01*
X95166157Y-118386780D01*
X95136921Y-118333178D01*
X95136318Y-118272122D01*
X95164493Y-118217951D01*
X95214827Y-118183388D01*
X95329963Y-118140445D01*
X95446904Y-118052904D01*
X95534445Y-117935962D01*
X95585494Y-117799093D01*
X95592000Y-117738589D01*
X95592000Y-117094000D01*
X92876000Y-117094000D01*
X92876000Y-117738589D01*
X92882505Y-117799093D01*
X92933554Y-117935962D01*
X93021095Y-118052904D01*
X93138037Y-118140445D01*
X93253172Y-118183388D01*
X93303506Y-118217952D01*
X93331681Y-118272122D01*
X93331078Y-118333178D01*
X93301841Y-118386782D01*
X93158278Y-118542731D01*
X93035139Y-118731209D01*
X92944702Y-118937388D01*
X92889437Y-119155627D01*
X92889436Y-119155632D01*
X92870844Y-119380000D01*
X92889436Y-119604368D01*
X92889436Y-119604371D01*
X92889437Y-119604372D01*
X92944702Y-119822611D01*
X92944703Y-119822614D01*
X92944704Y-119822616D01*
X92966804Y-119872999D01*
X93035139Y-120028790D01*
X93158278Y-120217268D01*
X93310762Y-120382908D01*
X93488418Y-120521185D01*
X93488420Y-120521186D01*
X93488424Y-120521189D01*
X93521682Y-120539187D01*
X93569952Y-120585503D01*
X93587711Y-120650000D01*
X93569952Y-120714497D01*
X93521682Y-120760812D01*
X93505724Y-120769449D01*
X93488418Y-120778814D01*
X93310762Y-120917091D01*
X93158278Y-121082731D01*
X93035139Y-121271209D01*
X92944702Y-121477388D01*
X92890582Y-121691107D01*
X92889436Y-121695632D01*
X92870844Y-121920000D01*
X57446251Y-121920000D01*
X57591955Y-121579107D01*
X57725404Y-121168397D01*
X57821501Y-120747368D01*
X57879471Y-120319415D01*
X57898846Y-119887999D01*
X57879471Y-119456584D01*
X57821501Y-119028631D01*
X57725404Y-118607602D01*
X57591955Y-118196892D01*
X57422221Y-117799777D01*
X57217582Y-117419495D01*
X56992823Y-117078999D01*
X121320455Y-117078999D01*
X121320456Y-117079000D01*
X122403000Y-117079000D01*
X122403000Y-115998609D01*
X122911000Y-115998609D01*
X122911000Y-117079000D01*
X123993544Y-117079000D01*
X123993544Y-117078999D01*
X123945822Y-116890548D01*
X123855419Y-116684451D01*
X123732321Y-116496037D01*
X123666943Y-116425017D01*
X126784226Y-116425017D01*
X129999999Y-119640790D01*
X130000001Y-119640790D01*
X133215772Y-116425017D01*
X133215772Y-116425015D01*
X133000761Y-116237165D01*
X132651377Y-115983323D01*
X132280661Y-115761830D01*
X131891574Y-115574456D01*
X131487245Y-115422709D01*
X131070959Y-115307821D01*
X130646047Y-115230711D01*
X130215926Y-115192000D01*
X129784074Y-115192000D01*
X129353952Y-115230711D01*
X128929040Y-115307821D01*
X128512754Y-115422709D01*
X128108425Y-115574456D01*
X127719338Y-115761830D01*
X127348622Y-115983323D01*
X126999238Y-116237165D01*
X126784226Y-116425014D01*
X126784226Y-116425017D01*
X123666943Y-116425017D01*
X123579903Y-116330466D01*
X123402302Y-116192233D01*
X123204368Y-116085116D01*
X122991514Y-116012044D01*
X122911000Y-115998609D01*
X122403000Y-115998609D01*
X122322485Y-116012044D01*
X122109631Y-116085116D01*
X121911697Y-116192233D01*
X121734096Y-116330466D01*
X121581678Y-116496037D01*
X121458580Y-116684451D01*
X121368177Y-116890548D01*
X121320455Y-117078999D01*
X56992823Y-117078999D01*
X56979677Y-117059084D01*
X56710414Y-116721438D01*
X56662198Y-116671010D01*
X56662198Y-116671009D01*
X53445210Y-119887999D01*
X53445210Y-119888001D01*
X52726790Y-119888001D01*
X52726790Y-119887999D01*
X49509800Y-116671009D01*
X49461585Y-116721439D01*
X49192322Y-117059084D01*
X48954417Y-117419495D01*
X48749778Y-117799777D01*
X48580044Y-118196892D01*
X48531333Y-118346810D01*
X48491815Y-118404959D01*
X48427292Y-118432880D01*
X48357852Y-118421882D01*
X48305115Y-118375388D01*
X48285500Y-118307874D01*
X48285500Y-116313017D01*
X49870226Y-116313017D01*
X53085999Y-119528790D01*
X53086001Y-119528790D01*
X56301772Y-116313017D01*
X56301772Y-116313015D01*
X56086761Y-116125165D01*
X55737377Y-115871323D01*
X55366661Y-115649830D01*
X54977574Y-115462456D01*
X54573245Y-115310709D01*
X54156959Y-115195821D01*
X53732047Y-115118711D01*
X53301926Y-115080000D01*
X52870074Y-115080000D01*
X52439952Y-115118711D01*
X52015040Y-115195821D01*
X51598754Y-115310709D01*
X51194425Y-115462456D01*
X50805338Y-115649830D01*
X50434622Y-115871323D01*
X50085238Y-116125165D01*
X49870226Y-116313014D01*
X49870226Y-116313017D01*
X48285500Y-116313017D01*
X48285500Y-114300000D01*
X92870844Y-114300000D01*
X92889436Y-114524368D01*
X92889436Y-114524371D01*
X92889437Y-114524372D01*
X92944702Y-114742611D01*
X93035139Y-114948790D01*
X93035140Y-114948791D01*
X93158278Y-115137268D01*
X93212180Y-115195821D01*
X93301841Y-115293217D01*
X93331078Y-115346821D01*
X93331681Y-115407877D01*
X93303507Y-115462047D01*
X93253173Y-115496611D01*
X93138036Y-115539554D01*
X93021095Y-115627095D01*
X92933554Y-115744037D01*
X92882505Y-115880906D01*
X92876000Y-115941411D01*
X92876000Y-116586000D01*
X95592000Y-116586000D01*
X95592000Y-115941411D01*
X95585494Y-115880906D01*
X95534445Y-115744037D01*
X95446904Y-115627095D01*
X95329962Y-115539554D01*
X95214827Y-115496611D01*
X95164492Y-115462047D01*
X95136318Y-115407877D01*
X95136921Y-115346821D01*
X95166155Y-115293220D01*
X95309722Y-115137268D01*
X95432860Y-114948791D01*
X95523296Y-114742616D01*
X95578564Y-114524368D01*
X95597156Y-114300000D01*
X110650844Y-114300000D01*
X110669436Y-114524368D01*
X110669436Y-114524371D01*
X110669437Y-114524372D01*
X110724702Y-114742611D01*
X110815139Y-114948790D01*
X110815140Y-114948791D01*
X110938278Y-115137268D01*
X110992180Y-115195821D01*
X111081841Y-115293217D01*
X111111078Y-115346821D01*
X111111681Y-115407877D01*
X111083507Y-115462047D01*
X111033173Y-115496611D01*
X110918036Y-115539554D01*
X110801095Y-115627095D01*
X110713554Y-115744037D01*
X110662505Y-115880906D01*
X110656000Y-115941411D01*
X110656000Y-116586000D01*
X113372000Y-116586000D01*
X113372000Y-115941411D01*
X113365494Y-115880906D01*
X113314445Y-115744037D01*
X113226904Y-115627095D01*
X113109962Y-115539554D01*
X112994827Y-115496611D01*
X112944492Y-115462047D01*
X112916318Y-115407877D01*
X112916921Y-115346821D01*
X112946155Y-115293220D01*
X113089722Y-115137268D01*
X113212860Y-114948791D01*
X113303296Y-114742616D01*
X113358564Y-114524368D01*
X113377156Y-114300000D01*
X113358564Y-114075632D01*
X113303296Y-113857384D01*
X113212860Y-113651209D01*
X113089722Y-113462732D01*
X112937240Y-113297094D01*
X112937239Y-113297093D01*
X112937237Y-113297091D01*
X112759579Y-113158813D01*
X112759577Y-113158812D01*
X112759576Y-113158811D01*
X112726317Y-113140812D01*
X112678047Y-113094498D01*
X112660288Y-113030000D01*
X112678047Y-112965502D01*
X112726317Y-112919187D01*
X112759576Y-112901189D01*
X112937240Y-112762906D01*
X113089722Y-112597268D01*
X113212860Y-112408791D01*
X113303296Y-112202616D01*
X113358564Y-111984368D01*
X113377156Y-111760000D01*
X113358564Y-111535632D01*
X113303296Y-111317384D01*
X113212860Y-111111209D01*
X113089722Y-110922732D01*
X112937240Y-110757094D01*
X112937239Y-110757093D01*
X112937237Y-110757091D01*
X112759578Y-110618812D01*
X112726317Y-110600812D01*
X112678046Y-110554495D01*
X112660288Y-110489997D01*
X112678049Y-110425499D01*
X112726317Y-110379187D01*
X112759576Y-110361189D01*
X112920417Y-110236000D01*
X130462844Y-110236000D01*
X130481436Y-110460368D01*
X130481436Y-110460371D01*
X130481437Y-110460372D01*
X130536702Y-110678611D01*
X130627139Y-110884790D01*
X130750278Y-111073268D01*
X130893475Y-111228820D01*
X130922712Y-111282424D01*
X130923315Y-111343480D01*
X130895141Y-111397650D01*
X130844808Y-111432213D01*
X130818972Y-111441849D01*
X130729793Y-111475111D01*
X130612738Y-111562738D01*
X130525111Y-111679794D01*
X130474011Y-111816799D01*
X130467500Y-111877362D01*
X130467500Y-113674638D01*
X130474011Y-113735200D01*
X130525111Y-113872205D01*
X130612738Y-113989261D01*
X130729794Y-114076888D01*
X130729795Y-114076888D01*
X130729796Y-114076889D01*
X130866799Y-114127989D01*
X130927362Y-114134500D01*
X132724638Y-114134500D01*
X132785201Y-114127989D01*
X132922204Y-114076889D01*
X133039261Y-113989261D01*
X133126889Y-113872204D01*
X133177989Y-113735201D01*
X133184500Y-113674638D01*
X133184500Y-111877362D01*
X133177989Y-111816799D01*
X133126889Y-111679796D01*
X133126888Y-111679794D01*
X133039261Y-111562738D01*
X132922205Y-111475111D01*
X132860670Y-111452159D01*
X132807191Y-111432213D01*
X132756858Y-111397650D01*
X132728684Y-111343480D01*
X132729287Y-111282424D01*
X132758522Y-111228822D01*
X132901722Y-111073268D01*
X133024860Y-110884791D01*
X133115296Y-110678616D01*
X133170564Y-110460368D01*
X133189156Y-110236000D01*
X133170564Y-110011632D01*
X133115296Y-109793384D01*
X133024860Y-109587209D01*
X132901722Y-109398732D01*
X132749240Y-109233094D01*
X132749239Y-109233093D01*
X132749237Y-109233091D01*
X132571579Y-109094813D01*
X132571577Y-109094812D01*
X132571576Y-109094811D01*
X132538317Y-109076812D01*
X132490047Y-109030498D01*
X132472288Y-108966000D01*
X132490047Y-108901502D01*
X132538317Y-108855187D01*
X132571576Y-108837189D01*
X132749240Y-108698906D01*
X132901722Y-108533268D01*
X133024860Y-108344791D01*
X133115296Y-108138616D01*
X133170564Y-107920368D01*
X133189156Y-107696000D01*
X133170564Y-107471632D01*
X133115296Y-107253384D01*
X133024860Y-107047209D01*
X132901722Y-106858732D01*
X132749240Y-106693094D01*
X132749239Y-106693093D01*
X132749237Y-106693091D01*
X132571579Y-106554813D01*
X132571577Y-106554812D01*
X132571576Y-106554811D01*
X132538317Y-106536812D01*
X132490047Y-106490498D01*
X132472288Y-106426000D01*
X132490047Y-106361502D01*
X132538317Y-106315187D01*
X132571576Y-106297189D01*
X132749240Y-106158906D01*
X132901722Y-105993268D01*
X133024860Y-105804791D01*
X133115296Y-105598616D01*
X133170564Y-105380368D01*
X133189156Y-105156000D01*
X133170564Y-104931632D01*
X133115296Y-104713384D01*
X133024860Y-104507209D01*
X132901722Y-104318732D01*
X132749240Y-104153094D01*
X132749239Y-104153093D01*
X132749237Y-104153091D01*
X132571578Y-104014812D01*
X132538317Y-103996812D01*
X132490046Y-103950495D01*
X132472288Y-103885997D01*
X132490049Y-103821499D01*
X132538317Y-103775187D01*
X132571576Y-103757189D01*
X132749240Y-103618906D01*
X132901722Y-103453268D01*
X133024860Y-103264791D01*
X133115296Y-103058616D01*
X133170564Y-102840368D01*
X133189156Y-102616000D01*
X133170564Y-102391632D01*
X133115296Y-102173384D01*
X133024860Y-101967209D01*
X132901722Y-101778732D01*
X132749240Y-101613094D01*
X132749239Y-101613093D01*
X132749237Y-101613091D01*
X132571578Y-101474812D01*
X132538317Y-101456812D01*
X132490046Y-101410495D01*
X132472288Y-101345997D01*
X132490049Y-101281499D01*
X132538317Y-101235187D01*
X132571576Y-101217189D01*
X132749240Y-101078906D01*
X132901722Y-100913268D01*
X133024860Y-100724791D01*
X133115296Y-100518616D01*
X133170564Y-100300368D01*
X133189156Y-100076000D01*
X133170564Y-99851632D01*
X133115296Y-99633384D01*
X133024860Y-99427209D01*
X132901722Y-99238732D01*
X132749240Y-99073094D01*
X132749239Y-99073093D01*
X132749237Y-99073091D01*
X132571579Y-98934813D01*
X132571577Y-98934812D01*
X132571576Y-98934811D01*
X132538317Y-98916812D01*
X132490047Y-98870498D01*
X132472288Y-98806000D01*
X132490047Y-98741502D01*
X132538317Y-98695187D01*
X132571576Y-98677189D01*
X132749240Y-98538906D01*
X132901722Y-98373268D01*
X133024860Y-98184791D01*
X133115296Y-97978616D01*
X133170564Y-97760368D01*
X133189156Y-97536000D01*
X133170564Y-97311632D01*
X133115296Y-97093384D01*
X133024860Y-96887209D01*
X132901722Y-96698732D01*
X132749240Y-96533094D01*
X132749239Y-96533093D01*
X132749237Y-96533091D01*
X132571579Y-96394813D01*
X132571577Y-96394812D01*
X132571576Y-96394811D01*
X132538317Y-96376812D01*
X132490047Y-96330498D01*
X132472288Y-96266000D01*
X132490047Y-96201502D01*
X132538317Y-96155187D01*
X132571576Y-96137189D01*
X132749240Y-95998906D01*
X132901722Y-95833268D01*
X133024860Y-95644791D01*
X133115296Y-95438616D01*
X133170564Y-95220368D01*
X133189156Y-94996000D01*
X133170564Y-94771632D01*
X133115296Y-94553384D01*
X133024860Y-94347209D01*
X132901722Y-94158732D01*
X132749240Y-93993094D01*
X132749239Y-93993093D01*
X132749237Y-93993091D01*
X132642641Y-93910124D01*
X132571576Y-93854811D01*
X132537792Y-93836528D01*
X132489521Y-93790212D01*
X132471762Y-93725715D01*
X132489521Y-93661217D01*
X132537793Y-93614901D01*
X132571300Y-93596768D01*
X132748903Y-93458533D01*
X132901321Y-93292962D01*
X133024419Y-93104548D01*
X133114822Y-92898451D01*
X133162544Y-92710000D01*
X130489455Y-92710000D01*
X130537177Y-92898451D01*
X130627580Y-93104548D01*
X130750678Y-93292962D01*
X130903096Y-93458533D01*
X131080702Y-93596769D01*
X131114207Y-93614902D01*
X131162478Y-93661218D01*
X131180237Y-93725715D01*
X131162478Y-93790212D01*
X131114207Y-93836528D01*
X131080423Y-93854811D01*
X130902762Y-93993091D01*
X130750278Y-94158731D01*
X130627139Y-94347209D01*
X130536702Y-94553388D01*
X130481437Y-94771627D01*
X130481436Y-94771632D01*
X130462844Y-94996000D01*
X130481436Y-95220368D01*
X130481436Y-95220371D01*
X130481437Y-95220372D01*
X130536702Y-95438611D01*
X130627139Y-95644790D01*
X130627140Y-95644791D01*
X130750278Y-95833268D01*
X130785205Y-95871209D01*
X130902762Y-95998908D01*
X131080418Y-96137185D01*
X131080420Y-96137186D01*
X131080424Y-96137189D01*
X131113682Y-96155187D01*
X131161952Y-96201503D01*
X131179711Y-96266000D01*
X131161952Y-96330497D01*
X131113682Y-96376812D01*
X131088794Y-96390281D01*
X131080418Y-96394814D01*
X130902762Y-96533091D01*
X130750278Y-96698731D01*
X130627139Y-96887209D01*
X130536702Y-97093388D01*
X130485624Y-97295094D01*
X130481436Y-97311632D01*
X130462844Y-97536000D01*
X130481436Y-97760368D01*
X130481436Y-97760371D01*
X130481437Y-97760372D01*
X130536702Y-97978611D01*
X130627139Y-98184790D01*
X130627140Y-98184791D01*
X130750278Y-98373268D01*
X130785205Y-98411209D01*
X130902762Y-98538908D01*
X131080418Y-98677185D01*
X131080420Y-98677186D01*
X131080424Y-98677189D01*
X131113682Y-98695187D01*
X131161952Y-98741503D01*
X131179711Y-98806000D01*
X131161952Y-98870497D01*
X131113682Y-98916812D01*
X131088794Y-98930281D01*
X131080418Y-98934814D01*
X130902762Y-99073091D01*
X130750278Y-99238731D01*
X130627139Y-99427209D01*
X130536702Y-99633388D01*
X130485624Y-99835094D01*
X130481436Y-99851632D01*
X130462844Y-100076000D01*
X130481436Y-100300368D01*
X130481436Y-100300371D01*
X130481437Y-100300372D01*
X130536702Y-100518611D01*
X130627139Y-100724790D01*
X130627140Y-100724791D01*
X130750278Y-100913268D01*
X130785205Y-100951209D01*
X130902762Y-101078908D01*
X131003587Y-101157384D01*
X131080424Y-101217189D01*
X131113682Y-101235187D01*
X131161951Y-101281500D01*
X131179711Y-101345997D01*
X131161953Y-101410494D01*
X131113683Y-101456811D01*
X131080423Y-101474810D01*
X130902762Y-101613091D01*
X130750278Y-101778731D01*
X130627139Y-101967209D01*
X130536702Y-102173388D01*
X130485624Y-102375094D01*
X130481436Y-102391632D01*
X130462844Y-102616000D01*
X130481436Y-102840368D01*
X130481436Y-102840371D01*
X130481437Y-102840372D01*
X130536702Y-103058611D01*
X130627139Y-103264790D01*
X130750278Y-103453268D01*
X130902762Y-103618908D01*
X131004611Y-103698181D01*
X131080424Y-103757189D01*
X131113682Y-103775187D01*
X131161951Y-103821500D01*
X131179711Y-103885997D01*
X131161953Y-103950494D01*
X131113683Y-103996811D01*
X131080423Y-104014810D01*
X130902762Y-104153091D01*
X130750278Y-104318731D01*
X130627139Y-104507209D01*
X130536702Y-104713388D01*
X130481437Y-104931627D01*
X130481436Y-104931632D01*
X130462844Y-105156000D01*
X130481436Y-105380368D01*
X130481436Y-105380371D01*
X130481437Y-105380372D01*
X130536702Y-105598611D01*
X130627139Y-105804790D01*
X130627140Y-105804791D01*
X130750278Y-105993268D01*
X130785205Y-106031209D01*
X130902762Y-106158908D01*
X131080418Y-106297185D01*
X131080420Y-106297186D01*
X131080424Y-106297189D01*
X131113682Y-106315187D01*
X131161952Y-106361503D01*
X131179711Y-106426000D01*
X131161952Y-106490497D01*
X131113682Y-106536812D01*
X131088794Y-106550281D01*
X131080418Y-106554814D01*
X130902762Y-106693091D01*
X130750278Y-106858731D01*
X130627139Y-107047209D01*
X130536702Y-107253388D01*
X130517608Y-107328791D01*
X130481436Y-107471632D01*
X130462844Y-107696000D01*
X130481436Y-107920368D01*
X130481436Y-107920371D01*
X130481437Y-107920372D01*
X130536702Y-108138611D01*
X130627139Y-108344790D01*
X130651927Y-108382731D01*
X130750278Y-108533268D01*
X130785205Y-108571209D01*
X130902762Y-108698908D01*
X131003587Y-108777384D01*
X131080424Y-108837189D01*
X131113682Y-108855187D01*
X131161951Y-108901500D01*
X131179711Y-108965997D01*
X131161953Y-109030494D01*
X131113683Y-109076811D01*
X131080423Y-109094810D01*
X130902762Y-109233091D01*
X130750278Y-109398731D01*
X130627139Y-109587209D01*
X130536702Y-109793388D01*
X130483842Y-110002130D01*
X130481436Y-110011632D01*
X130462844Y-110236000D01*
X112920417Y-110236000D01*
X112937240Y-110222906D01*
X113089722Y-110057268D01*
X113212860Y-109868791D01*
X113303296Y-109662616D01*
X113358564Y-109444368D01*
X113377156Y-109220000D01*
X113358564Y-108995632D01*
X113303296Y-108777384D01*
X113212860Y-108571209D01*
X113089722Y-108382732D01*
X112937240Y-108217094D01*
X112937239Y-108217093D01*
X112937237Y-108217091D01*
X112759579Y-108078813D01*
X112759577Y-108078812D01*
X112759576Y-108078811D01*
X112726317Y-108060812D01*
X112678047Y-108014498D01*
X112660288Y-107950000D01*
X112678047Y-107885502D01*
X112726317Y-107839187D01*
X112759576Y-107821189D01*
X112937240Y-107682906D01*
X113089722Y-107517268D01*
X113212860Y-107328791D01*
X113303296Y-107122616D01*
X113358564Y-106904368D01*
X113377156Y-106680000D01*
X113358564Y-106455632D01*
X113303296Y-106237384D01*
X113212860Y-106031209D01*
X113089722Y-105842732D01*
X112946157Y-105686780D01*
X112916921Y-105633178D01*
X112916318Y-105572122D01*
X112944493Y-105517951D01*
X112994827Y-105483388D01*
X113109963Y-105440445D01*
X113226904Y-105352904D01*
X113314445Y-105235962D01*
X113365494Y-105099093D01*
X113372000Y-105038589D01*
X113372000Y-104394000D01*
X110656000Y-104394000D01*
X110656000Y-105038589D01*
X110662505Y-105099093D01*
X110713554Y-105235962D01*
X110801095Y-105352904D01*
X110918037Y-105440445D01*
X111033172Y-105483388D01*
X111083506Y-105517952D01*
X111111681Y-105572122D01*
X111111078Y-105633178D01*
X111081841Y-105686782D01*
X110938278Y-105842731D01*
X110815139Y-106031209D01*
X110724702Y-106237388D01*
X110671455Y-106447658D01*
X110669436Y-106455632D01*
X110650844Y-106680000D01*
X110669436Y-106904368D01*
X110669436Y-106904371D01*
X110669437Y-106904372D01*
X110724702Y-107122611D01*
X110815139Y-107328790D01*
X110938278Y-107517268D01*
X111090762Y-107682908D01*
X111107583Y-107696000D01*
X111268424Y-107821189D01*
X111301682Y-107839187D01*
X111349951Y-107885500D01*
X111367711Y-107949997D01*
X111349953Y-108014494D01*
X111301683Y-108060811D01*
X111268423Y-108078810D01*
X111090762Y-108217091D01*
X110938278Y-108382731D01*
X110815139Y-108571209D01*
X110724702Y-108777388D01*
X110671455Y-108987658D01*
X110669436Y-108995632D01*
X110650844Y-109220000D01*
X110669436Y-109444368D01*
X110669436Y-109444371D01*
X110669437Y-109444372D01*
X110724702Y-109662611D01*
X110815139Y-109868790D01*
X110938278Y-110057268D01*
X111012404Y-110137790D01*
X111090762Y-110222908D01*
X111192611Y-110302181D01*
X111268424Y-110361189D01*
X111301682Y-110379187D01*
X111349951Y-110425500D01*
X111367711Y-110489997D01*
X111349953Y-110554494D01*
X111301683Y-110600811D01*
X111268423Y-110618810D01*
X111090762Y-110757091D01*
X110938278Y-110922731D01*
X110815139Y-111111209D01*
X110724702Y-111317388D01*
X110684762Y-111475111D01*
X110669436Y-111535632D01*
X110650844Y-111760000D01*
X110669436Y-111984368D01*
X110669436Y-111984371D01*
X110669437Y-111984372D01*
X110724702Y-112202611D01*
X110815139Y-112408790D01*
X110938277Y-112597267D01*
X110938278Y-112597268D01*
X111012404Y-112677790D01*
X111090762Y-112762908D01*
X111268418Y-112901185D01*
X111268420Y-112901186D01*
X111268424Y-112901189D01*
X111301682Y-112919187D01*
X111349952Y-112965503D01*
X111367711Y-113030000D01*
X111349952Y-113094497D01*
X111301682Y-113140812D01*
X111276794Y-113154281D01*
X111268418Y-113158814D01*
X111090762Y-113297091D01*
X110938278Y-113462731D01*
X110815139Y-113651209D01*
X110724702Y-113857388D01*
X110691308Y-113989261D01*
X110669436Y-114075632D01*
X110650844Y-114300000D01*
X95597156Y-114300000D01*
X95578564Y-114075632D01*
X95523296Y-113857384D01*
X95432860Y-113651209D01*
X95309722Y-113462732D01*
X95157240Y-113297094D01*
X95157239Y-113297093D01*
X95157237Y-113297091D01*
X94979579Y-113158813D01*
X94979577Y-113158812D01*
X94979576Y-113158811D01*
X94946317Y-113140812D01*
X94898047Y-113094498D01*
X94880288Y-113030000D01*
X94898047Y-112965502D01*
X94946317Y-112919187D01*
X94979576Y-112901189D01*
X95157240Y-112762906D01*
X95309722Y-112597268D01*
X95432860Y-112408791D01*
X95523296Y-112202616D01*
X95578564Y-111984368D01*
X95597156Y-111760000D01*
X95578564Y-111535632D01*
X95523296Y-111317384D01*
X95432860Y-111111209D01*
X95309722Y-110922732D01*
X95157240Y-110757094D01*
X95157239Y-110757093D01*
X95157237Y-110757091D01*
X94979578Y-110618812D01*
X94946317Y-110600812D01*
X94898046Y-110554495D01*
X94880288Y-110489997D01*
X94898049Y-110425499D01*
X94946317Y-110379187D01*
X94979576Y-110361189D01*
X95157240Y-110222906D01*
X95309722Y-110057268D01*
X95432860Y-109868791D01*
X95523296Y-109662616D01*
X95578564Y-109444368D01*
X95597156Y-109220000D01*
X95578564Y-108995632D01*
X95523296Y-108777384D01*
X95432860Y-108571209D01*
X95309722Y-108382732D01*
X95157240Y-108217094D01*
X95157239Y-108217093D01*
X95157237Y-108217091D01*
X94979579Y-108078813D01*
X94979577Y-108078812D01*
X94979576Y-108078811D01*
X94946317Y-108060812D01*
X94898047Y-108014498D01*
X94880288Y-107950000D01*
X94898047Y-107885502D01*
X94946317Y-107839187D01*
X94979576Y-107821189D01*
X95157240Y-107682906D01*
X95309722Y-107517268D01*
X95432860Y-107328791D01*
X95523296Y-107122616D01*
X95578564Y-106904368D01*
X95597156Y-106680000D01*
X95578564Y-106455632D01*
X95523296Y-106237384D01*
X95432860Y-106031209D01*
X95309722Y-105842732D01*
X95166157Y-105686780D01*
X95136921Y-105633178D01*
X95136318Y-105572122D01*
X95164493Y-105517951D01*
X95214827Y-105483388D01*
X95329963Y-105440445D01*
X95446904Y-105352904D01*
X95534445Y-105235962D01*
X95585494Y-105099093D01*
X95592000Y-105038589D01*
X95592000Y-104394000D01*
X92876000Y-104394000D01*
X92876000Y-105038589D01*
X92882505Y-105099093D01*
X92933554Y-105235962D01*
X93021095Y-105352904D01*
X93138037Y-105440445D01*
X93253172Y-105483388D01*
X93303506Y-105517952D01*
X93331681Y-105572122D01*
X93331078Y-105633178D01*
X93301841Y-105686782D01*
X93158278Y-105842731D01*
X93035139Y-106031209D01*
X92944702Y-106237388D01*
X92891455Y-106447658D01*
X92889436Y-106455632D01*
X92870844Y-106680000D01*
X92889436Y-106904368D01*
X92889436Y-106904371D01*
X92889437Y-106904372D01*
X92944702Y-107122611D01*
X93035139Y-107328790D01*
X93158278Y-107517268D01*
X93310762Y-107682908D01*
X93327583Y-107696000D01*
X93488424Y-107821189D01*
X93521682Y-107839187D01*
X93569951Y-107885500D01*
X93587711Y-107949997D01*
X93569953Y-108014494D01*
X93521683Y-108060811D01*
X93488423Y-108078810D01*
X93310762Y-108217091D01*
X93158278Y-108382731D01*
X93035139Y-108571209D01*
X92944702Y-108777388D01*
X92891455Y-108987658D01*
X92889436Y-108995632D01*
X92870844Y-109220000D01*
X92889436Y-109444368D01*
X92889436Y-109444371D01*
X92889437Y-109444372D01*
X92944702Y-109662611D01*
X93035139Y-109868790D01*
X93158278Y-110057268D01*
X93232404Y-110137790D01*
X93310762Y-110222908D01*
X93412611Y-110302181D01*
X93488424Y-110361189D01*
X93521682Y-110379187D01*
X93569951Y-110425500D01*
X93587711Y-110489997D01*
X93569953Y-110554494D01*
X93521683Y-110600811D01*
X93488423Y-110618810D01*
X93310762Y-110757091D01*
X93158278Y-110922731D01*
X93035139Y-111111209D01*
X92944702Y-111317388D01*
X92904762Y-111475111D01*
X92889436Y-111535632D01*
X92870844Y-111760000D01*
X92889436Y-111984368D01*
X92889436Y-111984371D01*
X92889437Y-111984372D01*
X92944702Y-112202611D01*
X93035139Y-112408790D01*
X93158277Y-112597267D01*
X93158278Y-112597268D01*
X93232404Y-112677790D01*
X93310762Y-112762908D01*
X93488418Y-112901185D01*
X93488420Y-112901186D01*
X93488424Y-112901189D01*
X93521682Y-112919187D01*
X93569952Y-112965503D01*
X93587711Y-113030000D01*
X93569952Y-113094497D01*
X93521682Y-113140812D01*
X93496794Y-113154281D01*
X93488418Y-113158814D01*
X93310762Y-113297091D01*
X93158278Y-113462731D01*
X93035139Y-113651209D01*
X92944702Y-113857388D01*
X92911308Y-113989261D01*
X92889436Y-114075632D01*
X92870844Y-114300000D01*
X48285500Y-114300000D01*
X48285500Y-112029000D01*
X85529844Y-112029000D01*
X85548436Y-112253368D01*
X85548436Y-112253371D01*
X85548437Y-112253372D01*
X85603702Y-112471611D01*
X85694139Y-112677790D01*
X85817278Y-112866268D01*
X85968005Y-113030000D01*
X85969762Y-113031908D01*
X86147421Y-113170187D01*
X86147424Y-113170189D01*
X86345426Y-113277342D01*
X86558365Y-113350444D01*
X86780431Y-113387500D01*
X87005566Y-113387500D01*
X87005569Y-113387500D01*
X87227635Y-113350444D01*
X87440574Y-113277342D01*
X87638576Y-113170189D01*
X87816240Y-113031906D01*
X87968722Y-112866268D01*
X88091860Y-112677791D01*
X88182296Y-112471616D01*
X88237564Y-112253368D01*
X88256156Y-112029000D01*
X88237564Y-111804632D01*
X88182296Y-111586384D01*
X88091860Y-111380209D01*
X87968722Y-111191732D01*
X87816240Y-111026094D01*
X87816239Y-111026093D01*
X87816237Y-111026091D01*
X87638579Y-110887813D01*
X87638577Y-110887812D01*
X87638576Y-110887811D01*
X87605317Y-110869812D01*
X87557047Y-110823498D01*
X87539288Y-110759000D01*
X87557047Y-110694502D01*
X87605317Y-110648187D01*
X87638576Y-110630189D01*
X87816240Y-110491906D01*
X87968722Y-110326268D01*
X88091860Y-110137791D01*
X88182296Y-109931616D01*
X88237564Y-109713368D01*
X88256156Y-109489000D01*
X88237564Y-109264632D01*
X88182296Y-109046384D01*
X88091860Y-108840209D01*
X87968722Y-108651732D01*
X87825523Y-108496178D01*
X87796287Y-108442575D01*
X87795684Y-108381519D01*
X87823859Y-108327348D01*
X87874188Y-108292787D01*
X87989204Y-108249889D01*
X88106261Y-108162261D01*
X88193889Y-108045204D01*
X88244989Y-107908201D01*
X88251500Y-107847638D01*
X88251500Y-106050362D01*
X88244989Y-105989799D01*
X88193889Y-105852796D01*
X88193888Y-105852794D01*
X88106261Y-105735738D01*
X87989205Y-105648111D01*
X87920702Y-105622560D01*
X87852201Y-105597011D01*
X87791638Y-105590500D01*
X85994362Y-105590500D01*
X85933799Y-105597011D01*
X85796794Y-105648111D01*
X85679738Y-105735738D01*
X85592111Y-105852794D01*
X85541011Y-105989798D01*
X85541011Y-105989799D01*
X85534500Y-106050362D01*
X85534500Y-107847638D01*
X85541011Y-107908201D01*
X85566560Y-107976702D01*
X85592111Y-108045205D01*
X85679738Y-108162261D01*
X85796794Y-108249888D01*
X85796795Y-108249888D01*
X85796796Y-108249889D01*
X85911809Y-108292787D01*
X85962140Y-108327348D01*
X85990315Y-108381519D01*
X85989712Y-108442574D01*
X85960475Y-108496178D01*
X85817281Y-108651728D01*
X85694139Y-108840209D01*
X85603702Y-109046388D01*
X85548437Y-109264627D01*
X85548436Y-109264632D01*
X85529844Y-109489000D01*
X85548436Y-109713368D01*
X85548436Y-109713371D01*
X85548437Y-109713372D01*
X85603702Y-109931611D01*
X85694139Y-110137790D01*
X85758302Y-110235999D01*
X85817278Y-110326268D01*
X85968004Y-110489999D01*
X85969762Y-110491908D01*
X86147418Y-110630185D01*
X86147420Y-110630186D01*
X86147424Y-110630189D01*
X86180682Y-110648187D01*
X86228952Y-110694503D01*
X86246711Y-110759000D01*
X86228952Y-110823497D01*
X86180682Y-110869812D01*
X86155794Y-110883281D01*
X86147418Y-110887814D01*
X85969762Y-111026091D01*
X85817278Y-111191731D01*
X85694139Y-111380209D01*
X85603702Y-111586388D01*
X85559738Y-111760000D01*
X85548436Y-111804632D01*
X85529844Y-112029000D01*
X48285500Y-112029000D01*
X48285500Y-109728000D01*
X51072807Y-109728000D01*
X51091557Y-110002124D01*
X51091557Y-110002128D01*
X51091558Y-110002130D01*
X51147462Y-110271153D01*
X51147463Y-110271155D01*
X51239476Y-110530057D01*
X51365889Y-110774024D01*
X51444077Y-110884791D01*
X51524343Y-110998502D01*
X51711889Y-111199314D01*
X51925031Y-111372718D01*
X52159800Y-111515484D01*
X52411823Y-111624953D01*
X52676404Y-111699085D01*
X52676410Y-111699085D01*
X52676411Y-111699086D01*
X52948612Y-111736500D01*
X52948615Y-111736500D01*
X53223385Y-111736500D01*
X53223388Y-111736500D01*
X53442636Y-111706364D01*
X53495596Y-111699085D01*
X53760177Y-111624953D01*
X54012200Y-111515484D01*
X54246969Y-111372718D01*
X54460111Y-111199314D01*
X54647657Y-110998502D01*
X54806111Y-110774023D01*
X54932523Y-110530058D01*
X55024538Y-110271153D01*
X55080442Y-110002130D01*
X55099193Y-109728000D01*
X55080442Y-109453870D01*
X55024538Y-109184847D01*
X54932523Y-108925942D01*
X54806111Y-108681977D01*
X54647657Y-108457498D01*
X54460111Y-108256686D01*
X54246969Y-108083282D01*
X54012200Y-107940516D01*
X53937803Y-107908201D01*
X53760179Y-107831048D01*
X53760177Y-107831047D01*
X53495596Y-107756915D01*
X53495594Y-107756914D01*
X53495588Y-107756913D01*
X53223388Y-107719500D01*
X53223385Y-107719500D01*
X52948615Y-107719500D01*
X52948612Y-107719500D01*
X52676411Y-107756913D01*
X52676403Y-107756915D01*
X52676404Y-107756915D01*
X52411823Y-107831047D01*
X52411821Y-107831047D01*
X52411820Y-107831048D01*
X52159801Y-107940515D01*
X51925030Y-108083282D01*
X51711887Y-108256687D01*
X51524343Y-108457497D01*
X51365889Y-108681975D01*
X51239476Y-108925942D01*
X51179460Y-109094813D01*
X51147462Y-109184847D01*
X51103016Y-109398731D01*
X51091557Y-109453875D01*
X51072807Y-109728000D01*
X48285500Y-109728000D01*
X48285500Y-104902000D01*
X51078000Y-104902000D01*
X51078000Y-106196589D01*
X51084505Y-106257093D01*
X51135554Y-106393962D01*
X51223095Y-106510904D01*
X51340037Y-106598445D01*
X51476906Y-106649494D01*
X51537411Y-106656000D01*
X52832000Y-106656000D01*
X52832000Y-104902000D01*
X53340000Y-104902000D01*
X53340000Y-106656000D01*
X54634589Y-106656000D01*
X54695093Y-106649494D01*
X54831962Y-106598445D01*
X54948904Y-106510904D01*
X55036445Y-106393962D01*
X55087494Y-106257093D01*
X55094000Y-106196589D01*
X55094000Y-104902000D01*
X53340000Y-104902000D01*
X52832000Y-104902000D01*
X51078000Y-104902000D01*
X48285500Y-104902000D01*
X48285500Y-104394000D01*
X51078000Y-104394000D01*
X52832000Y-104394000D01*
X52832000Y-102640000D01*
X53340000Y-102640000D01*
X53340000Y-104394000D01*
X55094000Y-104394000D01*
X55094000Y-103378000D01*
X85504844Y-103378000D01*
X85523436Y-103602368D01*
X85523436Y-103602371D01*
X85523437Y-103602372D01*
X85578702Y-103820611D01*
X85578703Y-103820614D01*
X85578704Y-103820616D01*
X85579092Y-103821500D01*
X85669139Y-104026790D01*
X85792278Y-104215268D01*
X85944762Y-104380908D01*
X86107032Y-104507209D01*
X86122424Y-104519189D01*
X86320426Y-104626342D01*
X86533365Y-104699444D01*
X86755431Y-104736500D01*
X86980566Y-104736500D01*
X86980569Y-104736500D01*
X87202635Y-104699444D01*
X87415574Y-104626342D01*
X87613576Y-104519189D01*
X87791240Y-104380906D01*
X87943722Y-104215268D01*
X88066860Y-104026791D01*
X88157296Y-103820616D01*
X88212564Y-103602368D01*
X88231156Y-103378000D01*
X88212564Y-103153632D01*
X88157296Y-102935384D01*
X88066860Y-102729209D01*
X87943722Y-102540732D01*
X87791240Y-102375094D01*
X87791239Y-102375093D01*
X87791237Y-102375091D01*
X87613579Y-102236813D01*
X87613577Y-102236812D01*
X87613576Y-102236811D01*
X87580317Y-102218812D01*
X87532047Y-102172498D01*
X87514288Y-102108000D01*
X87532047Y-102043502D01*
X87580317Y-101997187D01*
X87613576Y-101979189D01*
X87791240Y-101840906D01*
X87943722Y-101675268D01*
X87992897Y-101600000D01*
X92870844Y-101600000D01*
X92889436Y-101824368D01*
X92889436Y-101824371D01*
X92889437Y-101824372D01*
X92944702Y-102042611D01*
X93035139Y-102248790D01*
X93158277Y-102437267D01*
X93158278Y-102437268D01*
X93253524Y-102540732D01*
X93301841Y-102593217D01*
X93331078Y-102646821D01*
X93331681Y-102707877D01*
X93303507Y-102762047D01*
X93253173Y-102796611D01*
X93138036Y-102839554D01*
X93021095Y-102927095D01*
X92933554Y-103044037D01*
X92882505Y-103180906D01*
X92876000Y-103241411D01*
X92876000Y-103886000D01*
X95592000Y-103886000D01*
X95592000Y-103241411D01*
X95585494Y-103180906D01*
X95534445Y-103044037D01*
X95446904Y-102927095D01*
X95329962Y-102839554D01*
X95214827Y-102796611D01*
X95164492Y-102762047D01*
X95136318Y-102707877D01*
X95136921Y-102646821D01*
X95166155Y-102593220D01*
X95309722Y-102437268D01*
X95432860Y-102248791D01*
X95523296Y-102042616D01*
X95578564Y-101824368D01*
X95597156Y-101600000D01*
X110650844Y-101600000D01*
X110669436Y-101824368D01*
X110669436Y-101824371D01*
X110669437Y-101824372D01*
X110724702Y-102042611D01*
X110815139Y-102248790D01*
X110938277Y-102437267D01*
X110938278Y-102437268D01*
X111033524Y-102540732D01*
X111081841Y-102593217D01*
X111111078Y-102646821D01*
X111111681Y-102707877D01*
X111083507Y-102762047D01*
X111033173Y-102796611D01*
X110918036Y-102839554D01*
X110801095Y-102927095D01*
X110713554Y-103044037D01*
X110662505Y-103180906D01*
X110656000Y-103241411D01*
X110656000Y-103886000D01*
X113372000Y-103886000D01*
X113372000Y-103241411D01*
X113365494Y-103180906D01*
X113314445Y-103044037D01*
X113226904Y-102927095D01*
X113109962Y-102839554D01*
X112994827Y-102796611D01*
X112944492Y-102762047D01*
X112916318Y-102707877D01*
X112916921Y-102646821D01*
X112946155Y-102593220D01*
X113089722Y-102437268D01*
X113212860Y-102248791D01*
X113303296Y-102042616D01*
X113358564Y-101824368D01*
X113377156Y-101600000D01*
X113358564Y-101375632D01*
X113303296Y-101157384D01*
X113212860Y-100951209D01*
X113089722Y-100762732D01*
X112937240Y-100597094D01*
X112937239Y-100597093D01*
X112937237Y-100597091D01*
X112759579Y-100458813D01*
X112759577Y-100458812D01*
X112759576Y-100458811D01*
X112726317Y-100440812D01*
X112678047Y-100394498D01*
X112660288Y-100330000D01*
X112678047Y-100265502D01*
X112726317Y-100219187D01*
X112759576Y-100201189D01*
X112937240Y-100062906D01*
X113089722Y-99897268D01*
X113212860Y-99708791D01*
X113303296Y-99502616D01*
X113358564Y-99284368D01*
X113377156Y-99060000D01*
X113358564Y-98835632D01*
X113303296Y-98617384D01*
X113212860Y-98411209D01*
X113089722Y-98222732D01*
X112937240Y-98057094D01*
X112937239Y-98057093D01*
X112937237Y-98057091D01*
X112759579Y-97918813D01*
X112759577Y-97918812D01*
X112759576Y-97918811D01*
X112726317Y-97900812D01*
X112678047Y-97854498D01*
X112660288Y-97790000D01*
X112678047Y-97725502D01*
X112726317Y-97679187D01*
X112759576Y-97661189D01*
X112937240Y-97522906D01*
X113089722Y-97357268D01*
X113212860Y-97168791D01*
X113303296Y-96962616D01*
X113358564Y-96744368D01*
X113377156Y-96520000D01*
X113358564Y-96295632D01*
X113303296Y-96077384D01*
X113212860Y-95871209D01*
X113089722Y-95682732D01*
X112937240Y-95517094D01*
X112937239Y-95517093D01*
X112937237Y-95517091D01*
X112759579Y-95378813D01*
X112759577Y-95378812D01*
X112759576Y-95378811D01*
X112726317Y-95360812D01*
X112678047Y-95314498D01*
X112660288Y-95250000D01*
X112678047Y-95185502D01*
X112726317Y-95139187D01*
X112759576Y-95121189D01*
X112937240Y-94982906D01*
X113089722Y-94817268D01*
X113212860Y-94628791D01*
X113303296Y-94422616D01*
X113358564Y-94204368D01*
X113377156Y-93980000D01*
X113358564Y-93755632D01*
X113303296Y-93537384D01*
X113212860Y-93331209D01*
X113089722Y-93142732D01*
X112946157Y-92986780D01*
X112916921Y-92933178D01*
X112916318Y-92872122D01*
X112944493Y-92817951D01*
X112994827Y-92783388D01*
X113109963Y-92740445D01*
X113226904Y-92652904D01*
X113314445Y-92535962D01*
X113365494Y-92399093D01*
X113372000Y-92338589D01*
X113372000Y-91694000D01*
X110656000Y-91694000D01*
X110656000Y-92338589D01*
X110662505Y-92399093D01*
X110713554Y-92535962D01*
X110801095Y-92652904D01*
X110918037Y-92740445D01*
X111033172Y-92783388D01*
X111083506Y-92817952D01*
X111111681Y-92872122D01*
X111111078Y-92933178D01*
X111081841Y-92986782D01*
X110938278Y-93142731D01*
X110815139Y-93331209D01*
X110724702Y-93537388D01*
X110689967Y-93674556D01*
X110669436Y-93755632D01*
X110650844Y-93980000D01*
X110669436Y-94204368D01*
X110669436Y-94204371D01*
X110669437Y-94204372D01*
X110724702Y-94422611D01*
X110724703Y-94422614D01*
X110724704Y-94422616D01*
X110730819Y-94436556D01*
X110815139Y-94628790D01*
X110938278Y-94817268D01*
X111090762Y-94982908D01*
X111268418Y-95121185D01*
X111268420Y-95121186D01*
X111268424Y-95121189D01*
X111301682Y-95139187D01*
X111349952Y-95185503D01*
X111367711Y-95250000D01*
X111349952Y-95314497D01*
X111301682Y-95360812D01*
X111276794Y-95374281D01*
X111268418Y-95378814D01*
X111090762Y-95517091D01*
X110938278Y-95682731D01*
X110815139Y-95871209D01*
X110724702Y-96077388D01*
X110671455Y-96287658D01*
X110669436Y-96295632D01*
X110650844Y-96520000D01*
X110669436Y-96744368D01*
X110669436Y-96744371D01*
X110669437Y-96744372D01*
X110724702Y-96962611D01*
X110815139Y-97168790D01*
X110938278Y-97357268D01*
X111090762Y-97522908D01*
X111268418Y-97661185D01*
X111268420Y-97661186D01*
X111268424Y-97661189D01*
X111301682Y-97679187D01*
X111349952Y-97725503D01*
X111367711Y-97790000D01*
X111349952Y-97854497D01*
X111301682Y-97900812D01*
X111276794Y-97914281D01*
X111268418Y-97918814D01*
X111090762Y-98057091D01*
X110938278Y-98222731D01*
X110815139Y-98411209D01*
X110724702Y-98617388D01*
X110671455Y-98827658D01*
X110669436Y-98835632D01*
X110650844Y-99060000D01*
X110669436Y-99284368D01*
X110669436Y-99284371D01*
X110669437Y-99284372D01*
X110724702Y-99502611D01*
X110815139Y-99708790D01*
X110938278Y-99897268D01*
X111090762Y-100062908D01*
X111268418Y-100201185D01*
X111268420Y-100201186D01*
X111268424Y-100201189D01*
X111301682Y-100219187D01*
X111349952Y-100265503D01*
X111367711Y-100330000D01*
X111349952Y-100394497D01*
X111301682Y-100440812D01*
X111276794Y-100454281D01*
X111268418Y-100458814D01*
X111090762Y-100597091D01*
X110938278Y-100762731D01*
X110815139Y-100951209D01*
X110724702Y-101157388D01*
X110671455Y-101367658D01*
X110669436Y-101375632D01*
X110650844Y-101600000D01*
X95597156Y-101600000D01*
X95578564Y-101375632D01*
X95523296Y-101157384D01*
X95432860Y-100951209D01*
X95309722Y-100762732D01*
X95157240Y-100597094D01*
X95157239Y-100597093D01*
X95157237Y-100597091D01*
X94979579Y-100458813D01*
X94979577Y-100458812D01*
X94979576Y-100458811D01*
X94946317Y-100440812D01*
X94898047Y-100394498D01*
X94880288Y-100330000D01*
X94898047Y-100265502D01*
X94946317Y-100219187D01*
X94979576Y-100201189D01*
X95157240Y-100062906D01*
X95309722Y-99897268D01*
X95432860Y-99708791D01*
X95523296Y-99502616D01*
X95578564Y-99284368D01*
X95597156Y-99060000D01*
X95578564Y-98835632D01*
X95523296Y-98617384D01*
X95432860Y-98411209D01*
X95309722Y-98222732D01*
X95157240Y-98057094D01*
X95157239Y-98057093D01*
X95157237Y-98057091D01*
X94979579Y-97918813D01*
X94979577Y-97918812D01*
X94979576Y-97918811D01*
X94946317Y-97900812D01*
X94898047Y-97854498D01*
X94880288Y-97790000D01*
X94898047Y-97725502D01*
X94946317Y-97679187D01*
X94979576Y-97661189D01*
X95157240Y-97522906D01*
X95309722Y-97357268D01*
X95432860Y-97168791D01*
X95523296Y-96962616D01*
X95578564Y-96744368D01*
X95597156Y-96520000D01*
X95578564Y-96295632D01*
X95523296Y-96077384D01*
X95432860Y-95871209D01*
X95309722Y-95682732D01*
X95157240Y-95517094D01*
X95157239Y-95517093D01*
X95157237Y-95517091D01*
X94979579Y-95378813D01*
X94979577Y-95378812D01*
X94979576Y-95378811D01*
X94946317Y-95360812D01*
X94898047Y-95314498D01*
X94880288Y-95250000D01*
X94898047Y-95185502D01*
X94946317Y-95139187D01*
X94979576Y-95121189D01*
X95157240Y-94982906D01*
X95309722Y-94817268D01*
X95432860Y-94628791D01*
X95523296Y-94422616D01*
X95578564Y-94204368D01*
X95597156Y-93980000D01*
X95578564Y-93755632D01*
X95523296Y-93537384D01*
X95432860Y-93331209D01*
X95309722Y-93142732D01*
X95166157Y-92986780D01*
X95136921Y-92933178D01*
X95136318Y-92872122D01*
X95164493Y-92817951D01*
X95214827Y-92783388D01*
X95329963Y-92740445D01*
X95446904Y-92652904D01*
X95534445Y-92535962D01*
X95585494Y-92399093D01*
X95592000Y-92338589D01*
X95592000Y-91694000D01*
X92876000Y-91694000D01*
X92876000Y-92338589D01*
X92882505Y-92399093D01*
X92933554Y-92535962D01*
X93021095Y-92652904D01*
X93138037Y-92740445D01*
X93253172Y-92783388D01*
X93303506Y-92817952D01*
X93331681Y-92872122D01*
X93331078Y-92933178D01*
X93301841Y-92986782D01*
X93158278Y-93142731D01*
X93035139Y-93331209D01*
X92944702Y-93537388D01*
X92909967Y-93674556D01*
X92889436Y-93755632D01*
X92870844Y-93980000D01*
X92889436Y-94204368D01*
X92889436Y-94204371D01*
X92889437Y-94204372D01*
X92944702Y-94422611D01*
X92944703Y-94422614D01*
X92944704Y-94422616D01*
X92950819Y-94436556D01*
X93035139Y-94628790D01*
X93158278Y-94817268D01*
X93310762Y-94982908D01*
X93488418Y-95121185D01*
X93488420Y-95121186D01*
X93488424Y-95121189D01*
X93521682Y-95139187D01*
X93569952Y-95185503D01*
X93587711Y-95250000D01*
X93569952Y-95314497D01*
X93521682Y-95360812D01*
X93496794Y-95374281D01*
X93488418Y-95378814D01*
X93310762Y-95517091D01*
X93158278Y-95682731D01*
X93035139Y-95871209D01*
X92944702Y-96077388D01*
X92891455Y-96287658D01*
X92889436Y-96295632D01*
X92870844Y-96520000D01*
X92889436Y-96744368D01*
X92889436Y-96744371D01*
X92889437Y-96744372D01*
X92944702Y-96962611D01*
X93035139Y-97168790D01*
X93158278Y-97357268D01*
X93310762Y-97522908D01*
X93488418Y-97661185D01*
X93488420Y-97661186D01*
X93488424Y-97661189D01*
X93521682Y-97679187D01*
X93569952Y-97725503D01*
X93587711Y-97790000D01*
X93569952Y-97854497D01*
X93521682Y-97900812D01*
X93496794Y-97914281D01*
X93488418Y-97918814D01*
X93310762Y-98057091D01*
X93158278Y-98222731D01*
X93035139Y-98411209D01*
X92944702Y-98617388D01*
X92891455Y-98827658D01*
X92889436Y-98835632D01*
X92870844Y-99060000D01*
X92889436Y-99284368D01*
X92889436Y-99284371D01*
X92889437Y-99284372D01*
X92944702Y-99502611D01*
X93035139Y-99708790D01*
X93158278Y-99897268D01*
X93310762Y-100062908D01*
X93488418Y-100201185D01*
X93488420Y-100201186D01*
X93488424Y-100201189D01*
X93521682Y-100219187D01*
X93569952Y-100265503D01*
X93587711Y-100330000D01*
X93569952Y-100394497D01*
X93521682Y-100440812D01*
X93496794Y-100454281D01*
X93488418Y-100458814D01*
X93310762Y-100597091D01*
X93158278Y-100762731D01*
X93035139Y-100951209D01*
X92944702Y-101157388D01*
X92891455Y-101367658D01*
X92889436Y-101375632D01*
X92870844Y-101600000D01*
X87992897Y-101600000D01*
X88066860Y-101486791D01*
X88157296Y-101280616D01*
X88212564Y-101062368D01*
X88231156Y-100838000D01*
X88212564Y-100613632D01*
X88157296Y-100395384D01*
X88066860Y-100189209D01*
X87943722Y-100000732D01*
X87791240Y-99835094D01*
X87791239Y-99835093D01*
X87791237Y-99835091D01*
X87613579Y-99696813D01*
X87613577Y-99696812D01*
X87613576Y-99696811D01*
X87580317Y-99678812D01*
X87532047Y-99632498D01*
X87514288Y-99568000D01*
X87532047Y-99503502D01*
X87580317Y-99457187D01*
X87613576Y-99439189D01*
X87791240Y-99300906D01*
X87943722Y-99135268D01*
X88066860Y-98946791D01*
X88157296Y-98740616D01*
X88212564Y-98522368D01*
X88231156Y-98298000D01*
X88212564Y-98073632D01*
X88157296Y-97855384D01*
X88066860Y-97649209D01*
X87943722Y-97460732D01*
X87791240Y-97295094D01*
X87791239Y-97295093D01*
X87791237Y-97295091D01*
X87613579Y-97156813D01*
X87613577Y-97156812D01*
X87613576Y-97156811D01*
X87580317Y-97138812D01*
X87532047Y-97092498D01*
X87514288Y-97028000D01*
X87532047Y-96963502D01*
X87580317Y-96917187D01*
X87613576Y-96899189D01*
X87791240Y-96760906D01*
X87943722Y-96595268D01*
X88066860Y-96406791D01*
X88157296Y-96200616D01*
X88212564Y-95982368D01*
X88231156Y-95758000D01*
X88212564Y-95533632D01*
X88157296Y-95315384D01*
X88066860Y-95109209D01*
X87943722Y-94920732D01*
X87800157Y-94764780D01*
X87770921Y-94711178D01*
X87770318Y-94650122D01*
X87798493Y-94595951D01*
X87848827Y-94561388D01*
X87963963Y-94518445D01*
X88080904Y-94430904D01*
X88168445Y-94313962D01*
X88219494Y-94177093D01*
X88226000Y-94116589D01*
X88226000Y-93472000D01*
X85510000Y-93472000D01*
X85510000Y-94116589D01*
X85516505Y-94177093D01*
X85567554Y-94313962D01*
X85655095Y-94430904D01*
X85772037Y-94518445D01*
X85887172Y-94561388D01*
X85937506Y-94595952D01*
X85965681Y-94650122D01*
X85965078Y-94711178D01*
X85935841Y-94764782D01*
X85792278Y-94920731D01*
X85669139Y-95109209D01*
X85578702Y-95315388D01*
X85527624Y-95517094D01*
X85523436Y-95533632D01*
X85504844Y-95758000D01*
X85523436Y-95982368D01*
X85523436Y-95982371D01*
X85523437Y-95982372D01*
X85578702Y-96200611D01*
X85669139Y-96406790D01*
X85792278Y-96595268D01*
X85944762Y-96760908D01*
X86122418Y-96899185D01*
X86122420Y-96899186D01*
X86122424Y-96899189D01*
X86155682Y-96917187D01*
X86203952Y-96963503D01*
X86221711Y-97028000D01*
X86203952Y-97092497D01*
X86155682Y-97138812D01*
X86130794Y-97152281D01*
X86122418Y-97156814D01*
X85944762Y-97295091D01*
X85792278Y-97460731D01*
X85669139Y-97649209D01*
X85578702Y-97855388D01*
X85527624Y-98057094D01*
X85523436Y-98073632D01*
X85504844Y-98298000D01*
X85523436Y-98522368D01*
X85523436Y-98522371D01*
X85523437Y-98522372D01*
X85578702Y-98740611D01*
X85669139Y-98946790D01*
X85792278Y-99135268D01*
X85944762Y-99300908D01*
X86046611Y-99380181D01*
X86122424Y-99439189D01*
X86155682Y-99457187D01*
X86203951Y-99503500D01*
X86221711Y-99567997D01*
X86203953Y-99632494D01*
X86155683Y-99678811D01*
X86122423Y-99696810D01*
X85944762Y-99835091D01*
X85792278Y-100000731D01*
X85669139Y-100189209D01*
X85578702Y-100395388D01*
X85527624Y-100597094D01*
X85523436Y-100613632D01*
X85504844Y-100838000D01*
X85523436Y-101062368D01*
X85523436Y-101062371D01*
X85523437Y-101062372D01*
X85578702Y-101280611D01*
X85578703Y-101280614D01*
X85578704Y-101280616D01*
X85579092Y-101281500D01*
X85669139Y-101486790D01*
X85792278Y-101675268D01*
X85944762Y-101840908D01*
X86046611Y-101920181D01*
X86122424Y-101979189D01*
X86155682Y-101997187D01*
X86203951Y-102043500D01*
X86221711Y-102107997D01*
X86203953Y-102172494D01*
X86155683Y-102218811D01*
X86122423Y-102236810D01*
X85944762Y-102375091D01*
X85792278Y-102540731D01*
X85669139Y-102729209D01*
X85578702Y-102935388D01*
X85523437Y-103153627D01*
X85523436Y-103153632D01*
X85504844Y-103378000D01*
X55094000Y-103378000D01*
X55094000Y-103099411D01*
X55087494Y-103038906D01*
X55036445Y-102902037D01*
X54948904Y-102785095D01*
X54831962Y-102697554D01*
X54695093Y-102646505D01*
X54634589Y-102640000D01*
X53340000Y-102640000D01*
X52832000Y-102640000D01*
X51537411Y-102640000D01*
X51476906Y-102646505D01*
X51340037Y-102697554D01*
X51223095Y-102785095D01*
X51135554Y-102902037D01*
X51084505Y-103038906D01*
X51078000Y-103099411D01*
X51078000Y-104394000D01*
X48285500Y-104394000D01*
X48285500Y-92964000D01*
X85510000Y-92964000D01*
X86614000Y-92964000D01*
X86614000Y-91860000D01*
X87122000Y-91860000D01*
X87122000Y-92964000D01*
X88226000Y-92964000D01*
X88226000Y-92319411D01*
X88219494Y-92258906D01*
X88168445Y-92122037D01*
X88080904Y-92005095D01*
X87963962Y-91917554D01*
X87827093Y-91866505D01*
X87766589Y-91860000D01*
X87122000Y-91860000D01*
X86614000Y-91860000D01*
X85969411Y-91860000D01*
X85908906Y-91866505D01*
X85772037Y-91917554D01*
X85655095Y-92005095D01*
X85567554Y-92122037D01*
X85516505Y-92258906D01*
X85510000Y-92319411D01*
X85510000Y-92964000D01*
X48285500Y-92964000D01*
X48285500Y-89408000D01*
X80620496Y-89408000D01*
X80640458Y-89597929D01*
X80699472Y-89779556D01*
X80794958Y-89944942D01*
X80794960Y-89944944D01*
X80922747Y-90086866D01*
X81077248Y-90199118D01*
X81251712Y-90276794D01*
X81438513Y-90316500D01*
X81629485Y-90316500D01*
X81629487Y-90316500D01*
X81816288Y-90276794D01*
X81990752Y-90199118D01*
X82145253Y-90086866D01*
X82273040Y-89944944D01*
X82368527Y-89779556D01*
X82389353Y-89715458D01*
X82420088Y-89665302D01*
X82629803Y-89455589D01*
X82629802Y-89455589D01*
X82662111Y-89423281D01*
X82662112Y-89423278D01*
X82667097Y-89418294D01*
X82669203Y-89411993D01*
X82682657Y-89390580D01*
X82690829Y-89379063D01*
X82714909Y-89348870D01*
X82731663Y-89314077D01*
X82738493Y-89301718D01*
X82759043Y-89269015D01*
X82771798Y-89232560D01*
X82777195Y-89219527D01*
X82793959Y-89184720D01*
X82802550Y-89147075D01*
X82806464Y-89133493D01*
X82819217Y-89097048D01*
X82821280Y-89078731D01*
X82823541Y-89058662D01*
X82825901Y-89044765D01*
X82834500Y-89007097D01*
X82834500Y-88824903D01*
X82834500Y-88392000D01*
X85758844Y-88392000D01*
X85777436Y-88616368D01*
X85777436Y-88616371D01*
X85777437Y-88616372D01*
X85832702Y-88834611D01*
X85923139Y-89040790D01*
X85977746Y-89124372D01*
X86046278Y-89229268D01*
X86156380Y-89348870D01*
X86198762Y-89394908D01*
X86376421Y-89533187D01*
X86376424Y-89533189D01*
X86574426Y-89640342D01*
X86787365Y-89713444D01*
X87009431Y-89750500D01*
X87234566Y-89750500D01*
X87234569Y-89750500D01*
X87456635Y-89713444D01*
X87669574Y-89640342D01*
X87867576Y-89533189D01*
X88045240Y-89394906D01*
X88197722Y-89229268D01*
X88320860Y-89040791D01*
X88382616Y-88900000D01*
X92870844Y-88900000D01*
X92889436Y-89124368D01*
X92889436Y-89124371D01*
X92889437Y-89124372D01*
X92944702Y-89342611D01*
X93035139Y-89548790D01*
X93158278Y-89737268D01*
X93301841Y-89893217D01*
X93331078Y-89946821D01*
X93331681Y-90007877D01*
X93303507Y-90062047D01*
X93253173Y-90096611D01*
X93138036Y-90139554D01*
X93021095Y-90227095D01*
X92933554Y-90344037D01*
X92882505Y-90480906D01*
X92876000Y-90541411D01*
X92876000Y-91186000D01*
X95592000Y-91186000D01*
X95592000Y-90541411D01*
X95585494Y-90480906D01*
X95534445Y-90344037D01*
X95446904Y-90227095D01*
X95329962Y-90139554D01*
X95214827Y-90096611D01*
X95164492Y-90062047D01*
X95136318Y-90007877D01*
X95136921Y-89946821D01*
X95166155Y-89893220D01*
X95309722Y-89737268D01*
X95432860Y-89548791D01*
X95523296Y-89342616D01*
X95578564Y-89124368D01*
X95597156Y-88900000D01*
X110650844Y-88900000D01*
X110669436Y-89124368D01*
X110669436Y-89124371D01*
X110669437Y-89124372D01*
X110724702Y-89342611D01*
X110815139Y-89548790D01*
X110938278Y-89737268D01*
X111081841Y-89893217D01*
X111111078Y-89946821D01*
X111111681Y-90007877D01*
X111083507Y-90062047D01*
X111033173Y-90096611D01*
X110918036Y-90139554D01*
X110801095Y-90227095D01*
X110713554Y-90344037D01*
X110662505Y-90480906D01*
X110656000Y-90541411D01*
X110656000Y-91186000D01*
X113372000Y-91186000D01*
X113372000Y-90541411D01*
X113365494Y-90480906D01*
X113314445Y-90344037D01*
X113226904Y-90227095D01*
X113109962Y-90139554D01*
X112994827Y-90096611D01*
X112944492Y-90062047D01*
X112916318Y-90007877D01*
X112916921Y-89946821D01*
X112933731Y-89916000D01*
X130462844Y-89916000D01*
X130481436Y-90140368D01*
X130481436Y-90140371D01*
X130481437Y-90140372D01*
X130536702Y-90358611D01*
X130627139Y-90564790D01*
X130750278Y-90753268D01*
X130902762Y-90918908D01*
X131080422Y-91057188D01*
X131080424Y-91057189D01*
X131114205Y-91075470D01*
X131162477Y-91121785D01*
X131180237Y-91186282D01*
X131162479Y-91250779D01*
X131114209Y-91297096D01*
X131080702Y-91315229D01*
X130903096Y-91453466D01*
X130750678Y-91619037D01*
X130627580Y-91807451D01*
X130537177Y-92013548D01*
X130489455Y-92201999D01*
X130489456Y-92202000D01*
X133162544Y-92202000D01*
X133162544Y-92201999D01*
X133114822Y-92013548D01*
X133024419Y-91807451D01*
X132901321Y-91619037D01*
X132748903Y-91453466D01*
X132571299Y-91315231D01*
X132537791Y-91297097D01*
X132489520Y-91250780D01*
X132471762Y-91186282D01*
X132489522Y-91121785D01*
X132537791Y-91075471D01*
X132571576Y-91057189D01*
X132749240Y-90918906D01*
X132901722Y-90753268D01*
X133024860Y-90564791D01*
X133115296Y-90358616D01*
X133170564Y-90140368D01*
X133189156Y-89916000D01*
X133170564Y-89691632D01*
X133115296Y-89473384D01*
X133024860Y-89267209D01*
X132901722Y-89078732D01*
X132749240Y-88913094D01*
X132749239Y-88913093D01*
X132749237Y-88913091D01*
X132571578Y-88774812D01*
X132373573Y-88667657D01*
X132225668Y-88616882D01*
X132160635Y-88594556D01*
X131938569Y-88557500D01*
X131713431Y-88557500D01*
X131491365Y-88594556D01*
X131491362Y-88594556D01*
X131491362Y-88594557D01*
X131278426Y-88667657D01*
X131080421Y-88774812D01*
X130902762Y-88913091D01*
X130750278Y-89078731D01*
X130627139Y-89267209D01*
X130536702Y-89473388D01*
X130494424Y-89640342D01*
X130481436Y-89691632D01*
X130462844Y-89916000D01*
X112933731Y-89916000D01*
X112946155Y-89893220D01*
X113089722Y-89737268D01*
X113212860Y-89548791D01*
X113303296Y-89342616D01*
X113358564Y-89124368D01*
X113377156Y-88900000D01*
X113358564Y-88675632D01*
X113303296Y-88457384D01*
X113212860Y-88251209D01*
X113089722Y-88062732D01*
X112937240Y-87897094D01*
X112937239Y-87897093D01*
X112937237Y-87897091D01*
X112759579Y-87758813D01*
X112759577Y-87758812D01*
X112759576Y-87758811D01*
X112726317Y-87740812D01*
X112678047Y-87694498D01*
X112660288Y-87630000D01*
X112678047Y-87565502D01*
X112726317Y-87519187D01*
X112759576Y-87501189D01*
X112937240Y-87362906D01*
X113089722Y-87197268D01*
X113212860Y-87008791D01*
X113303296Y-86802616D01*
X113358564Y-86584368D01*
X113377156Y-86360000D01*
X113358564Y-86135632D01*
X113303296Y-85917384D01*
X113212860Y-85711209D01*
X113089722Y-85522732D01*
X112937240Y-85357094D01*
X112937239Y-85357093D01*
X112937237Y-85357091D01*
X112759579Y-85218813D01*
X112759577Y-85218812D01*
X112759576Y-85218811D01*
X112726317Y-85200812D01*
X112678047Y-85154498D01*
X112660288Y-85090000D01*
X112678047Y-85025502D01*
X112726317Y-84979187D01*
X112759576Y-84961189D01*
X112937240Y-84822906D01*
X113089722Y-84657268D01*
X113212860Y-84468791D01*
X113303296Y-84262616D01*
X113358564Y-84044368D01*
X113377156Y-83820000D01*
X113358564Y-83595632D01*
X113303296Y-83377384D01*
X113212860Y-83171209D01*
X113089722Y-82982732D01*
X112937240Y-82817094D01*
X112937239Y-82817093D01*
X112937237Y-82817091D01*
X112759578Y-82678812D01*
X112726317Y-82660812D01*
X112678046Y-82614495D01*
X112660288Y-82549997D01*
X112678049Y-82485499D01*
X112726317Y-82439187D01*
X112759576Y-82421189D01*
X112937240Y-82282906D01*
X113089722Y-82117268D01*
X113212860Y-81928791D01*
X113303296Y-81722616D01*
X113358564Y-81504368D01*
X113377156Y-81280000D01*
X113358564Y-81055632D01*
X113303296Y-80837384D01*
X113212860Y-80631209D01*
X113089722Y-80442732D01*
X112946157Y-80286780D01*
X112916921Y-80233178D01*
X112916318Y-80172122D01*
X112944493Y-80117951D01*
X112994827Y-80083388D01*
X113109963Y-80040445D01*
X113226904Y-79952904D01*
X113314445Y-79835962D01*
X113365494Y-79699093D01*
X113372000Y-79638589D01*
X113372000Y-78994000D01*
X110656000Y-78994000D01*
X110656000Y-79638589D01*
X110662505Y-79699093D01*
X110713554Y-79835962D01*
X110801095Y-79952904D01*
X110918037Y-80040445D01*
X111033172Y-80083388D01*
X111083506Y-80117952D01*
X111111681Y-80172122D01*
X111111078Y-80233178D01*
X111081841Y-80286782D01*
X110938278Y-80442731D01*
X110815139Y-80631209D01*
X110724702Y-80837388D01*
X110682037Y-81005870D01*
X110669436Y-81055632D01*
X110650844Y-81280000D01*
X110669436Y-81504368D01*
X110669436Y-81504371D01*
X110669437Y-81504372D01*
X110724702Y-81722611D01*
X110815139Y-81928790D01*
X110938278Y-82117268D01*
X111090762Y-82282908D01*
X111124402Y-82309091D01*
X111268424Y-82421189D01*
X111301682Y-82439187D01*
X111349951Y-82485500D01*
X111367711Y-82549997D01*
X111349953Y-82614494D01*
X111301683Y-82660811D01*
X111268423Y-82678810D01*
X111090762Y-82817091D01*
X110938278Y-82982731D01*
X110815139Y-83171209D01*
X110724702Y-83377388D01*
X110669437Y-83595627D01*
X110669436Y-83595632D01*
X110650844Y-83820000D01*
X110669436Y-84044368D01*
X110669436Y-84044371D01*
X110669437Y-84044372D01*
X110724702Y-84262611D01*
X110815139Y-84468790D01*
X110938278Y-84657268D01*
X111090762Y-84822908D01*
X111268418Y-84961185D01*
X111268420Y-84961186D01*
X111268424Y-84961189D01*
X111301682Y-84979187D01*
X111349952Y-85025503D01*
X111367711Y-85090000D01*
X111349952Y-85154497D01*
X111301682Y-85200812D01*
X111276794Y-85214281D01*
X111268418Y-85218814D01*
X111090762Y-85357091D01*
X110938278Y-85522731D01*
X110815139Y-85711209D01*
X110724702Y-85917388D01*
X110669437Y-86135627D01*
X110669436Y-86135632D01*
X110650844Y-86360000D01*
X110669436Y-86584368D01*
X110669436Y-86584371D01*
X110669437Y-86584372D01*
X110724702Y-86802611D01*
X110815139Y-87008790D01*
X110938278Y-87197268D01*
X111090762Y-87362908D01*
X111268418Y-87501185D01*
X111268420Y-87501186D01*
X111268424Y-87501189D01*
X111301682Y-87519187D01*
X111349952Y-87565503D01*
X111367711Y-87630000D01*
X111349952Y-87694497D01*
X111301682Y-87740812D01*
X111276794Y-87754281D01*
X111268418Y-87758814D01*
X111090762Y-87897091D01*
X110938278Y-88062731D01*
X110815139Y-88251209D01*
X110724702Y-88457388D01*
X110671455Y-88667658D01*
X110669436Y-88675632D01*
X110650844Y-88900000D01*
X95597156Y-88900000D01*
X95578564Y-88675632D01*
X95523296Y-88457384D01*
X95432860Y-88251209D01*
X95309722Y-88062732D01*
X95157240Y-87897094D01*
X95157239Y-87897093D01*
X95157237Y-87897091D01*
X94979579Y-87758813D01*
X94979577Y-87758812D01*
X94979576Y-87758811D01*
X94946317Y-87740812D01*
X94898047Y-87694498D01*
X94880288Y-87630000D01*
X94898047Y-87565502D01*
X94946317Y-87519187D01*
X94979576Y-87501189D01*
X95157240Y-87362906D01*
X95309722Y-87197268D01*
X95432860Y-87008791D01*
X95523296Y-86802616D01*
X95578564Y-86584368D01*
X95597156Y-86360000D01*
X95578564Y-86135632D01*
X95523296Y-85917384D01*
X95432860Y-85711209D01*
X95309722Y-85522732D01*
X95157240Y-85357094D01*
X95157239Y-85357093D01*
X95157237Y-85357091D01*
X94979579Y-85218813D01*
X94979577Y-85218812D01*
X94979576Y-85218811D01*
X94946317Y-85200812D01*
X94898047Y-85154498D01*
X94880288Y-85090000D01*
X94898047Y-85025502D01*
X94946317Y-84979187D01*
X94979576Y-84961189D01*
X95157240Y-84822906D01*
X95309722Y-84657268D01*
X95432860Y-84468791D01*
X95523296Y-84262616D01*
X95578564Y-84044368D01*
X95597156Y-83820000D01*
X95578564Y-83595632D01*
X95523296Y-83377384D01*
X95432860Y-83171209D01*
X95309722Y-82982732D01*
X95157240Y-82817094D01*
X95157239Y-82817093D01*
X95157237Y-82817091D01*
X94979578Y-82678812D01*
X94946317Y-82660812D01*
X94898046Y-82614495D01*
X94880288Y-82549997D01*
X94898049Y-82485499D01*
X94946317Y-82439187D01*
X94979576Y-82421189D01*
X95157240Y-82282906D01*
X95309722Y-82117268D01*
X95432860Y-81928791D01*
X95523296Y-81722616D01*
X95578564Y-81504368D01*
X95597156Y-81280000D01*
X95578564Y-81055632D01*
X95523296Y-80837384D01*
X95432860Y-80631209D01*
X95309722Y-80442732D01*
X95166157Y-80286780D01*
X95136921Y-80233178D01*
X95136318Y-80172122D01*
X95164493Y-80117951D01*
X95214827Y-80083388D01*
X95329963Y-80040445D01*
X95446904Y-79952904D01*
X95534445Y-79835962D01*
X95585494Y-79699093D01*
X95592000Y-79638589D01*
X95592000Y-78994000D01*
X92876000Y-78994000D01*
X92876000Y-79638589D01*
X92882505Y-79699093D01*
X92933554Y-79835962D01*
X93021095Y-79952904D01*
X93138037Y-80040445D01*
X93253172Y-80083388D01*
X93303506Y-80117952D01*
X93331681Y-80172122D01*
X93331078Y-80233178D01*
X93301841Y-80286782D01*
X93158278Y-80442731D01*
X93035139Y-80631209D01*
X92944702Y-80837388D01*
X92902037Y-81005870D01*
X92889436Y-81055632D01*
X92870844Y-81280000D01*
X92889436Y-81504368D01*
X92889436Y-81504371D01*
X92889437Y-81504372D01*
X92944702Y-81722611D01*
X93035139Y-81928790D01*
X93158278Y-82117268D01*
X93310762Y-82282908D01*
X93344402Y-82309091D01*
X93488424Y-82421189D01*
X93521682Y-82439187D01*
X93569951Y-82485500D01*
X93587711Y-82549997D01*
X93569953Y-82614494D01*
X93521683Y-82660811D01*
X93488423Y-82678810D01*
X93310762Y-82817091D01*
X93158278Y-82982731D01*
X93035139Y-83171209D01*
X92944702Y-83377388D01*
X92889437Y-83595627D01*
X92889436Y-83595632D01*
X92870844Y-83820000D01*
X92889436Y-84044368D01*
X92889436Y-84044371D01*
X92889437Y-84044372D01*
X92944702Y-84262611D01*
X93035139Y-84468790D01*
X93158278Y-84657268D01*
X93310762Y-84822908D01*
X93488418Y-84961185D01*
X93488420Y-84961186D01*
X93488424Y-84961189D01*
X93521682Y-84979187D01*
X93569952Y-85025503D01*
X93587711Y-85090000D01*
X93569952Y-85154497D01*
X93521682Y-85200812D01*
X93496794Y-85214281D01*
X93488418Y-85218814D01*
X93310762Y-85357091D01*
X93158278Y-85522731D01*
X93035139Y-85711209D01*
X92944702Y-85917388D01*
X92889437Y-86135627D01*
X92889436Y-86135632D01*
X92870844Y-86360000D01*
X92889436Y-86584368D01*
X92889436Y-86584371D01*
X92889437Y-86584372D01*
X92944702Y-86802611D01*
X93035139Y-87008790D01*
X93158278Y-87197268D01*
X93310762Y-87362908D01*
X93488418Y-87501185D01*
X93488420Y-87501186D01*
X93488424Y-87501189D01*
X93521682Y-87519187D01*
X93569952Y-87565503D01*
X93587711Y-87630000D01*
X93569952Y-87694497D01*
X93521682Y-87740812D01*
X93496794Y-87754281D01*
X93488418Y-87758814D01*
X93310762Y-87897091D01*
X93158278Y-88062731D01*
X93035139Y-88251209D01*
X92944702Y-88457388D01*
X92891455Y-88667658D01*
X92889436Y-88675632D01*
X92870844Y-88900000D01*
X88382616Y-88900000D01*
X88411296Y-88834616D01*
X88466564Y-88616368D01*
X88485156Y-88392000D01*
X88466564Y-88167632D01*
X88411296Y-87949384D01*
X88320860Y-87743209D01*
X88197722Y-87554732D01*
X88045240Y-87389094D01*
X88045239Y-87389093D01*
X88045237Y-87389091D01*
X87867579Y-87250813D01*
X87867577Y-87250812D01*
X87867576Y-87250811D01*
X87834317Y-87232812D01*
X87786047Y-87186498D01*
X87768288Y-87122000D01*
X87786047Y-87057502D01*
X87834317Y-87011187D01*
X87867576Y-86993189D01*
X88045240Y-86854906D01*
X88197722Y-86689268D01*
X88320860Y-86500791D01*
X88411296Y-86294616D01*
X88466564Y-86076368D01*
X88485156Y-85852000D01*
X88466564Y-85627632D01*
X88411296Y-85409384D01*
X88320860Y-85203209D01*
X88197722Y-85014732D01*
X88045240Y-84849094D01*
X88045239Y-84849093D01*
X88045237Y-84849091D01*
X87867578Y-84710812D01*
X87834317Y-84692812D01*
X87786046Y-84646495D01*
X87768288Y-84581997D01*
X87786049Y-84517499D01*
X87834317Y-84471187D01*
X87867576Y-84453189D01*
X88045240Y-84314906D01*
X88197722Y-84149268D01*
X88320860Y-83960791D01*
X88411296Y-83754616D01*
X88466564Y-83536368D01*
X88485156Y-83312000D01*
X88466564Y-83087632D01*
X88411296Y-82869384D01*
X88320860Y-82663209D01*
X88197722Y-82474732D01*
X88045240Y-82309094D01*
X88045239Y-82309093D01*
X88045237Y-82309091D01*
X87867579Y-82170813D01*
X87867577Y-82170812D01*
X87867576Y-82170811D01*
X87834317Y-82152812D01*
X87786047Y-82106498D01*
X87768288Y-82042000D01*
X87786047Y-81977502D01*
X87834317Y-81931187D01*
X87867576Y-81913189D01*
X88045240Y-81774906D01*
X88197722Y-81609268D01*
X88320860Y-81420791D01*
X88411296Y-81214616D01*
X88466564Y-80996368D01*
X88485156Y-80772000D01*
X88466564Y-80547632D01*
X88411296Y-80329384D01*
X88320860Y-80123209D01*
X88197722Y-79934732D01*
X88054157Y-79778780D01*
X88024921Y-79725178D01*
X88024318Y-79664122D01*
X88052493Y-79609951D01*
X88102827Y-79575388D01*
X88217963Y-79532445D01*
X88334904Y-79444904D01*
X88422445Y-79327962D01*
X88473494Y-79191093D01*
X88480000Y-79130589D01*
X88480000Y-78486000D01*
X85764000Y-78486000D01*
X85764000Y-79130589D01*
X85770505Y-79191093D01*
X85821554Y-79327962D01*
X85909095Y-79444904D01*
X86026037Y-79532445D01*
X86141172Y-79575388D01*
X86191506Y-79609952D01*
X86219681Y-79664122D01*
X86219078Y-79725178D01*
X86189841Y-79778782D01*
X86046278Y-79934731D01*
X85923139Y-80123209D01*
X85832702Y-80329388D01*
X85777437Y-80547627D01*
X85777436Y-80547632D01*
X85758844Y-80772000D01*
X85777436Y-80996368D01*
X85777436Y-80996371D01*
X85777437Y-80996372D01*
X85832702Y-81214611D01*
X85923139Y-81420790D01*
X86046278Y-81609268D01*
X86198762Y-81774908D01*
X86376418Y-81913185D01*
X86376420Y-81913186D01*
X86376424Y-81913189D01*
X86409682Y-81931187D01*
X86457952Y-81977503D01*
X86475711Y-82042000D01*
X86457952Y-82106497D01*
X86409682Y-82152812D01*
X86384794Y-82166281D01*
X86376418Y-82170814D01*
X86198762Y-82309091D01*
X86046278Y-82474731D01*
X85923139Y-82663209D01*
X85832702Y-82869388D01*
X85804000Y-82982732D01*
X85777436Y-83087632D01*
X85758844Y-83312000D01*
X85777436Y-83536368D01*
X85777436Y-83536371D01*
X85777437Y-83536372D01*
X85832702Y-83754611D01*
X85923139Y-83960790D01*
X86046278Y-84149268D01*
X86198762Y-84314908D01*
X86300611Y-84394181D01*
X86376424Y-84453189D01*
X86409682Y-84471187D01*
X86457951Y-84517500D01*
X86475711Y-84581997D01*
X86457953Y-84646494D01*
X86409683Y-84692811D01*
X86376423Y-84710810D01*
X86198762Y-84849091D01*
X86046278Y-85014731D01*
X85923139Y-85203209D01*
X85832702Y-85409388D01*
X85804000Y-85522732D01*
X85777436Y-85627632D01*
X85758844Y-85852000D01*
X85777436Y-86076368D01*
X85777436Y-86076371D01*
X85777437Y-86076372D01*
X85832702Y-86294611D01*
X85923139Y-86500790D01*
X86046278Y-86689268D01*
X86198762Y-86854908D01*
X86376418Y-86993185D01*
X86376420Y-86993186D01*
X86376424Y-86993189D01*
X86409682Y-87011187D01*
X86457952Y-87057503D01*
X86475711Y-87122000D01*
X86457952Y-87186497D01*
X86409682Y-87232812D01*
X86384794Y-87246281D01*
X86376418Y-87250814D01*
X86198762Y-87389091D01*
X86046278Y-87554731D01*
X85923139Y-87743209D01*
X85832702Y-87949388D01*
X85804000Y-88062732D01*
X85777436Y-88167632D01*
X85758844Y-88392000D01*
X82834500Y-88392000D01*
X82834500Y-77978000D01*
X85764000Y-77978000D01*
X86868000Y-77978000D01*
X86868000Y-76874000D01*
X87376000Y-76874000D01*
X87376000Y-77978000D01*
X88480000Y-77978000D01*
X88480000Y-77333411D01*
X88473494Y-77272906D01*
X88422445Y-77136037D01*
X88334904Y-77019095D01*
X88217962Y-76931554D01*
X88081093Y-76880505D01*
X88020589Y-76874000D01*
X87376000Y-76874000D01*
X86868000Y-76874000D01*
X86223411Y-76874000D01*
X86162906Y-76880505D01*
X86026037Y-76931554D01*
X85909095Y-77019095D01*
X85821554Y-77136037D01*
X85770505Y-77272906D01*
X85764000Y-77333411D01*
X85764000Y-77978000D01*
X82834500Y-77978000D01*
X82834500Y-76200000D01*
X92870844Y-76200000D01*
X92889436Y-76424368D01*
X92889436Y-76424371D01*
X92889437Y-76424372D01*
X92944702Y-76642611D01*
X93035139Y-76848790D01*
X93146405Y-77019095D01*
X93158278Y-77037268D01*
X93248145Y-77134889D01*
X93301841Y-77193217D01*
X93331078Y-77246821D01*
X93331681Y-77307877D01*
X93303507Y-77362047D01*
X93253173Y-77396611D01*
X93138036Y-77439554D01*
X93021095Y-77527095D01*
X92933554Y-77644037D01*
X92882505Y-77780906D01*
X92876000Y-77841411D01*
X92876000Y-78486000D01*
X95592000Y-78486000D01*
X95592000Y-77841411D01*
X95585494Y-77780906D01*
X95534445Y-77644037D01*
X95446904Y-77527095D01*
X95329962Y-77439554D01*
X95214827Y-77396611D01*
X95164492Y-77362047D01*
X95136318Y-77307877D01*
X95136921Y-77246821D01*
X95166155Y-77193220D01*
X95309722Y-77037268D01*
X95432860Y-76848791D01*
X95523296Y-76642616D01*
X95578564Y-76424368D01*
X95597156Y-76200000D01*
X95578564Y-75975632D01*
X95523296Y-75757384D01*
X95432860Y-75551209D01*
X95309722Y-75362732D01*
X95157240Y-75197094D01*
X95157239Y-75197093D01*
X95157237Y-75197091D01*
X94979578Y-75058812D01*
X94946317Y-75040812D01*
X94898046Y-74994495D01*
X94880288Y-74929997D01*
X94898049Y-74865499D01*
X94946317Y-74819187D01*
X94979576Y-74801189D01*
X95157240Y-74662906D01*
X95309722Y-74497268D01*
X95432860Y-74308791D01*
X95523296Y-74102616D01*
X95577138Y-73890000D01*
X99220844Y-73890000D01*
X99239436Y-74114368D01*
X99239436Y-74114371D01*
X99239437Y-74114372D01*
X99294702Y-74332611D01*
X99385139Y-74538790D01*
X99489500Y-74698526D01*
X99508278Y-74727268D01*
X99592893Y-74819184D01*
X99660762Y-74892908D01*
X99838421Y-75031187D01*
X99838424Y-75031189D01*
X100036426Y-75138342D01*
X100249365Y-75211444D01*
X100471431Y-75248500D01*
X100696566Y-75248500D01*
X100696569Y-75248500D01*
X100918635Y-75211444D01*
X101131574Y-75138342D01*
X101329576Y-75031189D01*
X101507240Y-74892906D01*
X101568627Y-74826222D01*
X101622096Y-74791825D01*
X101685557Y-74787914D01*
X101742849Y-74815490D01*
X101779381Y-74867529D01*
X101823554Y-74985963D01*
X101911095Y-75102904D01*
X102028037Y-75190445D01*
X102164906Y-75241494D01*
X102225411Y-75248000D01*
X102870000Y-75248000D01*
X102870000Y-72532000D01*
X102225411Y-72532000D01*
X102164906Y-72538505D01*
X102028037Y-72589554D01*
X101911095Y-72677095D01*
X101823554Y-72794036D01*
X101779381Y-72912470D01*
X101742849Y-72964509D01*
X101685558Y-72992085D01*
X101622096Y-72988175D01*
X101568624Y-72953774D01*
X101507240Y-72887093D01*
X101329578Y-72748812D01*
X101131573Y-72641657D01*
X100979800Y-72589554D01*
X100918635Y-72568556D01*
X100696569Y-72531500D01*
X100471431Y-72531500D01*
X100249365Y-72568556D01*
X100249362Y-72568556D01*
X100249362Y-72568557D01*
X100036426Y-72641657D01*
X99838421Y-72748812D01*
X99660762Y-72887091D01*
X99508278Y-73052731D01*
X99385139Y-73241209D01*
X99294702Y-73447388D01*
X99262438Y-73574799D01*
X99239436Y-73665632D01*
X99220844Y-73890000D01*
X95577138Y-73890000D01*
X95578564Y-73884368D01*
X95597156Y-73660000D01*
X95578564Y-73435632D01*
X95523296Y-73217384D01*
X95432860Y-73011209D01*
X95309722Y-72822732D01*
X95157240Y-72657094D01*
X95157239Y-72657093D01*
X95157237Y-72657091D01*
X94979578Y-72518812D01*
X94781573Y-72411657D01*
X94637427Y-72362172D01*
X94568635Y-72338556D01*
X94346569Y-72301500D01*
X94121431Y-72301500D01*
X93899365Y-72338556D01*
X93899362Y-72338556D01*
X93899362Y-72338557D01*
X93686426Y-72411657D01*
X93488421Y-72518812D01*
X93310762Y-72657091D01*
X93158278Y-72822731D01*
X93035139Y-73011209D01*
X92944702Y-73217388D01*
X92889437Y-73435627D01*
X92889436Y-73435632D01*
X92870844Y-73660000D01*
X92889436Y-73884368D01*
X92889436Y-73884371D01*
X92889437Y-73884372D01*
X92944702Y-74102611D01*
X93035139Y-74308790D01*
X93053399Y-74336739D01*
X93158278Y-74497268D01*
X93203683Y-74546591D01*
X93310762Y-74662908D01*
X93356524Y-74698526D01*
X93488424Y-74801189D01*
X93521682Y-74819187D01*
X93569951Y-74865500D01*
X93587711Y-74929997D01*
X93569953Y-74994494D01*
X93521683Y-75040811D01*
X93488423Y-75058810D01*
X93310762Y-75197091D01*
X93158278Y-75362731D01*
X93035139Y-75551209D01*
X92944702Y-75757388D01*
X92889437Y-75975627D01*
X92889436Y-75975632D01*
X92870844Y-76200000D01*
X82834500Y-76200000D01*
X82834500Y-71344110D01*
X82851380Y-71281111D01*
X82876527Y-71237556D01*
X82935542Y-71055928D01*
X82955504Y-70866000D01*
X82935542Y-70676072D01*
X82904931Y-70581862D01*
X82876527Y-70494443D01*
X82867381Y-70478602D01*
X82850500Y-70415602D01*
X82850500Y-67878000D01*
X82867381Y-67815000D01*
X82913500Y-67768881D01*
X82976500Y-67752000D01*
X92659594Y-67752000D01*
X92659597Y-67752000D01*
X92697265Y-67743401D01*
X92711162Y-67741041D01*
X92744311Y-67737306D01*
X92749548Y-67736717D01*
X92785993Y-67723964D01*
X92799575Y-67720051D01*
X92837216Y-67711460D01*
X92837216Y-67711459D01*
X92837220Y-67711459D01*
X92872027Y-67694695D01*
X92885060Y-67689298D01*
X92921515Y-67676543D01*
X92954218Y-67655993D01*
X92966580Y-67649162D01*
X93001370Y-67632409D01*
X93031563Y-67608329D01*
X93043087Y-67600153D01*
X93075781Y-67579611D01*
X93204611Y-67450781D01*
X93264137Y-67391255D01*
X93264139Y-67391251D01*
X93769987Y-66885404D01*
X93810865Y-66858091D01*
X93859083Y-66848500D01*
X99044368Y-66848500D01*
X99111138Y-66867646D01*
X99157616Y-66919265D01*
X99169677Y-66987669D01*
X99165423Y-67028148D01*
X99162496Y-67055999D01*
X99182458Y-67245929D01*
X99241472Y-67427556D01*
X99336958Y-67592942D01*
X99368588Y-67628071D01*
X99464747Y-67734866D01*
X99619248Y-67847118D01*
X99793712Y-67924794D01*
X99961656Y-67960491D01*
X100020985Y-67991212D01*
X100056267Y-68047951D01*
X100057579Y-68114752D01*
X100024551Y-68172832D01*
X98784364Y-69413020D01*
X98755391Y-69434656D01*
X98721466Y-69447172D01*
X98710514Y-69449500D01*
X98710513Y-69449500D01*
X98641263Y-69464219D01*
X98523711Y-69489206D01*
X98349246Y-69566883D01*
X98194747Y-69679133D01*
X98066958Y-69821057D01*
X97971472Y-69986443D01*
X97912458Y-70168070D01*
X97912457Y-70168072D01*
X97912458Y-70168072D01*
X97892496Y-70358000D01*
X97898550Y-70415602D01*
X97912458Y-70547929D01*
X97971472Y-70729556D01*
X98066958Y-70894942D01*
X98108544Y-70941128D01*
X98194747Y-71036866D01*
X98349248Y-71149118D01*
X98523712Y-71226794D01*
X98710513Y-71266500D01*
X98901485Y-71266500D01*
X98901487Y-71266500D01*
X99088288Y-71226794D01*
X99262752Y-71149118D01*
X99417253Y-71036866D01*
X99545040Y-70894944D01*
X99640527Y-70729556D01*
X99699542Y-70547928D01*
X99708602Y-70461720D01*
X99720186Y-70420647D01*
X99744814Y-70385799D01*
X101363031Y-68767582D01*
X101416338Y-68735868D01*
X101478322Y-68733433D01*
X101504512Y-68739000D01*
X101504513Y-68739000D01*
X101695485Y-68739000D01*
X101695487Y-68739000D01*
X101882288Y-68699294D01*
X102056752Y-68621618D01*
X102211253Y-68509366D01*
X102339040Y-68367444D01*
X102434527Y-68202056D01*
X102493542Y-68020428D01*
X102501525Y-67944465D01*
X102527883Y-67879634D01*
X102584774Y-67838866D01*
X102654642Y-67834746D01*
X102715929Y-67868544D01*
X106721595Y-71874210D01*
X106748909Y-71915087D01*
X106758500Y-71963305D01*
X106758500Y-72762654D01*
X106739385Y-72829375D01*
X106687838Y-72875851D01*
X106619502Y-72887982D01*
X106555109Y-72862085D01*
X106409578Y-72748812D01*
X106211573Y-72641657D01*
X106059800Y-72589554D01*
X105998635Y-72568556D01*
X105776569Y-72531500D01*
X105551431Y-72531500D01*
X105329365Y-72568556D01*
X105329362Y-72568556D01*
X105329362Y-72568557D01*
X105116426Y-72641657D01*
X104918421Y-72748812D01*
X104740762Y-72887091D01*
X104679375Y-72953775D01*
X104625902Y-72988175D01*
X104562440Y-72992085D01*
X104505150Y-72964509D01*
X104468618Y-72912469D01*
X104424445Y-72794037D01*
X104336904Y-72677095D01*
X104219962Y-72589554D01*
X104083093Y-72538505D01*
X104022589Y-72532000D01*
X103378000Y-72532000D01*
X103378000Y-75248000D01*
X104022589Y-75248000D01*
X104083093Y-75241494D01*
X104219962Y-75190445D01*
X104336904Y-75102904D01*
X104424445Y-74985962D01*
X104468618Y-74867530D01*
X104505150Y-74815490D01*
X104562441Y-74787914D01*
X104625903Y-74791824D01*
X104679373Y-74826222D01*
X104715530Y-74865499D01*
X104740762Y-74892908D01*
X104918421Y-75031187D01*
X104918424Y-75031189D01*
X105116426Y-75138342D01*
X105329365Y-75211444D01*
X105551431Y-75248500D01*
X105776566Y-75248500D01*
X105776569Y-75248500D01*
X105998635Y-75211444D01*
X106211574Y-75138342D01*
X106409576Y-75031189D01*
X106539582Y-74930000D01*
X106555109Y-74917915D01*
X106619502Y-74892018D01*
X106687838Y-74904149D01*
X106739385Y-74950625D01*
X106758500Y-75017346D01*
X106758500Y-78093006D01*
X106750131Y-78138160D01*
X106726137Y-78177316D01*
X106702959Y-78203057D01*
X106607472Y-78368444D01*
X106548458Y-78550070D01*
X106528496Y-78740000D01*
X106548458Y-78929929D01*
X106607472Y-79111556D01*
X106702958Y-79276942D01*
X106731745Y-79308913D01*
X106830747Y-79418866D01*
X106985248Y-79531118D01*
X107159712Y-79608794D01*
X107346513Y-79648500D01*
X107537485Y-79648500D01*
X107537487Y-79648500D01*
X107724288Y-79608794D01*
X107898752Y-79531118D01*
X108053253Y-79418866D01*
X108181040Y-79276944D01*
X108276527Y-79111556D01*
X108335542Y-78929928D01*
X108355504Y-78740000D01*
X108335542Y-78550072D01*
X108307271Y-78463064D01*
X108278797Y-78375429D01*
X108274862Y-78312883D01*
X108301546Y-78256177D01*
X108352247Y-78219341D01*
X108414423Y-78211487D01*
X108472687Y-78234555D01*
X108509248Y-78261118D01*
X108683712Y-78338794D01*
X108870513Y-78378500D01*
X109061485Y-78378500D01*
X109061487Y-78378500D01*
X109248288Y-78338794D01*
X109422752Y-78261118D01*
X109577253Y-78148866D01*
X109705040Y-78006944D01*
X109800527Y-77841556D01*
X109859542Y-77659928D01*
X109879504Y-77470000D01*
X109859542Y-77280072D01*
X109800527Y-77098444D01*
X109705040Y-76933056D01*
X109681862Y-76907314D01*
X109657869Y-76868160D01*
X109649500Y-76823006D01*
X109649500Y-76200000D01*
X110650844Y-76200000D01*
X110669436Y-76424368D01*
X110669436Y-76424371D01*
X110669437Y-76424372D01*
X110724702Y-76642611D01*
X110815139Y-76848790D01*
X110926405Y-77019095D01*
X110938278Y-77037268D01*
X111028145Y-77134889D01*
X111081841Y-77193217D01*
X111111078Y-77246821D01*
X111111681Y-77307877D01*
X111083507Y-77362047D01*
X111033173Y-77396611D01*
X110918036Y-77439554D01*
X110801095Y-77527095D01*
X110713554Y-77644037D01*
X110662505Y-77780906D01*
X110656000Y-77841411D01*
X110656000Y-78486000D01*
X113372000Y-78486000D01*
X113372000Y-77841411D01*
X113365494Y-77780906D01*
X113314445Y-77644037D01*
X113226904Y-77527095D01*
X113109962Y-77439554D01*
X112994827Y-77396611D01*
X112944492Y-77362047D01*
X112916318Y-77307877D01*
X112916921Y-77246821D01*
X112946155Y-77193220D01*
X113089722Y-77037268D01*
X113212860Y-76848791D01*
X113303296Y-76642616D01*
X113358564Y-76424368D01*
X113377156Y-76200000D01*
X113358564Y-75975632D01*
X113303296Y-75757384D01*
X113212860Y-75551209D01*
X113089722Y-75362732D01*
X112937240Y-75197094D01*
X112937239Y-75197093D01*
X112937237Y-75197091D01*
X112759578Y-75058812D01*
X112726317Y-75040812D01*
X112678046Y-74994495D01*
X112660288Y-74929997D01*
X112678049Y-74865499D01*
X112726317Y-74819187D01*
X112759576Y-74801189D01*
X112937240Y-74662906D01*
X113089722Y-74497268D01*
X113212860Y-74308791D01*
X113303296Y-74102616D01*
X113358564Y-73884368D01*
X113377156Y-73660000D01*
X113358564Y-73435632D01*
X113303296Y-73217384D01*
X113212860Y-73011209D01*
X113089722Y-72822732D01*
X112937240Y-72657094D01*
X112937239Y-72657093D01*
X112937237Y-72657091D01*
X112759578Y-72518812D01*
X112561573Y-72411657D01*
X112417427Y-72362172D01*
X112348635Y-72338556D01*
X112126569Y-72301500D01*
X111901431Y-72301500D01*
X111679365Y-72338556D01*
X111679362Y-72338556D01*
X111679362Y-72338557D01*
X111466426Y-72411657D01*
X111268421Y-72518812D01*
X111090762Y-72657091D01*
X110938278Y-72822731D01*
X110815139Y-73011209D01*
X110724702Y-73217388D01*
X110669437Y-73435627D01*
X110669436Y-73435632D01*
X110650844Y-73660000D01*
X110669436Y-73884368D01*
X110669436Y-73884371D01*
X110669437Y-73884372D01*
X110724702Y-74102611D01*
X110815139Y-74308790D01*
X110833399Y-74336739D01*
X110938278Y-74497268D01*
X110983683Y-74546591D01*
X111090762Y-74662908D01*
X111136524Y-74698526D01*
X111268424Y-74801189D01*
X111301682Y-74819187D01*
X111349951Y-74865500D01*
X111367711Y-74929997D01*
X111349953Y-74994494D01*
X111301683Y-75040811D01*
X111268423Y-75058810D01*
X111090762Y-75197091D01*
X110938278Y-75362731D01*
X110815139Y-75551209D01*
X110724702Y-75757388D01*
X110669437Y-75975627D01*
X110669436Y-75975632D01*
X110650844Y-76200000D01*
X109649500Y-76200000D01*
X109649500Y-69874459D01*
X109649730Y-69866851D01*
X109653264Y-69808428D01*
X109642712Y-69750850D01*
X109641567Y-69743324D01*
X109634513Y-69685225D01*
X109631168Y-69676406D01*
X109625042Y-69654431D01*
X109623344Y-69645164D01*
X109623344Y-69645163D01*
X109599314Y-69591773D01*
X109596410Y-69584760D01*
X109575654Y-69530028D01*
X109570298Y-69522269D01*
X109559092Y-69502400D01*
X109555223Y-69493803D01*
X109555221Y-69493800D01*
X109519122Y-69447723D01*
X109514625Y-69441613D01*
X109481365Y-69393427D01*
X109437543Y-69354604D01*
X109432002Y-69349387D01*
X107872817Y-67790202D01*
X107848186Y-67755351D01*
X107836602Y-67714277D01*
X107827542Y-67628071D01*
X107793708Y-67523942D01*
X107768527Y-67446444D01*
X107757622Y-67427556D01*
X107673041Y-67281057D01*
X107545252Y-67139133D01*
X107458957Y-67076436D01*
X107419010Y-67028148D01*
X107407267Y-66966588D01*
X107426633Y-66906986D01*
X107472317Y-66864085D01*
X107533018Y-66848500D01*
X128644918Y-66848500D01*
X128693136Y-66858091D01*
X128734013Y-66885405D01*
X129205206Y-67356598D01*
X129233844Y-67400805D01*
X129241907Y-67452857D01*
X129227987Y-67503657D01*
X129217477Y-67523941D01*
X129125463Y-67782844D01*
X129125462Y-67782847D01*
X129095965Y-67924793D01*
X129069557Y-68051875D01*
X129050807Y-68325999D01*
X129069557Y-68600124D01*
X129069557Y-68600128D01*
X129069558Y-68600130D01*
X129125462Y-68869153D01*
X129125463Y-68869155D01*
X129217477Y-69128059D01*
X129227984Y-69148336D01*
X129241907Y-69199137D01*
X129233845Y-69251191D01*
X129205206Y-69295400D01*
X127744996Y-70755610D01*
X127744994Y-70755613D01*
X127633889Y-70866717D01*
X127613345Y-70899413D01*
X127605172Y-70910932D01*
X127581092Y-70941128D01*
X127564335Y-70975923D01*
X127557503Y-70988284D01*
X127536956Y-71020985D01*
X127524202Y-71057434D01*
X127518797Y-71070482D01*
X127502041Y-71105279D01*
X127493447Y-71142929D01*
X127489537Y-71156501D01*
X127476782Y-71192953D01*
X127472457Y-71231332D01*
X127470092Y-71245254D01*
X127461909Y-71281109D01*
X127461500Y-71282903D01*
X127461500Y-71328594D01*
X127461500Y-78140903D01*
X127461500Y-78323097D01*
X127465082Y-78338793D01*
X127470092Y-78360740D01*
X127472458Y-78374664D01*
X127474228Y-78390372D01*
X127476783Y-78413050D01*
X127489535Y-78449494D01*
X127493445Y-78463064D01*
X127502040Y-78500718D01*
X127518796Y-78535512D01*
X127524201Y-78548560D01*
X127524730Y-78550072D01*
X127536958Y-78585018D01*
X127557499Y-78617708D01*
X127564335Y-78630076D01*
X127581091Y-78664870D01*
X127605173Y-78695068D01*
X127613340Y-78706578D01*
X127633889Y-78739281D01*
X127666196Y-78771588D01*
X129205206Y-80310598D01*
X129233844Y-80354805D01*
X129241907Y-80406857D01*
X129227987Y-80457657D01*
X129217477Y-80477941D01*
X129125463Y-80736844D01*
X129069557Y-81005875D01*
X129050807Y-81279999D01*
X129069557Y-81554124D01*
X129069557Y-81554128D01*
X129069558Y-81554130D01*
X129125462Y-81823153D01*
X129125463Y-81823155D01*
X129217476Y-82082057D01*
X129343889Y-82326024D01*
X129502343Y-82550502D01*
X129562108Y-82614495D01*
X129689889Y-82751314D01*
X129903031Y-82924718D01*
X130137800Y-83067484D01*
X130389823Y-83176953D01*
X130654404Y-83251085D01*
X130654410Y-83251085D01*
X130654411Y-83251086D01*
X130926612Y-83288500D01*
X130926615Y-83288500D01*
X131201385Y-83288500D01*
X131201388Y-83288500D01*
X131420636Y-83258364D01*
X131473596Y-83251085D01*
X131738177Y-83176953D01*
X131990200Y-83067484D01*
X132224969Y-82924718D01*
X132438111Y-82751314D01*
X132625657Y-82550502D01*
X132784111Y-82326023D01*
X132910523Y-82082058D01*
X133002538Y-81823153D01*
X133058442Y-81554130D01*
X133077193Y-81280000D01*
X133058442Y-81005870D01*
X133002538Y-80736847D01*
X132910523Y-80477942D01*
X132784111Y-80233977D01*
X132625657Y-80009498D01*
X132438111Y-79808686D01*
X132224969Y-79635282D01*
X131990200Y-79492516D01*
X131738177Y-79383047D01*
X131473596Y-79308915D01*
X131473594Y-79308914D01*
X131473588Y-79308913D01*
X131201388Y-79271500D01*
X131201385Y-79271500D01*
X130926615Y-79271500D01*
X130926612Y-79271500D01*
X130654404Y-79308914D01*
X130597190Y-79324944D01*
X130531279Y-79325506D01*
X130474103Y-79292711D01*
X129604987Y-78423595D01*
X129574249Y-78373436D01*
X129569633Y-78314789D01*
X129592146Y-78260439D01*
X129636879Y-78222233D01*
X129694082Y-78208500D01*
X132612638Y-78208500D01*
X132673201Y-78201989D01*
X132810204Y-78150889D01*
X132927261Y-78063261D01*
X133014889Y-77946204D01*
X133065989Y-77809201D01*
X133072500Y-77748638D01*
X133072500Y-74651362D01*
X133065989Y-74590799D01*
X133014889Y-74453796D01*
X133014888Y-74453794D01*
X132927261Y-74336738D01*
X132810205Y-74249111D01*
X132741702Y-74223561D01*
X132673201Y-74198011D01*
X132612638Y-74191500D01*
X129515362Y-74191500D01*
X129454799Y-74198011D01*
X129317794Y-74249111D01*
X129280009Y-74277397D01*
X129215730Y-74302028D01*
X129148100Y-74289201D01*
X129097303Y-74242747D01*
X129078500Y-74176529D01*
X129078500Y-71761082D01*
X129088091Y-71712864D01*
X129115402Y-71671989D01*
X130474106Y-70313284D01*
X130531281Y-70280492D01*
X130597191Y-70281054D01*
X130654404Y-70297085D01*
X130772281Y-70313287D01*
X130926612Y-70334500D01*
X130926615Y-70334500D01*
X131201385Y-70334500D01*
X131201388Y-70334500D01*
X131420636Y-70304364D01*
X131473596Y-70297085D01*
X131738177Y-70222953D01*
X131990200Y-70113484D01*
X132224969Y-69970718D01*
X132438111Y-69797314D01*
X132625657Y-69596502D01*
X132784111Y-69372023D01*
X132910523Y-69128058D01*
X133002538Y-68869153D01*
X133058442Y-68600130D01*
X133077193Y-68326000D01*
X133058442Y-68051870D01*
X133002538Y-67782847D01*
X132910523Y-67523942D01*
X132784111Y-67279977D01*
X132760077Y-67245929D01*
X132691680Y-67149033D01*
X132625657Y-67055498D01*
X132486956Y-66906986D01*
X132438112Y-66854687D01*
X132224969Y-66681282D01*
X131990198Y-66538515D01*
X131738179Y-66429048D01*
X131738177Y-66429047D01*
X131473596Y-66354915D01*
X131473594Y-66354914D01*
X131473588Y-66354913D01*
X131201388Y-66317500D01*
X131201385Y-66317500D01*
X130926615Y-66317500D01*
X130926612Y-66317500D01*
X130654404Y-66354914D01*
X130597190Y-66370944D01*
X130531279Y-66371506D01*
X130474103Y-66338711D01*
X129604987Y-65469595D01*
X129574249Y-65419436D01*
X129569633Y-65360789D01*
X129592146Y-65306439D01*
X129636879Y-65268233D01*
X129694082Y-65254500D01*
X132612638Y-65254500D01*
X132673201Y-65247989D01*
X132810204Y-65196889D01*
X132927261Y-65109261D01*
X133014889Y-64992204D01*
X133065989Y-64855201D01*
X133072500Y-64794638D01*
X133072500Y-61697362D01*
X133065989Y-61636799D01*
X133014889Y-61499796D01*
X133014888Y-61499794D01*
X132927261Y-61382738D01*
X132810205Y-61295111D01*
X132741702Y-61269560D01*
X132673201Y-61244011D01*
X132612638Y-61237500D01*
X129515362Y-61237500D01*
X129454799Y-61244011D01*
X129317794Y-61295111D01*
X129200738Y-61382738D01*
X129113111Y-61499794D01*
X129062011Y-61636799D01*
X129055500Y-61697362D01*
X129055500Y-64794638D01*
X129062011Y-64855200D01*
X129113111Y-64992205D01*
X129141397Y-65029991D01*
X129166028Y-65094270D01*
X129153201Y-65161900D01*
X129106747Y-65212697D01*
X129040529Y-65231500D01*
X93380903Y-65231500D01*
X93343254Y-65240092D01*
X93329332Y-65242457D01*
X93290953Y-65246782D01*
X93254501Y-65259537D01*
X93240929Y-65263447D01*
X93203279Y-65272041D01*
X93168482Y-65288797D01*
X93155434Y-65294202D01*
X93118985Y-65306956D01*
X93086284Y-65327503D01*
X93073923Y-65334335D01*
X93039127Y-65351092D01*
X93008932Y-65375172D01*
X92997412Y-65383346D01*
X92964719Y-65403888D01*
X92872885Y-65495719D01*
X92872880Y-65495728D01*
X92270510Y-66098097D01*
X92229636Y-66125409D01*
X92181418Y-66135000D01*
X82486494Y-66135000D01*
X82435246Y-66124107D01*
X82324290Y-66074707D01*
X82324288Y-66074706D01*
X82137487Y-66035000D01*
X81946513Y-66035000D01*
X81821979Y-66061470D01*
X81759711Y-66074706D01*
X81585246Y-66152383D01*
X81430747Y-66264633D01*
X81302958Y-66406557D01*
X81207472Y-66571943D01*
X81148458Y-66753570D01*
X81128496Y-66943500D01*
X81148458Y-67133429D01*
X81207472Y-67315056D01*
X81216619Y-67330898D01*
X81233500Y-67393898D01*
X81233500Y-70415602D01*
X81216619Y-70478602D01*
X81207472Y-70494443D01*
X81148458Y-70676070D01*
X81128496Y-70866000D01*
X81148458Y-71055929D01*
X81211333Y-71249438D01*
X81217500Y-71288374D01*
X81217500Y-88472612D01*
X81208325Y-88519812D01*
X81182137Y-88560139D01*
X81142750Y-88587718D01*
X81077248Y-88616881D01*
X80922747Y-88729133D01*
X80794958Y-88871057D01*
X80699472Y-89036443D01*
X80640458Y-89218070D01*
X80620496Y-89408000D01*
X48285500Y-89408000D01*
X48285500Y-76732638D01*
X50823500Y-76732638D01*
X50830011Y-76793200D01*
X50881111Y-76930205D01*
X50968738Y-77047261D01*
X51085794Y-77134888D01*
X51085795Y-77134888D01*
X51085796Y-77134889D01*
X51222799Y-77185989D01*
X51283362Y-77192500D01*
X54380638Y-77192500D01*
X54441201Y-77185989D01*
X54578204Y-77134889D01*
X54695261Y-77047261D01*
X54782889Y-76930204D01*
X54833989Y-76793201D01*
X54840500Y-76732638D01*
X54840500Y-73635362D01*
X54833989Y-73574799D01*
X54782889Y-73437796D01*
X54782888Y-73437794D01*
X54695261Y-73320738D01*
X54578205Y-73233111D01*
X54509702Y-73207560D01*
X54441201Y-73182011D01*
X54380638Y-73175500D01*
X51283362Y-73175500D01*
X51222799Y-73182011D01*
X51085794Y-73233111D01*
X50968738Y-73320738D01*
X50881111Y-73437794D01*
X50830011Y-73574799D01*
X50823500Y-73635362D01*
X50823500Y-76732638D01*
X48285500Y-76732638D01*
X48285500Y-70104000D01*
X50818807Y-70104000D01*
X50837557Y-70378124D01*
X50837557Y-70378128D01*
X50837558Y-70378130D01*
X50893462Y-70647153D01*
X50893463Y-70647155D01*
X50985476Y-70906057D01*
X51111889Y-71150024D01*
X51270343Y-71374502D01*
X51411002Y-71525111D01*
X51457889Y-71575314D01*
X51671031Y-71748718D01*
X51905800Y-71891484D01*
X52157823Y-72000953D01*
X52422404Y-72075085D01*
X52422410Y-72075085D01*
X52422411Y-72075086D01*
X52694612Y-72112500D01*
X52694615Y-72112500D01*
X52969385Y-72112500D01*
X52969388Y-72112500D01*
X53188636Y-72082364D01*
X53241596Y-72075085D01*
X53506177Y-72000953D01*
X53758200Y-71891484D01*
X53992969Y-71748718D01*
X54206111Y-71575314D01*
X54393657Y-71374502D01*
X54552111Y-71150023D01*
X54678523Y-70906058D01*
X54770538Y-70647153D01*
X54826442Y-70378130D01*
X54845193Y-70104000D01*
X54826442Y-69829870D01*
X54770538Y-69560847D01*
X54678523Y-69301942D01*
X54552111Y-69057977D01*
X54393657Y-68833498D01*
X54206111Y-68632686D01*
X53992969Y-68459282D01*
X53758200Y-68316516D01*
X53506177Y-68207047D01*
X53241596Y-68132915D01*
X53241594Y-68132914D01*
X53241588Y-68132913D01*
X52969388Y-68095500D01*
X52969385Y-68095500D01*
X52694615Y-68095500D01*
X52694612Y-68095500D01*
X52422411Y-68132913D01*
X52422403Y-68132915D01*
X52422404Y-68132915D01*
X52157823Y-68207047D01*
X52157821Y-68207047D01*
X52157820Y-68207048D01*
X51905801Y-68316515D01*
X51671030Y-68459282D01*
X51457887Y-68632687D01*
X51270343Y-68833497D01*
X51111889Y-69057975D01*
X50985476Y-69301942D01*
X50904415Y-69530028D01*
X50893462Y-69560847D01*
X50853979Y-69750850D01*
X50837557Y-69829875D01*
X50818807Y-70104000D01*
X48285500Y-70104000D01*
X48285500Y-53574983D01*
X49784226Y-53574983D01*
X49999238Y-53762834D01*
X50348622Y-54016676D01*
X50719338Y-54238169D01*
X51108425Y-54425543D01*
X51512754Y-54577290D01*
X51929040Y-54692178D01*
X52353952Y-54769288D01*
X52784074Y-54808000D01*
X53215926Y-54808000D01*
X53646047Y-54769288D01*
X54070959Y-54692178D01*
X54487245Y-54577290D01*
X54891574Y-54425543D01*
X55280661Y-54238169D01*
X55651377Y-54016676D01*
X56000755Y-53762838D01*
X56215771Y-53574983D01*
X126784226Y-53574983D01*
X126999238Y-53762834D01*
X127348622Y-54016676D01*
X127719338Y-54238169D01*
X128108425Y-54425543D01*
X128512754Y-54577290D01*
X128929040Y-54692178D01*
X129353952Y-54769288D01*
X129784074Y-54808000D01*
X130215926Y-54808000D01*
X130646047Y-54769288D01*
X131070959Y-54692178D01*
X131487245Y-54577290D01*
X131891574Y-54425543D01*
X132280661Y-54238169D01*
X132651377Y-54016676D01*
X133000755Y-53762838D01*
X133215772Y-53574982D01*
X133215772Y-53574981D01*
X130000001Y-50359210D01*
X129999999Y-50359210D01*
X126784226Y-53574981D01*
X126784226Y-53574983D01*
X56215771Y-53574983D01*
X56215772Y-53574982D01*
X56215772Y-53574981D01*
X53000001Y-50359210D01*
X52999999Y-50359210D01*
X49784226Y-53574981D01*
X49784226Y-53574983D01*
X48285500Y-53574983D01*
X48285500Y-51818577D01*
X48303920Y-51752983D01*
X48353794Y-51706568D01*
X48420540Y-51692902D01*
X48484643Y-51715980D01*
X48527361Y-51769056D01*
X48663778Y-52088222D01*
X48868417Y-52468504D01*
X49106322Y-52828915D01*
X49375585Y-53166561D01*
X49423800Y-53216988D01*
X49423801Y-53216989D01*
X52640790Y-50000001D01*
X53359210Y-50000001D01*
X56576197Y-53216988D01*
X56576198Y-53216988D01*
X56624413Y-53166561D01*
X56893677Y-52828915D01*
X57131582Y-52468504D01*
X57167026Y-52402638D01*
X62105500Y-52402638D01*
X62112011Y-52463201D01*
X62115259Y-52471909D01*
X62163111Y-52600205D01*
X62250738Y-52717261D01*
X62367794Y-52804888D01*
X62367795Y-52804888D01*
X62367796Y-52804889D01*
X62504799Y-52855989D01*
X62565362Y-52862500D01*
X65262638Y-52862500D01*
X65323201Y-52855989D01*
X65460204Y-52804889D01*
X65577261Y-52717261D01*
X65664889Y-52600204D01*
X65715989Y-52463201D01*
X65722500Y-52402638D01*
X65722500Y-51054000D01*
X67100429Y-51054000D01*
X67120685Y-51324300D01*
X67181001Y-51588560D01*
X67280029Y-51840880D01*
X67415557Y-52075621D01*
X67584554Y-52287538D01*
X67584557Y-52287540D01*
X67584558Y-52287542D01*
X67783257Y-52471907D01*
X68007215Y-52624599D01*
X68133820Y-52685568D01*
X68251427Y-52742206D01*
X68309192Y-52760023D01*
X68510442Y-52822101D01*
X68778472Y-52862500D01*
X69049526Y-52862500D01*
X69049528Y-52862500D01*
X69317558Y-52822101D01*
X69576572Y-52742206D01*
X69820786Y-52624599D01*
X70002434Y-52500753D01*
X72826455Y-52500753D01*
X73007467Y-52624166D01*
X73251610Y-52741739D01*
X73510551Y-52821611D01*
X73778511Y-52862000D01*
X74049489Y-52862000D01*
X74317448Y-52821611D01*
X74576389Y-52741739D01*
X74820532Y-52624166D01*
X75001544Y-52500753D01*
X74954429Y-52453638D01*
X79471500Y-52453638D01*
X79478011Y-52514201D01*
X79481259Y-52522909D01*
X79529111Y-52651205D01*
X79616738Y-52768261D01*
X79733794Y-52855888D01*
X79733795Y-52855888D01*
X79733796Y-52855889D01*
X79870799Y-52906989D01*
X79931362Y-52913500D01*
X82628638Y-52913500D01*
X82689201Y-52906989D01*
X82826204Y-52855889D01*
X82943261Y-52768261D01*
X83030889Y-52651204D01*
X83081989Y-52514201D01*
X83088500Y-52453638D01*
X83088500Y-51104999D01*
X84466429Y-51104999D01*
X84486685Y-51375300D01*
X84547001Y-51639560D01*
X84646029Y-51891880D01*
X84781557Y-52126621D01*
X84950554Y-52338538D01*
X84950557Y-52338540D01*
X84950558Y-52338542D01*
X85149257Y-52522907D01*
X85373215Y-52675599D01*
X85459727Y-52717261D01*
X85617427Y-52793206D01*
X85655300Y-52804888D01*
X85876442Y-52873101D01*
X86144472Y-52913500D01*
X86415526Y-52913500D01*
X86415528Y-52913500D01*
X86683558Y-52873101D01*
X86942572Y-52793206D01*
X87186786Y-52675599D01*
X87368434Y-52551753D01*
X90192455Y-52551753D01*
X90373467Y-52675166D01*
X90617610Y-52792739D01*
X90876551Y-52872611D01*
X91144511Y-52913000D01*
X91415489Y-52913000D01*
X91683448Y-52872611D01*
X91942389Y-52792739D01*
X92186532Y-52675166D01*
X92367544Y-52551753D01*
X92269429Y-52453638D01*
X96743500Y-52453638D01*
X96750011Y-52514201D01*
X96753259Y-52522909D01*
X96801111Y-52651205D01*
X96888738Y-52768261D01*
X97005794Y-52855888D01*
X97005795Y-52855888D01*
X97005796Y-52855889D01*
X97142799Y-52906989D01*
X97203362Y-52913500D01*
X99900638Y-52913500D01*
X99961201Y-52906989D01*
X100098204Y-52855889D01*
X100215261Y-52768261D01*
X100302889Y-52651204D01*
X100353989Y-52514201D01*
X100360500Y-52453638D01*
X100360500Y-51104999D01*
X101738429Y-51104999D01*
X101758685Y-51375300D01*
X101819001Y-51639560D01*
X101918029Y-51891880D01*
X102053557Y-52126621D01*
X102222554Y-52338538D01*
X102222557Y-52338540D01*
X102222558Y-52338542D01*
X102421257Y-52522907D01*
X102645215Y-52675599D01*
X102731727Y-52717261D01*
X102889427Y-52793206D01*
X102927300Y-52804888D01*
X103148442Y-52873101D01*
X103416472Y-52913500D01*
X103687526Y-52913500D01*
X103687528Y-52913500D01*
X103955558Y-52873101D01*
X104214572Y-52793206D01*
X104458786Y-52675599D01*
X104682743Y-52522907D01*
X104881442Y-52338542D01*
X105050443Y-52126621D01*
X105185971Y-51891879D01*
X105284999Y-51639559D01*
X105345315Y-51375299D01*
X105365571Y-51105000D01*
X105365571Y-51104999D01*
X106738429Y-51104999D01*
X106758685Y-51375300D01*
X106819001Y-51639560D01*
X106918029Y-51891880D01*
X107053557Y-52126621D01*
X107222554Y-52338538D01*
X107222557Y-52338540D01*
X107222558Y-52338542D01*
X107421257Y-52522907D01*
X107645215Y-52675599D01*
X107731727Y-52717261D01*
X107889427Y-52793206D01*
X107927300Y-52804888D01*
X108148442Y-52873101D01*
X108416472Y-52913500D01*
X108687526Y-52913500D01*
X108687528Y-52913500D01*
X108955558Y-52873101D01*
X109214572Y-52793206D01*
X109458786Y-52675599D01*
X109682743Y-52522907D01*
X109881442Y-52338542D01*
X110050443Y-52126621D01*
X110185971Y-51891879D01*
X110284999Y-51639559D01*
X110345315Y-51375299D01*
X110365571Y-51105000D01*
X110345315Y-50834701D01*
X110284999Y-50570441D01*
X110185971Y-50318121D01*
X110050443Y-50083379D01*
X109998546Y-50018302D01*
X109983951Y-50000000D01*
X125187153Y-50000000D01*
X125206528Y-50431415D01*
X125264498Y-50859368D01*
X125360595Y-51280397D01*
X125494044Y-51691107D01*
X125663778Y-52088222D01*
X125868417Y-52468504D01*
X126106322Y-52828915D01*
X126375585Y-53166561D01*
X126423800Y-53216988D01*
X126423801Y-53216989D01*
X129640790Y-50000001D01*
X130359210Y-50000001D01*
X133576198Y-53216988D01*
X133624413Y-53166561D01*
X133893677Y-52828915D01*
X134131582Y-52468504D01*
X134336221Y-52088222D01*
X134505955Y-51691107D01*
X134639404Y-51280397D01*
X134735501Y-50859368D01*
X134793471Y-50431415D01*
X134812846Y-50000000D01*
X134793471Y-49568584D01*
X134735501Y-49140631D01*
X134639404Y-48719602D01*
X134505955Y-48308892D01*
X134336221Y-47911777D01*
X134131582Y-47531495D01*
X133893677Y-47171084D01*
X133624414Y-46833438D01*
X133576198Y-46783010D01*
X133576198Y-46783009D01*
X130359210Y-49999999D01*
X130359210Y-50000001D01*
X129640790Y-50000001D01*
X129640790Y-49999999D01*
X126423800Y-46783009D01*
X126375585Y-46833439D01*
X126106322Y-47171084D01*
X125868417Y-47531495D01*
X125663778Y-47911777D01*
X125494044Y-48308892D01*
X125360595Y-48719602D01*
X125264498Y-49140631D01*
X125206528Y-49568584D01*
X125187153Y-50000000D01*
X109983951Y-50000000D01*
X109881445Y-49871461D01*
X109826480Y-49820461D01*
X109682743Y-49687093D01*
X109458786Y-49534401D01*
X109458785Y-49534400D01*
X109458783Y-49534399D01*
X109214572Y-49416793D01*
X109011358Y-49354111D01*
X108955558Y-49336899D01*
X108687528Y-49296500D01*
X108416472Y-49296500D01*
X108148442Y-49336899D01*
X108148438Y-49336900D01*
X108148439Y-49336900D01*
X107889427Y-49416793D01*
X107645214Y-49534401D01*
X107421260Y-49687090D01*
X107222554Y-49871461D01*
X107053557Y-50083378D01*
X106918029Y-50318119D01*
X106819001Y-50570439D01*
X106758685Y-50834699D01*
X106738429Y-51104999D01*
X105365571Y-51104999D01*
X105345315Y-50834701D01*
X105284999Y-50570441D01*
X105185971Y-50318121D01*
X105050443Y-50083379D01*
X104998546Y-50018302D01*
X104881445Y-49871461D01*
X104826480Y-49820461D01*
X104682743Y-49687093D01*
X104458786Y-49534401D01*
X104458785Y-49534400D01*
X104458783Y-49534399D01*
X104214572Y-49416793D01*
X104011358Y-49354111D01*
X103955558Y-49336899D01*
X103687528Y-49296500D01*
X103416472Y-49296500D01*
X103148442Y-49336899D01*
X103148438Y-49336900D01*
X103148439Y-49336900D01*
X102889427Y-49416793D01*
X102645214Y-49534401D01*
X102421260Y-49687090D01*
X102222554Y-49871461D01*
X102053557Y-50083378D01*
X101918029Y-50318119D01*
X101819001Y-50570439D01*
X101758685Y-50834699D01*
X101738429Y-51104999D01*
X100360500Y-51104999D01*
X100360500Y-49756362D01*
X100353989Y-49695799D01*
X100302889Y-49558796D01*
X100302888Y-49558794D01*
X100215261Y-49441738D01*
X100098205Y-49354111D01*
X100029702Y-49328560D01*
X99961201Y-49303011D01*
X99900638Y-49296500D01*
X97203362Y-49296500D01*
X97142799Y-49303011D01*
X97005794Y-49354111D01*
X96888738Y-49441738D01*
X96801111Y-49558794D01*
X96753259Y-49687090D01*
X96750011Y-49695799D01*
X96743500Y-49756362D01*
X96743500Y-52453638D01*
X92269429Y-52453638D01*
X91280001Y-51464210D01*
X91279999Y-51464210D01*
X90192455Y-52551752D01*
X90192455Y-52551753D01*
X87368434Y-52551753D01*
X87410743Y-52522907D01*
X87609442Y-52338542D01*
X87778443Y-52126621D01*
X87913971Y-51891879D01*
X88012999Y-51639559D01*
X88073315Y-51375299D01*
X88093571Y-51105000D01*
X88093571Y-51104999D01*
X89466930Y-51104999D01*
X89487180Y-51375225D01*
X89547480Y-51639413D01*
X89646480Y-51891663D01*
X89781971Y-52126339D01*
X89834091Y-52191696D01*
X89834093Y-52191696D01*
X90920790Y-51105001D01*
X91639210Y-51105001D01*
X92725906Y-52191697D01*
X92725907Y-52191696D01*
X92778028Y-52126340D01*
X92913519Y-51891663D01*
X93012519Y-51639413D01*
X93072819Y-51375225D01*
X93093069Y-51104999D01*
X93072819Y-50834774D01*
X93012519Y-50570586D01*
X92913519Y-50318336D01*
X92778028Y-50083660D01*
X92725907Y-50018302D01*
X92725905Y-50018302D01*
X91639210Y-51104999D01*
X91639210Y-51105001D01*
X90920790Y-51105001D01*
X90920790Y-51104999D01*
X89834093Y-50018302D01*
X89834091Y-50018302D01*
X89781971Y-50083660D01*
X89646480Y-50318336D01*
X89547480Y-50570586D01*
X89487180Y-50834774D01*
X89466930Y-51104999D01*
X88093571Y-51104999D01*
X88073315Y-50834701D01*
X88012999Y-50570441D01*
X87913971Y-50318121D01*
X87778443Y-50083379D01*
X87726546Y-50018302D01*
X87609445Y-49871461D01*
X87554480Y-49820461D01*
X87410743Y-49687093D01*
X87368432Y-49658246D01*
X90192455Y-49658246D01*
X91279999Y-50745790D01*
X91280001Y-50745790D01*
X92367543Y-49658246D01*
X92367543Y-49658244D01*
X92186535Y-49534835D01*
X91942389Y-49417260D01*
X91683448Y-49337388D01*
X91415489Y-49297000D01*
X91144511Y-49297000D01*
X90876551Y-49337388D01*
X90617610Y-49417260D01*
X90373465Y-49534835D01*
X90192455Y-49658244D01*
X90192455Y-49658246D01*
X87368432Y-49658246D01*
X87186786Y-49534401D01*
X87186785Y-49534400D01*
X87186783Y-49534399D01*
X86942572Y-49416793D01*
X86739358Y-49354111D01*
X86683558Y-49336899D01*
X86415528Y-49296500D01*
X86144472Y-49296500D01*
X85876442Y-49336899D01*
X85876438Y-49336900D01*
X85876439Y-49336900D01*
X85617427Y-49416793D01*
X85373214Y-49534401D01*
X85149260Y-49687090D01*
X84950554Y-49871461D01*
X84781557Y-50083378D01*
X84646029Y-50318119D01*
X84547001Y-50570439D01*
X84486685Y-50834699D01*
X84466429Y-51104999D01*
X83088500Y-51104999D01*
X83088500Y-49756362D01*
X83081989Y-49695799D01*
X83030889Y-49558796D01*
X83030888Y-49558794D01*
X82943261Y-49441738D01*
X82826205Y-49354111D01*
X82757702Y-49328560D01*
X82689201Y-49303011D01*
X82628638Y-49296500D01*
X79931362Y-49296500D01*
X79870799Y-49303011D01*
X79733794Y-49354111D01*
X79616738Y-49441738D01*
X79529111Y-49558794D01*
X79481259Y-49687090D01*
X79478011Y-49695799D01*
X79471500Y-49756362D01*
X79471500Y-52453638D01*
X74954429Y-52453638D01*
X73914001Y-51413210D01*
X73913999Y-51413210D01*
X72826455Y-52500752D01*
X72826455Y-52500753D01*
X70002434Y-52500753D01*
X70044743Y-52471907D01*
X70243442Y-52287542D01*
X70412443Y-52075621D01*
X70547971Y-51840879D01*
X70646999Y-51588559D01*
X70707315Y-51324299D01*
X70727571Y-51054000D01*
X72100930Y-51054000D01*
X72121180Y-51324225D01*
X72181480Y-51588413D01*
X72280480Y-51840663D01*
X72415971Y-52075339D01*
X72468091Y-52140696D01*
X72468093Y-52140696D01*
X73554790Y-51054001D01*
X74273210Y-51054001D01*
X75359906Y-52140697D01*
X75359907Y-52140696D01*
X75412028Y-52075340D01*
X75547519Y-51840663D01*
X75646519Y-51588413D01*
X75706819Y-51324225D01*
X75727069Y-51054000D01*
X75706819Y-50783774D01*
X75646519Y-50519586D01*
X75547519Y-50267336D01*
X75412028Y-50032660D01*
X75359907Y-49967302D01*
X75359905Y-49967302D01*
X74273210Y-51053999D01*
X74273210Y-51054001D01*
X73554790Y-51054001D01*
X73554790Y-51053999D01*
X72468093Y-49967302D01*
X72468091Y-49967302D01*
X72415971Y-50032660D01*
X72280480Y-50267336D01*
X72181480Y-50519586D01*
X72121180Y-50783774D01*
X72100930Y-51054000D01*
X70727571Y-51054000D01*
X70707315Y-50783701D01*
X70646999Y-50519441D01*
X70547971Y-50267121D01*
X70412443Y-50032379D01*
X70360546Y-49967302D01*
X70243445Y-49820461D01*
X70243442Y-49820458D01*
X70044743Y-49636093D01*
X70002432Y-49607246D01*
X72826455Y-49607246D01*
X73913999Y-50694790D01*
X73914001Y-50694790D01*
X75001543Y-49607246D01*
X75001543Y-49607244D01*
X74820535Y-49483835D01*
X74576389Y-49366260D01*
X74317448Y-49286388D01*
X74049489Y-49246000D01*
X73778511Y-49246000D01*
X73510551Y-49286388D01*
X73251610Y-49366260D01*
X73007465Y-49483835D01*
X72826455Y-49607244D01*
X72826455Y-49607246D01*
X70002432Y-49607246D01*
X69820786Y-49483401D01*
X69820785Y-49483400D01*
X69820783Y-49483399D01*
X69576572Y-49365793D01*
X69373034Y-49303011D01*
X69317558Y-49285899D01*
X69049528Y-49245500D01*
X68778472Y-49245500D01*
X68510442Y-49285899D01*
X68510438Y-49285900D01*
X68510439Y-49285900D01*
X68251427Y-49365793D01*
X68007214Y-49483401D01*
X67783260Y-49636090D01*
X67584554Y-49820461D01*
X67415557Y-50032378D01*
X67280029Y-50267119D01*
X67181001Y-50519439D01*
X67120685Y-50783699D01*
X67100429Y-51054000D01*
X65722500Y-51054000D01*
X65722500Y-49705362D01*
X65715989Y-49644799D01*
X65664889Y-49507796D01*
X65664888Y-49507794D01*
X65577261Y-49390738D01*
X65460205Y-49303111D01*
X65391702Y-49277560D01*
X65323201Y-49252011D01*
X65262638Y-49245500D01*
X62565362Y-49245500D01*
X62504799Y-49252011D01*
X62367794Y-49303111D01*
X62250738Y-49390738D01*
X62163111Y-49507794D01*
X62115259Y-49636090D01*
X62112011Y-49644799D01*
X62105500Y-49705362D01*
X62105500Y-52402638D01*
X57167026Y-52402638D01*
X57336221Y-52088222D01*
X57505955Y-51691107D01*
X57639404Y-51280397D01*
X57735501Y-50859368D01*
X57793471Y-50431415D01*
X57812846Y-49999999D01*
X57793471Y-49568584D01*
X57735501Y-49140631D01*
X57639404Y-48719602D01*
X57505955Y-48308892D01*
X57336221Y-47911777D01*
X57131582Y-47531495D01*
X56893677Y-47171084D01*
X56624414Y-46833438D01*
X56576198Y-46783010D01*
X56576198Y-46783009D01*
X53359210Y-49999999D01*
X53359210Y-50000001D01*
X52640790Y-50000001D01*
X52640790Y-49999999D01*
X49423800Y-46783009D01*
X49375585Y-46833439D01*
X49106322Y-47171084D01*
X48868417Y-47531495D01*
X48663778Y-47911777D01*
X48527361Y-48230944D01*
X48484643Y-48284020D01*
X48420540Y-48307098D01*
X48353794Y-48293432D01*
X48303920Y-48247017D01*
X48285500Y-48181423D01*
X48285500Y-45363500D01*
X48302381Y-45300500D01*
X48348500Y-45254381D01*
X48411500Y-45237500D01*
X51311925Y-45237500D01*
X51378482Y-45256513D01*
G37*
G04 #@! TD.AperFunction*
M02*
